<svg width="505" height="268" viewBox="0 0 505 268" fill="none" xmlns="http://www.w3.org/2000/svg">
<path d="M383.649 199.796C381.884 202.651 379.902 205.596 377.912 208.307C352.172 243.531 308.581 266.686 259.146 266.686C206.198 266.686 159.959 240.126 135.174 200.633" stroke="white" stroke-width="0.75" stroke-miterlimit="10"/>
<path d="M134.689 71.5184C164.5 26.3607 208.235 0.638672 259.22 0.638672C314.104 0.638672 359.964 28.3601 384.011 70.2665" stroke="white" stroke-width="0.75" stroke-miterlimit="10"/>
<path d="M135.258 74.1475C159.17 32.4392 204.705 3.09668 259.329 3.09668C313.925 3.09668 359.56 30.71 383.481 72.4002" stroke="white" stroke-width="0.75" stroke-miterlimit="10"/>
<path d="M237.424 263.955C194.032 257.903 157.088 233.685 135.914 199.956" stroke="white" stroke-width="0.75" stroke-miterlimit="10"/>
<path d="M383.271 72.3744L501.524 52.0742V210.928L383.334 197.769L382.101 199.291C380.344 202.119 378.489 204.884 376.517 207.577C354.992 237.037 320.867 257.976 281.293 263.804" stroke="white" stroke-width="0.75" stroke-miterlimit="10"/>
<path d="M135.265 80.4804L135.256 74.1489L40.4102 58.604L40.9415 55.749L134.895 71.5551" stroke="white" stroke-width="0.75" stroke-miterlimit="10"/>
<path d="M1.20898 59.6478L1.21799 51.7223V49.0654L12.0976 50.9027L11.7734 53.9288L3.86585 52.6229V212.287L135.25 198.372L135.169 181.566" stroke="white" stroke-width="0.75" stroke-miterlimit="10"/>
<path d="M1.1875 80.9123L1.19651 73.6172" stroke="white" stroke-width="0.75" stroke-miterlimit="10"/>
<path d="M1.16211 102.805L1.17112 95.5098" stroke="white" stroke-width="0.75" stroke-miterlimit="10"/>
<path d="M1.14258 124.71L1.15158 117.406" stroke="white" stroke-width="0.75" stroke-miterlimit="10"/>
<path d="M1.125 146.163L1.13401 139.3" stroke="white" stroke-width="0.75" stroke-miterlimit="10"/>
<path d="M1.09766 168.498L1.10666 161.194" stroke="white" stroke-width="0.75" stroke-miterlimit="10"/>
<path d="M1.07812 190.393L1.08713 183.089" stroke="white" stroke-width="0.75" stroke-miterlimit="10"/>
<path d="M11.1766 213.692L3.88148 214.484L1.0625 214.79V212.287L1.07151 204.982" stroke="white" stroke-width="0.75" stroke-miterlimit="10"/>
<path d="M33.0726 211.307L25.5703 212.126" stroke="white" stroke-width="0.75" stroke-miterlimit="10"/>
<path d="M54.965 208.919L47.6699 209.721" stroke="white" stroke-width="0.75" stroke-miterlimit="10"/>
<path d="M76.8686 206.541L69.5645 207.334" stroke="white" stroke-width="0.75" stroke-miterlimit="10"/>
<path d="M98.764 204.153L91.0996 204.982" stroke="white" stroke-width="0.75" stroke-miterlimit="10"/>
<path d="M134.688 200.236L120.656 201.767L113.352 202.56" stroke="white" stroke-width="0.75" stroke-miterlimit="10"/>
<path d="M11.1777 212.72L25.777 211.225" stroke="white" stroke-width="0.75" stroke-miterlimit="10"/>
<path d="M32.9609 210.243L47.5602 208.748" stroke="white" stroke-width="0.75" stroke-miterlimit="10"/>
<path d="M54.9648 208.081L69.5641 206.586" stroke="white" stroke-width="0.75" stroke-miterlimit="10"/>
<path d="M76.6602 205.73L91.2594 204.244" stroke="white" stroke-width="0.75" stroke-miterlimit="10"/>
<path d="M98.7637 203.309L113.354 201.813" stroke="white" stroke-width="0.75" stroke-miterlimit="10"/>
<path d="M2.52116 205.424L2.49414 190.744" stroke="white" stroke-width="0.75" stroke-miterlimit="10"/>
<path d="M2.22624 183.495L2.19922 168.823" stroke="white" stroke-width="0.75" stroke-miterlimit="10"/>
<path d="M2.2704 161.384L2.23438 146.713" stroke="white" stroke-width="0.75" stroke-miterlimit="10"/>
<path d="M2.09853 139.561L2.0625 124.89" stroke="white" stroke-width="0.75" stroke-miterlimit="10"/>
<path d="M1.88249 117.334L1.85547 102.663" stroke="white" stroke-width="0.75" stroke-miterlimit="10"/>
<path d="M2.00868 95.7182L1.97266 81.0469" stroke="white" stroke-width="0.75" stroke-miterlimit="10"/>
<path d="M1.79069 73.4896L1.76367 58.8184" stroke="white" stroke-width="0.75" stroke-miterlimit="10"/>
<path d="M11.9238 53.1276L40.3568 58.0811L40.8431 56.2889L12.0769 51.7227" stroke="white" stroke-width="0.75" stroke-miterlimit="10"/>
<path d="M135.166 181.567V102.807" stroke="white" stroke-width="0.75" stroke-miterlimit="10"/>
<path d="M383.805 70.213L503.886 49.3994V213.242L383.508 199.931" stroke="white" stroke-width="0.75" stroke-miterlimit="10"/>
<path d="M190.985 152.548C199.963 152.548 207.241 145.27 207.241 136.292C207.241 127.313 199.963 120.035 190.985 120.035C182.007 120.035 174.729 127.313 174.729 136.292C174.729 145.27 182.007 152.548 190.985 152.548Z" stroke="white" stroke-width="0.75" stroke-miterlimit="10"/>
<path d="M199.121 122.225C189.169 105.527 135.248 74.1494 135.248 74.1494" stroke="white" stroke-width="0.75" stroke-miterlimit="10"/>
<path d="M178.226 146.343C178.226 146.343 166.211 124.935 135.266 130.69" stroke="white" stroke-width="0.75" stroke-miterlimit="10"/>
<path d="M398.169 69.9785L383.768 110.102L354.533 184.998" stroke="white" stroke-width="0.75" stroke-miterlimit="10"/>
<path d="M452.711 124.646H416.344V161.014H452.711V124.646Z" stroke="white" stroke-width="0.75" stroke-miterlimit="10"/>
<path d="M354.533 184.998C354.533 184.998 373.609 183.791 381.57 198.498" stroke="white" stroke-width="0.75" stroke-miterlimit="10"/>
<path d="M107.254 171.462L34.4199 179.586" stroke="white" stroke-width="0.75" stroke-miterlimit="10"/>
<path d="M34.4199 80.5703L107.254 88.703" stroke="white" stroke-width="0.75" stroke-miterlimit="10"/>
<path d="M107.256 171.462V88.7031" stroke="white" stroke-width="0.75" stroke-miterlimit="10"/>
<path d="M34.4199 179.586V80.5703" stroke="white" stroke-width="0.75" stroke-miterlimit="10"/>
<path d="M45.447 102.833C49.4661 102.833 52.7241 99.5754 52.7241 95.5564C52.7241 91.5374 49.4661 88.2793 45.447 88.2793C41.428 88.2793 38.1699 91.5374 38.1699 95.5564C38.1699 99.5754 41.428 102.833 45.447 102.833Z" stroke="white" stroke-width="0.75" stroke-miterlimit="10"/>
<path d="M104.85 89.2334H89.4043V103.779H104.85V89.2334Z" stroke="white" stroke-width="0.75" stroke-miterlimit="10"/>
<path d="M34.4223 129.465L4.08008 129.168" stroke="white" stroke-width="0.75" stroke-miterlimit="10"/>
<path d="M386.029 103.796L398.17 95.8161L418.884 85.2697L427.26 81.0007L428.233 64.8164" stroke="white" stroke-width="0.75" stroke-miterlimit="10"/>
<path d="M489.617 182.513C491.791 182.513 493.553 180.751 493.553 178.577C493.553 176.404 491.791 174.642 489.617 174.642C487.444 174.642 485.682 176.404 485.682 178.577C485.682 180.751 487.444 182.513 489.617 182.513Z" stroke="white" stroke-width="0.75" stroke-miterlimit="10"/>
<path d="M432.772 196.489C434.945 196.489 436.707 194.727 436.707 192.553C436.707 190.379 434.945 188.617 432.772 188.617C430.598 188.617 428.836 190.379 428.836 192.553C428.836 194.727 430.598 196.489 432.772 196.489Z" stroke="white" stroke-width="0.75" stroke-miterlimit="10"/>
<path d="M458.268 200.372C460.441 200.372 462.204 198.609 462.204 196.436C462.204 194.262 460.441 192.5 458.268 192.5C456.094 192.5 454.332 194.262 454.332 196.436C454.332 198.609 456.094 200.372 458.268 200.372Z" stroke="white" stroke-width="0.75" stroke-miterlimit="10"/>
<path d="M489.62 207.072C493.629 207.072 496.879 203.822 496.879 199.813C496.879 195.804 493.629 192.554 489.62 192.554C485.611 192.554 482.361 195.804 482.361 199.813C482.361 203.822 485.611 207.072 489.62 207.072Z" stroke="white" stroke-width="0.75" stroke-miterlimit="10"/>
<path d="M396.385 183.725L393.354 181.57L384.926 193.425L387.958 195.58L396.385 183.725Z" stroke="white" stroke-width="0.75" stroke-miterlimit="10"/>
<path d="M389.317 126.151L378.936 151.982L385.22 154.508L395.601 128.677L389.317 126.151Z" stroke="white" stroke-width="0.75" stroke-miterlimit="10"/>
<path d="M369.878 167.447L364.361 177.001L373.916 182.517L379.432 172.963L369.878 167.447Z" stroke="white" stroke-width="0.75" stroke-miterlimit="10"/>
<path d="M491.292 171.19L491.247 171.55C491.148 172.36 490.41 172.946 489.599 172.847L489.239 172.802C488.429 172.703 487.844 171.964 487.943 171.154L487.988 170.794C488.087 169.983 488.825 169.398 489.635 169.497L489.995 169.542C490.806 169.641 491.391 170.38 491.292 171.19Z" stroke="white" stroke-width="0.75" stroke-miterlimit="10"/>
<path d="M428.942 185.015L428.897 185.375C428.798 186.186 428.06 186.771 427.25 186.672L426.89 186.627C426.079 186.528 425.494 185.789 425.593 184.979L425.638 184.619C425.737 183.809 426.475 183.223 427.286 183.322L427.646 183.367C428.456 183.467 429.041 184.205 428.942 185.015Z" stroke="white" stroke-width="0.75" stroke-miterlimit="10"/>
<path d="M464.222 191.761L464.177 192.121C464.078 192.932 463.339 193.517 462.529 193.418L462.169 193.373C461.358 193.274 460.773 192.536 460.872 191.725L460.917 191.365C461.016 190.555 461.755 189.97 462.565 190.069L462.925 190.114C463.735 190.204 464.321 190.942 464.222 191.761Z" stroke="white" stroke-width="0.75" stroke-miterlimit="10"/>
<path d="M393.306 149.872L393.027 150.097C392.388 150.61 391.452 150.502 390.938 149.863L390.713 149.584C390.2 148.945 390.308 148.008 390.947 147.495L391.227 147.27C391.866 146.757 392.802 146.865 393.315 147.504L393.54 147.783C394.045 148.431 393.946 149.359 393.306 149.872Z" stroke="white" stroke-width="0.75" stroke-miterlimit="10"/>
<path d="M379.092 144.55L378.812 144.775C378.173 145.288 377.237 145.18 376.724 144.541L376.498 144.262C375.985 143.622 376.093 142.686 376.733 142.173L377.012 141.948C377.651 141.434 378.587 141.542 379.101 142.182L379.326 142.461C379.83 143.109 379.731 144.037 379.092 144.55Z" stroke="white" stroke-width="0.75" stroke-miterlimit="10"/>
<path d="M382.642 136.562L382.363 136.788C381.724 137.301 380.788 137.193 380.274 136.553L380.049 136.274C379.536 135.635 379.644 134.699 380.283 134.185L380.562 133.96C381.202 133.447 382.138 133.555 382.651 134.194L382.876 134.474C383.381 135.113 383.282 136.049 382.642 136.562Z" stroke="white" stroke-width="0.75" stroke-miterlimit="10"/>
<path d="M399.365 134.175L399.086 134.4C398.447 134.913 397.51 134.805 396.997 134.166L396.772 133.887C396.259 133.247 396.367 132.311 397.006 131.798L397.285 131.573C397.924 131.059 398.861 131.168 399.374 131.807L399.599 132.086C400.112 132.734 400.004 133.671 399.365 134.175Z" stroke="white" stroke-width="0.75" stroke-miterlimit="10"/>
<path d="M396.24 141.218L395.961 141.443C395.322 141.956 394.385 141.848 393.872 141.209L393.647 140.93C393.134 140.29 393.242 139.354 393.881 138.841L394.16 138.616C394.799 138.102 395.736 138.21 396.249 138.85L396.474 139.129C396.978 139.777 396.879 140.705 396.24 141.218Z" stroke="white" stroke-width="0.75" stroke-miterlimit="10"/>
<path d="M386.361 128.879L386.082 129.104C385.443 129.617 384.506 129.509 383.993 128.87L383.768 128.591C383.255 127.951 383.363 127.015 384.002 126.502L384.281 126.277C384.92 125.764 385.857 125.872 386.37 126.511L386.595 126.79C387.099 127.429 387 128.366 386.361 128.879Z" stroke="white" stroke-width="0.75" stroke-miterlimit="10"/>
<path d="M453.945 122.755H456.025V164.778H455.341H416.875V162.563H453.828L453.945 122.755Z" stroke="white" stroke-width="0.75" stroke-miterlimit="10"/>
<path d="M19.9826 129.194V95.9427L3.86133 95.7266" stroke="white" stroke-width="0.75" stroke-miterlimit="10"/>
<path d="M416.344 124.646L418.884 85.2705" stroke="white" stroke-width="0.75" stroke-miterlimit="10"/>
<path d="M485.685 84.2987C490.346 84.2987 494.124 80.5205 494.124 75.8598C494.124 71.1991 490.346 67.4209 485.685 67.4209C481.024 67.4209 477.246 71.1991 477.246 75.8598C477.246 80.5205 481.024 84.2987 485.685 84.2987Z" stroke="white" stroke-width="0.75" stroke-miterlimit="10"/>
<path d="M383.805 70.213L503.886 49.3994V213.242L383.508 199.931" stroke="white" stroke-width="0.75" stroke-miterlimit="10"/>
</svg>
