<svg width="141" height="139" viewBox="0 0 141 139" fill="none" xmlns="http://www.w3.org/2000/svg">
<path d="M75.8238 5.80535C41.3084 13.1727 19.1941 46.3346 26.4328 79.8744C32.2229 106.706 59.302 123.682 86.9162 117.788C109.007 113.073 123.16 91.8499 118.526 70.3825C114.82 53.2088 97.4909 42.3465 79.8177 46.1186C65.6794 49.1366 56.6229 62.7189 59.5882 76.4575C61.9601 87.4487 73.0521 94.4006 84.3614 91.9879C93.4095 90.0572 99.2057 81.3636 97.3087 72.5713C95.7894 65.5373 88.6926 61.0879 81.4526 62.6327C75.6624 63.8692 71.9526 69.4326 73.1659 75.0605C74.1372 79.5634 78.6798 82.4102 83.3137 81.4217" stroke="#CFD2D8" stroke-width="9" stroke-miterlimit="10"/>
</svg>
