<svg width="505" height="268" viewBox="0 0 505 268" fill="none" xmlns="http://www.w3.org/2000/svg">
<path d="M341.435 128.056L335.396 132.141L339.476 138.187L345.514 134.102L341.435 128.056Z" stroke="white" stroke-width="0.75" stroke-miterlimit="10"/>
<path d="M349.605 140.152L343.566 144.237L347.646 150.284L353.684 146.199L349.605 140.152Z" stroke="white" stroke-width="0.75" stroke-miterlimit="10"/>
<path d="M357.759 152.25L351.721 156.335L355.8 162.381L361.839 158.296L357.759 152.25Z" stroke="white" stroke-width="0.75" stroke-miterlimit="10"/>
<path d="M342.512 136.159L346.594 142.206" stroke="white" stroke-width="0.75" stroke-miterlimit="10"/>
<path d="M350.307 148.498L354.389 154.545" stroke="white" stroke-width="0.75" stroke-miterlimit="10"/>
<path d="M369.015 154.065L359.496 183.263" stroke="white" stroke-width="0.75" stroke-miterlimit="10"/>
<path d="M378.534 124.878L373.867 139.18" stroke="white" stroke-width="0.75" stroke-miterlimit="10"/>
<path d="M397.721 70.0225L383.297 110.276" stroke="white" stroke-width="0.75" stroke-miterlimit="10"/>
<path d="M342.512 168.671C342.512 168.671 353.545 178.752 363.108 169.132" stroke="white" stroke-width="0.75" stroke-miterlimit="10"/>
<path d="M452.394 124.878H415.947V161.372H452.394V124.878Z" stroke="white" stroke-miterlimit="10"/>
<path d="M104.932 170.276L33.0664 178.301" stroke="white" stroke-width="0.75" stroke-miterlimit="10"/>
<path d="M33.0664 80.4756L104.932 88.5086" stroke="white" stroke-width="0.75" stroke-miterlimit="10"/>
<path d="M42.77 124.011C46.7312 124.011 49.9424 120.796 49.9424 116.829C49.9424 112.863 46.7312 109.647 42.77 109.647C38.8088 109.647 35.5977 112.863 35.5977 116.829C35.5977 120.796 38.8088 124.011 42.77 124.011Z" stroke="white" stroke-width="0.75" stroke-miterlimit="10"/>
<path d="M49.9454 148.679H35.5918V163.051H49.9454V148.679Z" stroke="white" stroke-width="0.75" stroke-miterlimit="10"/>
<path d="M68.2196 131.647H52.9805V138.829H68.2196V131.647Z" stroke="white" stroke-width="0.75" stroke-miterlimit="10"/>
<path d="M91.0184 159.948H75.7793V167.13H91.0184V159.948Z" stroke="white" stroke-width="0.75" stroke-miterlimit="10"/>
<path d="M98.1942 131.203H82.9551V145.576H98.1942V131.203Z" stroke="white" stroke-width="0.75" stroke-miterlimit="10"/>
<path d="M44.4062 148.676V124.019" stroke="white" stroke-width="0.75" stroke-miterlimit="10"/>
<path d="M40.3262 123.597V148.68" stroke="white" stroke-width="0.75" stroke-miterlimit="10"/>
<path d="M53.7616 138.835L53.4605 166.507L44.4375 168.006V163.041" stroke="white" stroke-width="0.75" stroke-miterlimit="10"/>
<path d="M40.3438 163.041V174.31L57.1413 171.109V138.835" stroke="white" stroke-width="0.75" stroke-miterlimit="10"/>
<path d="M68.2194 133.366H76.2241V155.861H70.5128V163.042H75.7814V167.13H66.8203V152.757H72.2749V136.939L68.2194 136.798" stroke="white" stroke-width="0.75" stroke-miterlimit="10"/>
<path d="M91.0195 163.041H93.9239V145.574H98.1919L97.7491 167.129H91.0195" stroke="white" stroke-width="0.75" stroke-miterlimit="10"/>
<path d="M85.3086 115.972V131.204" stroke="white" stroke-width="0.75" stroke-miterlimit="10"/>
<path d="M90.5781 131.2V120.108" stroke="white" stroke-width="0.75" stroke-miterlimit="10"/>
<path d="M91.9445 120.111C96.028 120.111 99.3383 116.796 99.3383 112.707C99.3383 108.618 96.028 105.304 91.9445 105.304C87.8611 105.304 84.5508 108.618 84.5508 112.707C84.5508 116.796 87.8611 120.111 91.9445 120.111Z" stroke="white" stroke-width="0.75" stroke-miterlimit="10"/>
<path d="M47.5231 82.1006L44.4062 90.9228L94.604 97.3953L91.9387 105.295" stroke="white" stroke-width="0.75" stroke-miterlimit="10"/>
<path d="M96.3335 106.751L101.815 102.469V93.5134L52.9805 88.096L53.8837 82.8115" stroke="white" stroke-width="0.75" stroke-miterlimit="10"/>
<path d="M54.7003 104.206C55.7957 104.206 56.6837 103.316 56.6837 102.22C56.6837 101.123 55.7957 100.233 54.7003 100.233C53.6048 100.233 52.7168 101.123 52.7168 102.22C52.7168 103.316 53.6048 104.206 54.7003 104.206Z" stroke="white" stroke-width="0.75" stroke-miterlimit="10"/>
<path d="M82.9561 104.452C84.0516 104.452 84.9396 103.562 84.9396 102.466C84.9396 101.369 84.0516 100.479 82.9561 100.479C81.8607 100.479 80.9727 101.369 80.9727 102.466C80.9727 103.562 81.8607 104.452 82.9561 104.452Z" stroke="white" stroke-width="0.75" stroke-miterlimit="10"/>
<path d="M69.1925 118.814C70.2879 118.814 71.1759 117.925 71.1759 116.828C71.1759 115.731 70.2879 114.842 69.1925 114.842C68.097 114.842 67.209 115.731 67.209 116.828C67.209 117.925 68.097 118.814 69.1925 118.814Z" stroke="white" stroke-width="0.75" stroke-miterlimit="10"/>
<path d="M103.142 92.065C104.237 92.065 105.125 91.1757 105.125 90.0789C105.125 88.982 104.237 88.0928 103.142 88.0928C102.046 88.0928 101.158 88.982 101.158 90.0789C101.158 91.1757 102.046 92.065 103.142 92.065Z" stroke="white" stroke-width="0.75" stroke-miterlimit="10"/>
<path d="M383.302 200.108C381.54 202.963 379.663 205.756 377.679 208.469C351.974 243.696 308.444 266.846 259.069 266.846C206.189 266.846 160.02 240.282 135.262 200.791" stroke="white" stroke-width="0.75" stroke-miterlimit="10"/>
<path d="M383.757 198.525L501.119 211.895V52.2451L383.146 72.5228" stroke="white" stroke-width="0.75" stroke-miterlimit="10"/>
<path d="M135.338 74.3119C159.219 32.6039 204.697 3.26465 259.243 3.26465C313.771 3.26465 359.266 30.8394 383.148 72.5208" stroke="white" stroke-width="0.75" stroke-miterlimit="10"/>
<path d="M237.369 264.126C194.033 258.07 157.135 233.856 135.99 200.128" stroke="white" stroke-width="0.75" stroke-miterlimit="10"/>
<path d="M381.854 199.452C380.1 202.281 378.241 205.047 376.275 207.742C354.776 237.197 320.703 258.139 281.184 263.965" stroke="white" stroke-width="0.75" stroke-miterlimit="10"/>
<path d="M184.665 143.79C192.607 143.79 199.046 137.343 199.046 129.39C199.046 121.438 192.607 114.991 184.665 114.991C176.723 114.991 170.285 121.438 170.285 129.39C170.285 137.343 176.723 143.79 184.665 143.79Z" stroke="white" stroke-width="0.75" stroke-miterlimit="10"/>
<path d="M345.133 187.51C345.133 187.51 369.413 178.244 381.083 199.001" stroke="white" stroke-width="0.75" stroke-miterlimit="10"/>
<path d="M310.459 129.132C317.596 133.911 323.865 139.568 329.036 145.898" stroke="white" stroke-width="0.75" stroke-miterlimit="10"/>
<path d="M295.174 120.835C288.489 117.944 281.325 115.727 273.816 114.291" stroke="white" stroke-width="0.75" stroke-miterlimit="10"/>
<path d="M230.057 114.85C237.061 113.316 244.401 112.456 251.954 112.358" stroke="white" stroke-width="0.75" stroke-miterlimit="10"/>
<path d="M199.049 127.272C203.556 124.488 208.373 122.049 213.456 119.983" stroke="white" stroke-width="0.75" stroke-miterlimit="10"/>
<path d="M371.13 200.304C375.561 200.304 379.152 197.104 379.152 193.157C379.152 189.21 375.561 186.011 371.13 186.011C366.699 186.011 363.107 189.21 363.107 193.157C363.107 197.104 366.699 200.304 371.13 200.304Z" stroke="white" stroke-width="0.75" stroke-miterlimit="10"/>
<path d="M11.4236 213.861L4.13613 214.659L1.32031 214.961V212.451L1.32917 205.154" stroke="white" stroke-width="0.75" stroke-miterlimit="10"/>
<path d="M33.2871 211.475L25.7871 212.29" stroke="white" stroke-width="0.75" stroke-miterlimit="10"/>
<path d="M55.1547 209.093L47.8672 209.891" stroke="white" stroke-width="0.75" stroke-miterlimit="10"/>
<path d="M77.0219 206.707L69.7344 207.505" stroke="white" stroke-width="0.75" stroke-miterlimit="10"/>
<path d="M98.8899 204.319L91.2305 205.153" stroke="white" stroke-width="0.75" stroke-miterlimit="10"/>
<path d="M134.769 200.409L120.752 201.934L113.465 202.732" stroke="white" stroke-width="0.75" stroke-miterlimit="10"/>
<path d="M11.4219 212.887L25.9968 211.397" stroke="white" stroke-width="0.4" stroke-miterlimit="10"/>
<path d="M33.1797 210.415L47.7635 208.917" stroke="white" stroke-width="0.4" stroke-miterlimit="10"/>
<path d="M55.1582 208.247L69.7332 206.749" stroke="white" stroke-width="0.4" stroke-miterlimit="10"/>
<path d="M76.8262 205.899L91.4011 204.409" stroke="white" stroke-width="0.2216" stroke-miterlimit="10"/>
<path d="M98.8906 203.478L113.466 201.979" stroke="white" stroke-width="0.4" stroke-miterlimit="10"/>
<path d="M33.1815 80.6514L33.0664 178.298" stroke="white" stroke-width="0.5" stroke-miterlimit="10"/>
<path d="M104.934 170.274V88.5068" stroke="white" stroke-width="0.5" stroke-miterlimit="10"/>
<path d="M284.4 67.9981C281.62 66.7834 280.46 63.2811 281.814 60.1778C283.169 57.0746 286.516 55.5495 289.305 56.7642" stroke="white" stroke-width="0.4431" stroke-miterlimit="10"/>
<path d="M289.455 56.5616C286.674 55.3469 285.514 51.8446 286.869 48.7413C288.224 45.638 291.571 44.113 294.36 45.3277" stroke="white" stroke-width="0.4431" stroke-miterlimit="10"/>
<path d="M299.286 33.776C296.506 32.5612 293.15 34.0863 291.795 37.1896C290.44 40.2928 291.6 43.7951 294.38 45.0098" stroke="white" stroke-width="0.4431" stroke-miterlimit="10"/>
<path d="M33.0635 88.814L4.11719 88.5303" stroke="white" stroke-width="0.75" stroke-miterlimit="10"/>
<path d="M33.0635 125.206L4.11719 124.913" stroke="white" stroke-width="0.75" stroke-miterlimit="10"/>
<path d="M212.7 60.7912L198.125 60.2061V82.0974H212.7V60.7912Z" stroke="white" stroke-width="0.75" stroke-miterlimit="10"/>
<path d="M179.061 81.479L171.773 81.0889V95.6831H179.061V81.479Z" stroke="white" stroke-width="0.75" stroke-miterlimit="10"/>
<path d="M236.9 24.6402L232.853 14.8428L214.09 23.7891L218.641 33.3471L236.9 24.6402Z" stroke="white" stroke-width="0.75" stroke-miterlimit="10"/>
<path d="M269.575 39.7686L272.382 33.0212L258.657 28.1357L256.213 35.0161L269.575 39.7686Z" stroke="white" stroke-width="0.75" stroke-miterlimit="10"/>
<path d="M270.61 13.3168L270.955 6.00195L250.562 6.54281L250.757 13.8399L270.61 13.3168Z" stroke="white" stroke-width="0.75" stroke-miterlimit="10"/>
<path d="M302.26 103.836L306.661 93.5238L282.027 84.7637L278.281 95.3059L302.26 103.836Z" stroke="white" stroke-width="0.75" stroke-miterlimit="10"/>
<path d="M393.179 71.1746C393.25 71.6711 393.286 72.1765 393.286 72.6996C393.286 78.4628 388.619 83.1355 382.863 83.1355C377.108 83.1355 372.441 78.4628 372.441 72.6996C372.441 69.0998 374.265 65.9167 377.037 64.0459" stroke="white" stroke-width="0.75" stroke-miterlimit="10"/>
<path d="M322.393 121.004C327.435 121.004 331.522 116.912 331.522 111.863C331.522 106.814 327.435 102.722 322.393 102.722C317.351 102.722 313.264 106.814 313.264 111.863C313.264 116.912 317.351 121.004 322.393 121.004Z" stroke="white" stroke-width="0.75" stroke-miterlimit="10"/>
<path d="M353.989 81.0889L342.814 95.958L350.084 100.081L361.277 86.2758L353.989 81.0889Z" stroke="white" stroke-width="0.75" stroke-miterlimit="10"/>
<path d="M295.678 15.4014H288.391V22.6985H295.678V15.4014Z" stroke="white" stroke-width="0.75" stroke-miterlimit="10"/>
<path d="M120.752 69.3289L134.769 71.6874L135.079 71.1732C164.849 26.0161 208.211 0.799805 259.135 0.799805C313.946 0.799805 359.539 28.082 383.553 69.9851" stroke="white" stroke-width="0.75" stroke-miterlimit="10"/>
<path d="M97.6152 65.4297L105.709 66.7951" stroke="white" stroke-width="0.75" stroke-miterlimit="10"/>
<path d="M75.2305 61.6582L83.855 63.1123" stroke="white" stroke-width="0.75" stroke-miterlimit="10"/>
<path d="M54.1582 58.1133L62.1983 59.461" stroke="white" stroke-width="0.75" stroke-miterlimit="10"/>
<path d="M34.0312 54.7256L41.1505 55.9226" stroke="white" stroke-width="0.75" stroke-miterlimit="10"/>
<path d="M1.46094 59.8239L1.46979 51.8884V49.2373L12.3346 51.0727L20.1711 52.3938" stroke="white" stroke-width="0.75" stroke-miterlimit="10"/>
<path d="M135.25 181.73V102.977L135.347 80.6515L135.338 74.312L40.6097 58.7779L12.0088 54.0963L4.11914 52.793V212.452L135.329 198.54L135.25 181.73Z" stroke="white" stroke-width="0.75" stroke-miterlimit="10"/>
<path d="M173.37 138.304C173.37 138.304 162.736 119.329 135.348 124.428" stroke="white" stroke-width="0.75" stroke-miterlimit="10"/>
<path d="M340.527 165.387C343.263 172.374 344.857 179.804 345.096 187.509L332.779 190.559C306.25 80.827 196.238 137.936 196.238 137.936" stroke="white" stroke-width="0.75" stroke-miterlimit="10"/>
<path d="M329.043 145.909C329.043 145.909 337.092 153.428 340.537 165.389" stroke="white" stroke-width="0.75" stroke-miterlimit="10"/>
<path d="M385.346 109.589L392.793 112.222L398.362 98.6742L390.65 95.9521L385.346 109.589Z" stroke="white" stroke-width="0.4431" stroke-miterlimit="10"/>
<path d="M434.171 81.0858H426.883L426.281 65.1084" stroke="white" stroke-miterlimit="10"/>
<path d="M501.121 81.0889H441.457" stroke="white" stroke-miterlimit="10"/>
<path d="M391.852 88.386L397.722 95.958L426.881 81.0889" stroke="white" stroke-miterlimit="10"/>
<path d="M429.238 88.3818V95.9538H484.094H499.767V88.3818H429.238Z" stroke="white" stroke-miterlimit="10"/>
<path d="M477.893 73.792H463.318V81.0891H477.893V73.792Z" stroke="white" stroke-miterlimit="10"/>
<path d="M492.469 73.792H477.895V80.7611H492.469V73.792Z" stroke="white" stroke-miterlimit="10"/>
<path d="M500.839 73.792H492.48V80.7611H500.839V73.792Z" stroke="white" stroke-miterlimit="10"/>
<path d="M492.479 53.7217V66.4894H501.121" stroke="white" stroke-miterlimit="10"/>
<path d="M485.189 54.9795V63.1367L492.477 61.585" stroke="white" stroke-miterlimit="10"/>
<path d="M477.892 56.2344V63.1414L456.029 66.4929L455.365 60.109" stroke="white" stroke-miterlimit="10"/>
<path d="M466.969 80.298V76.9287H474.362V80.298" stroke="white" stroke-miterlimit="10"/>
<path d="M496.658 79.7483C498.022 79.7483 499.128 78.6407 499.128 77.2745C499.128 75.9083 498.022 74.8008 496.658 74.8008C495.294 74.8008 494.188 75.9083 494.188 77.2745C494.188 78.6407 495.294 79.7483 496.658 79.7483Z" stroke="white" stroke-miterlimit="10"/>
<path d="M459.974 138.277C462.15 138.277 463.914 136.51 463.914 134.331C463.914 132.152 462.15 130.386 459.974 130.386C457.797 130.386 456.033 132.152 456.033 134.331C456.033 136.51 457.797 138.277 459.974 138.277Z" stroke="white" stroke-miterlimit="10"/>
<path d="M459.974 156.212C462.15 156.212 463.914 154.445 463.914 152.266C463.914 150.087 462.15 148.32 459.974 148.32C457.797 148.32 456.033 150.087 456.033 152.266C456.033 154.445 457.797 156.212 459.974 156.212Z" stroke="white" stroke-miterlimit="10"/>
<path d="M457.952 172.616C460.128 172.616 461.893 170.849 461.893 168.67C461.893 166.491 460.128 164.725 457.952 164.725C455.776 164.725 454.012 166.491 454.012 168.67C454.012 170.849 455.776 172.616 457.952 172.616Z" stroke="white" stroke-miterlimit="10"/>
<path d="M489.376 207.603C493.396 207.603 496.655 204.34 496.655 200.315C496.655 196.289 493.396 193.026 489.376 193.026C485.356 193.026 482.098 196.289 482.098 200.315C482.098 204.34 485.356 207.603 489.376 207.603Z" stroke="white" stroke-miterlimit="10"/>
<path d="M438.106 173.281C440.283 173.281 442.047 171.514 442.047 169.335C442.047 167.156 440.283 165.39 438.106 165.39C435.93 165.39 434.166 167.156 434.166 169.335C434.166 171.514 435.93 173.281 438.106 173.281Z" stroke="white" stroke-miterlimit="10"/>
<path d="M415.948 173.281C418.124 173.281 419.889 171.514 419.889 169.335C419.889 167.156 418.124 165.39 415.948 165.39C413.772 165.39 412.008 167.156 412.008 169.335C412.008 171.514 413.772 173.281 415.948 173.281Z" stroke="white" stroke-miterlimit="10"/>
<path d="M444.895 189.83L436.129 188.644L434.176 203.106L442.942 204.293L444.895 189.83Z" stroke="white" stroke-miterlimit="10"/>
<path d="M424.485 187.073L415.719 185.886L413.766 200.349L422.532 201.536L424.485 187.073Z" stroke="white" stroke-miterlimit="10"/>
<path d="M468.698 192.435L459.932 191.248L457.979 205.711L466.745 206.898L468.698 192.435Z" stroke="white" stroke-miterlimit="10"/>
<path d="M498.98 168.678H481.625V177.89H498.98V168.678Z" stroke="white" stroke-miterlimit="10"/>
<path d="M498.98 145.769H481.625V154.981H498.98V145.769Z" stroke="white" stroke-miterlimit="10"/>
<path d="M498.98 121.163H481.625V130.375H498.98V121.163Z" stroke="white" stroke-miterlimit="10"/>
<path d="M486.594 132.069H483.256V135.412H486.594V132.069Z" stroke="white" stroke-miterlimit="10"/>
<path d="M496.047 132.069H492.709V135.412H496.047V132.069Z" stroke="white" stroke-miterlimit="10"/>
<path d="M486.596 116.276H483.258V119.619H486.596V116.276Z" stroke="white" stroke-miterlimit="10"/>
<path d="M496.045 116.276H492.707V119.619H496.045V116.276Z" stroke="white" stroke-miterlimit="10"/>
<path d="M487.244 156.604H483.906V159.947H487.244V156.604Z" stroke="white" stroke-miterlimit="10"/>
<path d="M496.7 156.604H493.361V159.947H496.7V156.604Z" stroke="white" stroke-miterlimit="10"/>
<path d="M487.244 140.812H483.906V144.154H487.244V140.812Z" stroke="white" stroke-miterlimit="10"/>
<path d="M496.7 140.812H493.361V144.154H496.7V140.812Z" stroke="white" stroke-miterlimit="10"/>
<path d="M487.244 179.515H483.906V182.857H487.244V179.515Z" stroke="white" stroke-miterlimit="10"/>
<path d="M496.7 179.515H493.361V182.857H496.7V179.515Z" stroke="white" stroke-miterlimit="10"/>
<path d="M487.244 163.722H483.906V167.064H487.244V163.722Z" stroke="white" stroke-miterlimit="10"/>
<path d="M496.7 163.722H493.361V167.064H496.7V163.722Z" stroke="white" stroke-miterlimit="10"/>
<path d="M468.857 202.855L468.465 206.175L471.78 206.567L472.172 203.248L468.857 202.855Z" stroke="white" stroke-miterlimit="10"/>
<path d="M470.204 193.668L469.812 196.987L473.128 197.38L473.52 194.06L470.204 193.668Z" stroke="white" stroke-miterlimit="10"/>
<path d="M486.544 190.719L486.535 190.79C486.429 191.685 485.614 192.333 484.72 192.226L484.649 192.217C483.755 192.111 483.108 191.295 483.215 190.4L483.223 190.329C483.33 189.433 484.144 188.786 485.039 188.892L485.11 188.901C486.004 189.008 486.65 189.823 486.544 190.719Z" stroke="white" stroke-miterlimit="10"/>
<path d="M463.556 163.2L463.547 163.271C463.441 164.167 462.626 164.814 461.732 164.708L461.661 164.699C460.766 164.592 460.12 163.777 460.226 162.881L460.235 162.81C460.341 161.915 461.156 161.267 462.05 161.374L462.121 161.383C463.024 161.489 463.662 162.305 463.556 163.2Z" stroke="white" stroke-miterlimit="10"/>
<path d="M464.983 173.899L464.975 173.97C464.868 174.866 464.054 175.513 463.159 175.407L463.089 175.398C462.194 175.291 461.548 174.476 461.654 173.58L461.663 173.509C461.769 172.614 462.584 171.967 463.478 172.073L463.549 172.082C464.443 172.188 465.09 173.004 464.983 173.899Z" stroke="white" stroke-miterlimit="10"/>
<path d="M468.602 152.559L468.594 152.63C468.487 153.525 467.673 154.172 466.778 154.066L466.708 154.057C465.813 153.951 465.167 153.135 465.273 152.239L465.282 152.169C465.388 151.273 466.203 150.626 467.097 150.732L467.168 150.741C468.071 150.847 468.709 151.663 468.602 152.559Z" stroke="white" stroke-miterlimit="10"/>
<path d="M468.122 133.899L468.113 133.97C468.007 134.866 467.192 135.513 466.298 135.407L466.227 135.398C465.333 135.291 464.686 134.476 464.793 133.58L464.802 133.509C464.908 132.614 465.722 131.967 466.617 132.073L466.688 132.082C467.591 132.188 468.228 133.004 468.122 133.899Z" stroke="white" stroke-miterlimit="10"/>
<path d="M453.612 172.243L453.604 172.314C453.497 173.21 452.683 173.857 451.788 173.751L451.717 173.742C450.823 173.635 450.177 172.82 450.283 171.924L450.292 171.853C450.398 170.958 451.213 170.31 452.107 170.417L452.178 170.426C453.072 170.532 453.719 171.348 453.612 172.243Z" stroke="white" stroke-miterlimit="10"/>
<path d="M479.556 197.388L479.547 197.459C479.441 198.354 478.626 199.001 477.732 198.895L477.661 198.886C476.766 198.78 476.12 197.964 476.226 197.069L476.235 196.998C476.341 196.102 477.156 195.455 478.05 195.561L478.121 195.57C479.024 195.677 479.662 196.483 479.556 197.388Z" stroke="white" stroke-miterlimit="10"/>
<path d="M482.517 206.989L482.508 207.06C482.402 207.956 481.587 208.603 480.693 208.497L480.622 208.488C479.727 208.381 479.081 207.566 479.187 206.67L479.196 206.599C479.302 205.704 480.117 205.056 481.011 205.163L481.082 205.172C481.985 205.278 482.623 206.094 482.517 206.989Z" stroke="white" stroke-miterlimit="10"/>
<path d="M499.333 208.294L499.324 208.365C499.218 209.26 498.403 209.908 497.509 209.801L497.438 209.792C496.544 209.686 495.897 208.87 496.004 207.975L496.012 207.904C496.119 207.008 496.933 206.361 497.828 206.468L497.899 206.476C498.802 206.583 499.439 207.398 499.333 208.294Z" stroke="white" stroke-miterlimit="10"/>
<path d="M497.665 191.2L497.656 191.271C497.55 192.167 496.735 192.814 495.841 192.708L495.77 192.699C494.876 192.592 494.229 191.777 494.336 190.881L494.345 190.81C494.451 189.915 495.265 189.267 496.16 189.374L496.231 189.383C497.125 189.489 497.771 190.296 497.665 191.2Z" stroke="white" stroke-miterlimit="10"/>
<path d="M453.195 201.004L452.803 204.323L456.118 204.716L456.51 201.396L453.195 201.004Z" stroke="white" stroke-miterlimit="10"/>
<path d="M454.314 191.597L453.922 194.917L457.237 195.309L457.629 191.99L454.314 191.597Z" stroke="white" stroke-miterlimit="10"/>
<path d="M445.327 200.257L444.936 203.577L448.251 203.97L448.643 200.65L445.327 200.257Z" stroke="white" stroke-miterlimit="10"/>
<path d="M446.431 190.854L446.039 194.174L449.354 194.566L449.746 191.247L446.431 190.854Z" stroke="white" stroke-miterlimit="10"/>
<path d="M429.665 198.397L429.273 201.717L432.589 202.109L432.981 198.79L429.665 198.397Z" stroke="white" stroke-miterlimit="10"/>
<path d="M430.773 188.996L430.381 192.315L433.696 192.708L434.088 189.388L430.773 188.996Z" stroke="white" stroke-miterlimit="10"/>
<path d="M424.654 197.574L424.262 200.894L427.577 201.286L427.969 197.966L424.654 197.574Z" stroke="white" stroke-miterlimit="10"/>
<path d="M425.757 188.171L425.365 191.49L428.681 191.883L429.072 188.563L425.757 188.171Z" stroke="white" stroke-miterlimit="10"/>
<path d="M408.992 195.722L408.6 199.042L411.915 199.434L412.307 196.115L408.992 195.722Z" stroke="white" stroke-miterlimit="10"/>
<path d="M410.095 186.324L409.703 189.644L413.018 190.036L413.41 186.716L410.095 186.324Z" stroke="white" stroke-miterlimit="10"/>
<path d="M446.024 169.909L445.979 169.962C445.351 170.609 444.315 170.627 443.668 169.997L443.615 169.953C442.969 169.323 442.951 168.286 443.58 167.639L443.624 167.586C444.253 166.938 445.289 166.921 445.935 167.55L445.988 167.594C446.635 168.224 446.652 169.261 446.024 169.909Z" stroke="white" stroke-miterlimit="10"/>
<path d="M432.635 171.045L432.591 171.099C431.962 171.746 430.926 171.764 430.28 171.134L430.227 171.09C429.58 170.46 429.562 169.423 430.191 168.776L430.235 168.722C430.864 168.075 431.9 168.057 432.546 168.687L432.6 168.731C433.246 169.361 433.264 170.398 432.635 171.045Z" stroke="white" stroke-miterlimit="10"/>
<path d="M424.162 170.388L424.1 170.423C423.321 170.884 422.32 170.627 421.86 169.847L421.824 169.785C421.364 169.005 421.621 168.003 422.4 167.542L422.462 167.506C423.241 167.045 424.242 167.302 424.702 168.083L424.738 168.145C425.198 168.925 424.941 169.927 424.162 170.388Z" stroke="white" stroke-miterlimit="10"/>
<path d="M410.949 167.949L410.887 167.985C410.108 168.446 409.107 168.189 408.647 167.409L408.611 167.346C408.151 166.566 408.408 165.564 409.187 165.103L409.249 165.068C410.028 164.607 411.029 164.864 411.489 165.644L411.525 165.706C411.985 166.486 411.728 167.488 410.949 167.949Z" stroke="white" stroke-miterlimit="10"/>
<path d="M371.23 179.653H371.026C368.299 179.653 366.059 177.419 366.059 174.679V172.791C366.059 170.06 368.29 167.816 371.026 167.816H371.23C373.957 167.816 376.197 170.051 376.197 172.791V174.679C376.197 177.41 373.966 179.653 371.23 179.653Z" stroke="white" stroke-width="0.75" stroke-miterlimit="10"/>
<path d="M247.628 90.4511C256.12 83.9492 260.806 75.7992 258.094 72.2476C255.382 68.696 246.299 71.0877 237.807 77.5896C229.314 84.0915 224.628 92.2415 227.34 95.7931C230.052 99.3447 239.135 96.953 247.628 90.4511Z" stroke="white" stroke-width="0.75" stroke-miterlimit="10"/>
<path d="M187.817 55.6659C196.309 49.164 200.995 41.0141 198.283 37.4625C195.571 33.9108 186.488 36.3025 177.996 42.8044C169.504 49.3063 164.818 57.4563 167.53 61.0079C170.242 64.5595 179.325 62.1678 187.817 55.6659Z" stroke="white" stroke-width="0.75" stroke-miterlimit="10"/>
<path d="M136.082 110.276H143.91V75.9359L136.082 74.9961" stroke="white" stroke-width="0.75" stroke-miterlimit="10"/>
<path d="M161.849 88.1631H152.48V97.5438H161.849V88.1631Z" stroke="white" stroke-width="0.75" stroke-miterlimit="10"/>
<path d="M207.493 99.1436H198.125V108.524H207.493V99.1436Z" stroke="white" stroke-width="0.75" stroke-miterlimit="10"/>
<path d="M247.392 35.6553H238.023V45.036H247.392V35.6553Z" stroke="white" stroke-width="0.75" stroke-miterlimit="10"/>
<path d="M247.617 52.9795H230.492V62.3602H247.617V52.9795Z" stroke="white" stroke-width="0.75" stroke-miterlimit="10"/>
<path d="M19.4023 53.7607L33.8356 56.2788" stroke="white" stroke-width="0.4" stroke-miterlimit="10"/>
<path d="M41.0156 57.2725L55.4578 59.7906" stroke="white" stroke-width="0.4" stroke-miterlimit="10"/>
<path d="M62.7539 61.1465L77.1961 63.6646" stroke="white" stroke-width="0.4" stroke-miterlimit="10"/>
<path d="M84.2441 64.7646L98.6863 67.2739" stroke="white" stroke-width="0.4" stroke-miterlimit="10"/>
<path d="M106.145 68.4053L120.587 70.9145" stroke="white" stroke-width="0.4" stroke-miterlimit="10"/>
<path d="M339.502 71.1495C335.482 80.5657 324.6 84.928 315.196 80.9115L302.365 75.432C292.908 71.3889 288.543 60.4122 292.652 50.9694L292.669 50.925C296.742 41.5532 307.616 37.2529 316.985 41.296L329.797 46.8198C339.183 50.863 343.522 61.7422 339.502 71.1495Z" stroke="white" stroke-width="0.75" stroke-miterlimit="10"/>
<path d="M383.554 69.9918L504.014 49.9092L504.297 214.915L383.297 200.108" stroke="white" stroke-width="0.75" stroke-miterlimit="10"/>
<path d="M227.374 69.5229C223.035 69.6116 219.006 67.3152 216.854 63.5469C214.287 59.0516 209.514 56.2764 204.343 56.2764C200.261 56.2764 196.232 57.2428 192.584 59.0959L182.161 64.3892C175.414 67.8206 167.746 69.0175 160.281 67.8117L141.332 64.7616" stroke="white" stroke-width="0.4431" stroke-miterlimit="10"/>
<path d="M141.436 64.934L162.855 68.1348C165.609 68.6313 175.234 67.5851 177.714 66.2817L194.414 58.2664C197.114 57.0428 201.258 56.3157 204.437 56.2005C206.456 56.1296 208.466 56.5906 210.29 57.4773L212.557 58.8959C212.823 59.0644 214.461 60.483 214.665 60.7224L219.03 66.326C220.394 67.9841 222.616 68.9771 224.821 69.4116L284.573 68.3476L273.053 113.62" stroke="white" stroke-width="0.4431" stroke-miterlimit="10"/>
<path d="M273.32 113.492L284.628 68.1935L293.323 68.0693" stroke="white" stroke-width="0.4431" stroke-miterlimit="10"/>
<path d="M382.699 110.097L319.68 135.934" stroke="white" stroke-width="0.4431" stroke-miterlimit="10"/>
<path d="M340.555 57.6259L346.195 52.2439L359.601 42.9873" stroke="white" stroke-width="0.4431" stroke-miterlimit="10"/>
</svg>
