<svg width="505" height="275" viewBox="0 0 505 275" fill="none" xmlns="http://www.w3.org/2000/svg">
<path d="M383.719 200.187C381.954 203.041 379.973 205.986 377.983 208.697C352.246 243.916 308.66 267.069 259.23 267.069C206.287 267.069 160.054 240.512 135.271 201.024" stroke="white" stroke-width="0.75" stroke-miterlimit="10"/>
<path d="M134.783 71.9237C164.591 26.771 208.321 1.05176 259.3 1.05176C314.178 1.05176 360.033 28.7702 384.078 70.6719" stroke="white" stroke-width="0.75" stroke-miterlimit="10"/>
<path d="M135.352 74.5538C159.261 32.8501 204.792 3.51074 259.409 3.51074C313.999 3.51074 359.629 31.1211 383.547 72.8067" stroke="white" stroke-width="0.75" stroke-miterlimit="10"/>
<path d="M237.507 264.34C194.119 258.289 157.179 234.074 136.008 200.349" stroke="white" stroke-width="0.75" stroke-miterlimit="10"/>
<path d="M383.338 72.7794L501.578 52.4814V211.317L383.401 198.161L382.168 199.682C380.412 202.51 378.557 205.275 376.584 207.967C355.062 237.424 320.94 258.361 281.371 264.188" stroke="white" stroke-width="0.75" stroke-miterlimit="10"/>
<path d="M184.735 144.022C192.688 144.022 199.135 137.575 199.135 129.622C199.135 121.67 192.688 115.223 184.735 115.223C176.783 115.223 170.336 121.67 170.336 129.622C170.336 137.575 176.783 144.022 184.735 144.022Z" stroke="white" stroke-width="0.75" stroke-miterlimit="10"/>
<path d="M345.41 187.732C345.41 187.732 370.535 177.619 381.918 200.087" stroke="white" stroke-width="0.75" stroke-miterlimit="10"/>
<path d="M310.684 129.369C317.825 134.151 324.102 139.806 329.289 146.137L339.672 163.715C340.5 165.12 341.194 166.615 341.734 168.155C343.895 174.387 345.156 180.952 345.372 187.733" stroke="white" stroke-width="0.75" stroke-miterlimit="10"/>
<path d="M295.386 121.065C288.695 118.184 281.517 115.959 273.998 114.519" stroke="white" stroke-width="0.75" stroke-miterlimit="10"/>
<path d="M230.188 115.077C237.203 113.537 244.542 112.682 252.106 112.592" stroke="white" stroke-width="0.75" stroke-miterlimit="10"/>
<path d="M199.145 127.504C203.656 124.721 208.483 122.281 213.562 120.219" stroke="white" stroke-width="0.75" stroke-miterlimit="10"/>
<path d="M360.169 202.932C364.606 202.932 368.202 199.731 368.202 195.782C368.202 191.833 364.606 188.632 360.169 188.632C355.733 188.632 352.137 191.833 352.137 195.782C352.137 199.731 355.733 202.932 360.169 202.932Z" stroke="white" stroke-width="0.75" stroke-miterlimit="10"/>
<path d="M135.36 80.8839L135.351 74.5532L40.5156 59.01L41.0469 56.1553L134.99 71.9596" stroke="white" stroke-width="0.75" stroke-miterlimit="10"/>
<path d="M1.31641 60.0539L1.32541 52.1292V49.4727L12.2038 51.3097L11.8797 54.3355L3.97298 53.0298V212.676L135.343 198.763L135.262 181.959" stroke="white" stroke-width="0.75" stroke-miterlimit="10"/>
<path d="M1.29688 81.3168L1.30588 74.0225" stroke="white" stroke-width="0.75" stroke-miterlimit="10"/>
<path d="M1.26953 103.207L1.27854 95.9131" stroke="white" stroke-width="0.75" stroke-miterlimit="10"/>
<path d="M1.25195 125.11L1.26096 117.807" stroke="white" stroke-width="0.75" stroke-miterlimit="10"/>
<path d="M1.23633 146.559L1.24533 139.697" stroke="white" stroke-width="0.75" stroke-miterlimit="10"/>
<path d="M1.20703 168.893L1.21604 161.59" stroke="white" stroke-width="0.75" stroke-miterlimit="10"/>
<path d="M1.18945 190.786L1.19846 183.482" stroke="white" stroke-width="0.75" stroke-miterlimit="10"/>
<path d="M11.2849 214.081L3.99054 214.874L1.17188 215.18V212.676L1.18088 205.373" stroke="white" stroke-width="0.75" stroke-miterlimit="10"/>
<path d="M33.1772 211.695L25.6758 212.515" stroke="white" stroke-width="0.75" stroke-miterlimit="10"/>
<path d="M55.0677 209.309L47.7734 210.11" stroke="white" stroke-width="0.75" stroke-miterlimit="10"/>
<path d="M76.9693 206.931L69.666 207.723" stroke="white" stroke-width="0.75" stroke-miterlimit="10"/>
<path d="M98.8628 204.545L91.1992 205.373" stroke="white" stroke-width="0.75" stroke-miterlimit="10"/>
<path d="M134.785 200.628L120.754 202.159L113.451 202.951" stroke="white" stroke-width="0.75" stroke-miterlimit="10"/>
<path d="M11.2852 213.109L25.8828 211.614" stroke="white" stroke-width="0.75" stroke-miterlimit="10"/>
<path d="M33.0684 210.633L47.666 209.138" stroke="white" stroke-width="0.75" stroke-miterlimit="10"/>
<path d="M55.0684 208.471L69.666 206.977" stroke="white" stroke-width="0.75" stroke-miterlimit="10"/>
<path d="M76.7617 206.121L91.3593 204.635" stroke="white" stroke-width="0.75" stroke-miterlimit="10"/>
<path d="M98.8633 203.699L113.452 202.204" stroke="white" stroke-width="0.75" stroke-miterlimit="10"/>
<path d="M2.62858 205.815L2.60156 191.137" stroke="white" stroke-width="0.75" stroke-miterlimit="10"/>
<path d="M2.33366 183.887L2.30664 169.218" stroke="white" stroke-width="0.75" stroke-miterlimit="10"/>
<path d="M2.37977 161.779L2.34375 147.109" stroke="white" stroke-width="0.75" stroke-miterlimit="10"/>
<path d="M2.2079 139.959L2.17188 125.289" stroke="white" stroke-width="0.75" stroke-miterlimit="10"/>
<path d="M1.99186 117.733L1.96484 103.063" stroke="white" stroke-width="0.75" stroke-miterlimit="10"/>
<path d="M2.1161 96.1208L2.08008 81.4512" stroke="white" stroke-width="0.75" stroke-miterlimit="10"/>
<path d="M1.90202 73.8953L1.875 59.2256" stroke="white" stroke-width="0.75" stroke-miterlimit="10"/>
<path d="M106.156 172.081L33.0684 180.24" stroke="white" stroke-width="0.75" stroke-miterlimit="10"/>
<path d="M33.0684 80.8838L106.156 89.0426" stroke="white" stroke-width="0.75" stroke-miterlimit="10"/>
<path d="M33.0684 80.8838V180.24" stroke="white" stroke-width="0.75" stroke-miterlimit="10"/>
<path d="M106.154 172.081V89.043" stroke="white" stroke-width="0.75" stroke-miterlimit="10"/>
<path d="M258.796 190.65C259.911 190.65 260.814 189.746 260.814 188.632C260.814 187.518 259.911 186.615 258.796 186.615C257.682 186.615 256.779 187.518 256.779 188.632C256.779 189.746 257.682 190.65 258.796 190.65Z" stroke="white" stroke-width="0.75" stroke-miterlimit="10"/>
<path d="M245.18 81.3251C253.242 81.3251 259.777 74.7896 259.777 66.7275C259.777 58.6655 253.242 52.1299 245.18 52.1299C237.118 52.1299 230.582 58.6655 230.582 66.7275C230.582 74.7896 237.118 81.3251 245.18 81.3251Z" stroke="white" stroke-width="0.75" stroke-miterlimit="10"/>
<path d="M242.262 97.761L230.744 106.928L221.703 95.4196L228.052 90.4307L232.248 96.4372L238.012 91.9165L242.262 97.761Z" stroke="white" stroke-width="0.75" stroke-miterlimit="10"/>
<path d="M237.74 54.1381C237.272 53.0575 237.542 51.8958 238.326 51.5626C239.118 51.2204 240.136 51.8238 240.604 52.9134" stroke="white" stroke-width="0.75" stroke-miterlimit="10"/>
<path d="M240.635 52.8058C240.482 51.6351 241.04 50.5905 241.895 50.4824C242.751 50.3653 243.57 51.2208 243.723 52.3915" stroke="white" stroke-width="0.75" stroke-miterlimit="10"/>
<path d="M243.623 52.0844C243.695 50.9047 244.452 49.9951 245.307 50.0492C246.163 50.1032 246.802 51.1028 246.73 52.2825" stroke="white" stroke-width="0.75" stroke-miterlimit="10"/>
<path d="M246.826 51.9406C247.123 50.7969 248.033 50.0405 248.87 50.2566C249.708 50.4727 250.14 51.5714 249.843 52.715" stroke="white" stroke-width="0.75" stroke-miterlimit="10"/>
<path d="M250.033 52.7348C250.583 51.6902 251.645 51.1679 252.411 51.5641C253.176 51.9604 253.347 53.14 252.798 54.1847" stroke="white" stroke-width="0.75" stroke-miterlimit="10"/>
<path d="M253.105 54.1825C253.844 53.264 254.988 52.9488 255.663 53.4891C256.338 54.0294 256.275 55.2091 255.537 56.1277" stroke="white" stroke-width="0.75" stroke-miterlimit="10"/>
<path d="M255.682 56.3441C256.609 55.6147 257.798 55.5786 258.329 56.263C258.861 56.9384 258.527 58.0821 257.6 58.8025" stroke="white" stroke-width="0.75" stroke-miterlimit="10"/>
<path d="M257.633 59.0093C258.668 58.451 259.848 58.6041 260.253 59.3605C260.659 60.117 260.154 61.1886 259.11 61.7469" stroke="white" stroke-width="0.75" stroke-miterlimit="10"/>
<path d="M259.219 61.9913C260.371 61.7301 261.461 62.1984 261.65 63.0359C261.839 63.8734 261.065 64.7649 259.912 65.0261" stroke="white" stroke-width="0.75" stroke-miterlimit="10"/>
<path d="M259.777 65.2328C260.957 65.2148 261.93 65.8902 261.939 66.7547C261.957 67.6192 261.011 68.3306 259.831 68.3486" stroke="white" stroke-width="0.75" stroke-miterlimit="10"/>
<path d="M237.014 78.7402C236.231 79.6227 235.069 79.8748 234.43 79.2985C233.791 78.7222 233.908 77.5515 234.691 76.6689" stroke="white" stroke-width="0.75" stroke-miterlimit="10"/>
<path d="M234.582 76.687C233.591 77.3263 232.402 77.2543 231.943 76.5339C231.475 75.8134 231.907 74.7058 232.898 74.0664" stroke="white" stroke-width="0.75" stroke-miterlimit="10"/>
<path d="M232.662 74.2835C231.563 74.7158 230.42 74.4186 230.105 73.6171C229.789 72.8156 230.42 71.816 231.518 71.3838" stroke="white" stroke-width="0.75" stroke-miterlimit="10"/>
<path d="M231.167 71.4458C230.005 71.6619 228.933 71.1486 228.78 70.3021C228.627 69.4556 229.438 68.5911 230.599 68.375" stroke="white" stroke-width="0.75" stroke-miterlimit="10"/>
<path d="M230.528 68.2049C229.348 68.1509 228.43 67.4034 228.466 66.5479C228.511 65.6924 229.492 65.035 230.672 65.089" stroke="white" stroke-width="0.75" stroke-miterlimit="10"/>
<path d="M230.545 64.8C229.401 64.5208 228.636 63.6113 228.834 62.7828C229.032 61.9543 230.131 61.4951 231.283 61.7742" stroke="white" stroke-width="0.75" stroke-miterlimit="10"/>
<path d="M231.422 61.5499C230.368 61.0095 229.837 59.9559 230.224 59.1905C230.611 58.425 231.782 58.2359 232.836 58.7762" stroke="white" stroke-width="0.75" stroke-miterlimit="10"/>
<path d="M233.008 58.6579C232.062 57.9555 231.711 56.8208 232.224 56.1364C232.738 55.443 233.917 55.452 234.872 56.1635" stroke="white" stroke-width="0.75" stroke-miterlimit="10"/>
<path d="M235.029 55.9576C234.309 55.021 234.264 53.8413 234.948 53.31C235.624 52.7787 236.767 53.1119 237.488 54.0394" stroke="white" stroke-width="0.75" stroke-miterlimit="10"/>
<path d="M42.9388 125.1C46.9674 125.1 50.2332 121.835 50.2332 117.806C50.2332 113.777 46.9674 110.512 42.9388 110.512C38.9103 110.512 35.6445 113.777 35.6445 117.806C35.6445 121.835 38.9103 125.1 42.9388 125.1Z" stroke="white" stroke-width="0.75" stroke-miterlimit="10"/>
<path d="M50.2422 150.144H35.6445V164.741H50.2422V150.144Z" stroke="white" stroke-width="0.75" stroke-miterlimit="10"/>
<path d="M68.8204 132.854H53.3223V140.149H68.8204V132.854Z" stroke="white" stroke-width="0.75" stroke-miterlimit="10"/>
<path d="M92.0099 161.59H76.5117V168.884H92.0099V161.59Z" stroke="white" stroke-width="0.75" stroke-miterlimit="10"/>
<path d="M99.3107 132.403H83.8125V147.001H99.3107V132.403Z" stroke="white" stroke-width="0.75" stroke-miterlimit="10"/>
<path d="M44.6113 150.143V125.108" stroke="white" stroke-width="0.75" stroke-miterlimit="10"/>
<path d="M40.4512 124.667V150.143" stroke="white" stroke-width="0.75" stroke-miterlimit="10"/>
<path d="M54.1225 140.148L53.8073 168.263L44.6309 169.785V164.742" stroke="white" stroke-width="0.75" stroke-miterlimit="10"/>
<path d="M40.4805 164.742V176.188L57.5636 172.937V140.148" stroke="white" stroke-width="0.75" stroke-miterlimit="10"/>
<path d="M68.8174 134.592H76.9672V157.447H71.1588V164.742H76.5079V168.893H67.3945V154.295H72.9418V138.23L68.8174 138.086" stroke="white" stroke-width="0.75" stroke-miterlimit="10"/>
<path d="M92.0078 164.742H94.9616V147.002H99.3111L98.8609 168.894H92.0078" stroke="white" stroke-width="0.75" stroke-miterlimit="10"/>
<path d="M86.1992 116.932V132.403" stroke="white" stroke-width="0.75" stroke-miterlimit="10"/>
<path d="M91.5566 132.402V121.137" stroke="white" stroke-width="0.75" stroke-miterlimit="10"/>
<path d="M92.955 121.138C97.1079 121.138 100.474 117.772 100.474 113.619C100.474 109.466 97.1079 106.1 92.955 106.1C88.8021 106.1 85.4355 109.466 85.4355 113.619C85.4355 117.772 88.8021 121.138 92.955 121.138Z" stroke="white" stroke-width="0.75" stroke-miterlimit="10"/>
<path d="M47.7722 82.5225L44.6113 91.4828L95.6625 98.0657L92.9519 106.089" stroke="white" stroke-width="0.75" stroke-miterlimit="10"/>
<path d="M97.4123 107.567L102.987 103.209V94.1224L53.3223 88.6201L54.2498 83.2529" stroke="white" stroke-width="0.75" stroke-miterlimit="10"/>
<path d="M55.068 104.983C56.182 104.983 57.0852 104.08 57.0852 102.965C57.0852 101.851 56.182 100.948 55.068 100.948C53.9539 100.948 53.0508 101.851 53.0508 102.965C53.0508 104.08 53.9539 104.983 55.068 104.983Z" stroke="white" stroke-width="0.75" stroke-miterlimit="10"/>
<path d="M83.8121 105.226C84.9262 105.226 85.8293 104.323 85.8293 103.209C85.8293 102.095 84.9262 101.191 83.8121 101.191C82.698 101.191 81.7949 102.095 81.7949 103.209C81.7949 104.323 82.698 105.226 83.8121 105.226Z" stroke="white" stroke-width="0.75" stroke-miterlimit="10"/>
<path d="M69.8102 119.822C70.9242 119.822 71.8274 118.919 71.8274 117.805C71.8274 116.691 70.9242 115.788 69.8102 115.788C68.6961 115.788 67.793 116.691 67.793 117.805C67.793 118.919 68.6961 119.822 69.8102 119.822Z" stroke="white" stroke-width="0.75" stroke-miterlimit="10"/>
<path d="M106.154 69.7705V87.502" stroke="white" stroke-width="0.75" stroke-miterlimit="10"/>
<path d="M33.0671 89.0606L4.20508 88.7725" stroke="white" stroke-width="0.75" stroke-miterlimit="10"/>
<path d="M212.814 61.0277L198.217 60.4424V82.3343H212.814V61.0277Z" stroke="white" stroke-width="0.75" stroke-miterlimit="10"/>
<path d="M179.135 81.7126L171.832 81.3164V95.905H179.135V81.7126Z" stroke="white" stroke-width="0.75" stroke-miterlimit="10"/>
<path d="M237.454 38.6038L234.671 31.8408L221.496 38.1175L224.63 44.7094L237.454 38.6038Z" stroke="white" stroke-width="0.75" stroke-miterlimit="10"/>
<path d="M269.757 40.0079L272.567 33.2629L258.824 28.373L256.375 35.2531L269.757 40.0079Z" stroke="white" stroke-width="0.75" stroke-miterlimit="10"/>
<path d="M302.472 104.072L306.884 93.7612L282.219 84.999L278.473 95.5353L302.472 104.072Z" stroke="white" stroke-width="0.75" stroke-miterlimit="10"/>
<path d="M419.568 66.8535L419.947 96.1839L474.798 86.197" stroke="white" stroke-width="0.75" stroke-miterlimit="10"/>
<path d="M501.581 81.3164L487.434 83.9009" stroke="white" stroke-width="0.75" stroke-miterlimit="10"/>
<path d="M342.474 141.28L337.105 146.219L342.044 151.587L347.412 146.649L342.474 141.28Z" stroke="white" stroke-width="0.75" stroke-miterlimit="10"/>
<path d="M346.986 156.961L352.353 152.026L357.297 157.394L351.858 162.256L346.986 156.961Z" stroke="white" stroke-width="0.75" stroke-miterlimit="10"/>
<path d="M362.234 162.769L356.865 167.707L361.803 173.076L367.172 168.137L362.234 162.769Z" stroke="white" stroke-width="0.75" stroke-miterlimit="10"/>
<path d="M372.123 173.507L366.754 178.445L371.692 183.814L377.061 178.876L372.123 173.507Z" stroke="white" stroke-width="0.75" stroke-miterlimit="10"/>
<path d="M492.924 103.208V190.785" stroke="white" stroke-width="0.75" stroke-miterlimit="10"/>
<path d="M344.734 149.126L349.669 154.493" stroke="white" stroke-width="0.75" stroke-miterlimit="10"/>
<path d="M354.615 159.87L359.55 165.237" stroke="white" stroke-width="0.75" stroke-miterlimit="10"/>
<path d="M364.49 170.604L369.434 175.981" stroke="white" stroke-width="0.75" stroke-miterlimit="10"/>
<path d="M393.507 71.4096C393.579 71.9049 393.615 72.4182 393.615 72.9315C393.615 78.6949 388.941 83.3686 383.177 83.3686C377.414 83.3686 372.74 78.6949 372.74 72.9315C372.74 69.3293 374.568 66.1505 377.342 64.2773" stroke="white" stroke-width="0.75" stroke-miterlimit="10"/>
<path d="M383.609 113.213C388.657 113.213 392.75 109.121 392.75 104.073C392.75 99.0249 388.657 94.9326 383.609 94.9326C378.561 94.9326 374.469 99.0249 374.469 104.073C374.469 109.121 378.561 113.213 383.609 113.213Z" stroke="white" stroke-width="0.75" stroke-miterlimit="10"/>
<path d="M354.271 81.3164L343.086 96.1842L350.353 100.309L361.565 86.5035L354.271 81.3164Z" stroke="white" stroke-width="0.75" stroke-miterlimit="10"/>
<path d="M205.771 197.813L192.535 203.971L193.371 205.767L206.606 199.61L205.771 197.813Z" stroke="white" stroke-width="0.75" stroke-miterlimit="10"/>
<path d="M445.711 115.455H409.537V125.1H445.711V115.455Z" stroke="white" stroke-width="0.75" stroke-miterlimit="10"/>
<path d="M421.721 194.804L399.945 192.547L399.193 199.803L420.969 202.06L421.721 194.804Z" stroke="white" stroke-width="0.75" stroke-miterlimit="10"/>
<path d="M295.89 15.6406H288.596V22.9349H295.89V15.6406Z" stroke="white" stroke-width="0.75" stroke-miterlimit="10"/>
<path d="M389.094 81.532L410.58 79.1006L411.49 97.2553L419.946 96.1837" stroke="white" stroke-width="0.75" stroke-miterlimit="10"/>
<path d="M12.0332 53.5347L40.463 58.4876L40.9493 56.6956L12.1863 52.1299" stroke="white" stroke-width="0.75" stroke-miterlimit="10"/>
<path d="M145.835 183.679C147.322 183.679 148.528 182.474 148.528 180.987C148.528 179.499 147.322 178.294 145.835 178.294C144.348 178.294 143.143 179.499 143.143 180.987C143.143 182.474 144.348 183.679 145.835 183.679Z" stroke="white" stroke-width="0.75" stroke-miterlimit="10"/>
<path d="M146.626 167.47C148.113 167.47 149.319 166.265 149.319 164.778C149.319 163.29 148.113 162.085 146.626 162.085C145.139 162.085 143.934 163.29 143.934 164.778C143.934 166.265 145.139 167.47 146.626 167.47Z" stroke="white" stroke-width="0.75" stroke-miterlimit="10"/>
<path d="M162.259 174.773C163.746 174.773 164.952 173.567 164.952 172.08C164.952 170.593 163.746 169.388 162.259 169.388C160.772 169.388 159.566 170.593 159.566 172.08C159.566 173.567 160.772 174.773 162.259 174.773Z" stroke="white" stroke-width="0.75" stroke-miterlimit="10"/>
<path d="M157.396 195.134C158.883 195.134 160.088 193.929 160.088 192.442C160.088 190.955 158.883 189.749 157.396 189.749C155.909 189.749 154.703 190.955 154.703 192.442C154.703 193.929 155.909 195.134 157.396 195.134Z" stroke="white" stroke-width="0.75" stroke-miterlimit="10"/>
<path d="M135.262 181.96V103.208" stroke="white" stroke-width="0.75" stroke-miterlimit="10"/>
<path d="M157.396 126.891C158.883 126.891 160.088 125.686 160.088 124.198C160.088 122.711 158.883 121.506 157.396 121.506C155.909 121.506 154.703 122.711 154.703 124.198C154.703 125.686 155.909 126.891 157.396 126.891Z" stroke="white" stroke-width="0.75" stroke-miterlimit="10"/>
<path d="M135.521 154.358H146.625V125.108H141.753L141.879 147H135.521" stroke="white" stroke-width="0.75" stroke-miterlimit="10"/>
<path d="M238.516 183.526C238.516 194.837 247.89 204.013 259.444 204.013C271.007 204.013 280.372 194.846 280.372 183.526H281.372C281.372 195.639 271.556 205.463 259.435 205.463C247.323 205.463 237.498 195.648 237.498 183.526H238.516Z" stroke="white" stroke-width="0.75" stroke-miterlimit="10"/>
<path d="M282.319 201.88C282.319 207.274 271.711 211.651 258.617 211.651C245.533 211.651 234.915 207.274 234.915 201.88L232.178 206.77C232.178 212.164 243.93 216.541 258.428 216.541C272.927 216.541 284.679 212.164 284.679 206.77L282.319 201.88Z" stroke="white" stroke-width="0.75" stroke-miterlimit="10"/>
<path d="M170.806 125.974C166.951 116.779 162.395 112.115 156.847 109.899C150.886 107.513 143.565 106.099 135.262 111.196" stroke="white" stroke-width="0.75" stroke-miterlimit="10"/>
<path d="M135.262 112.141C143.565 107.044 150.895 108.458 156.847 110.845C162.395 113.06 166.474 119.102 170.337 128.297" stroke="white" stroke-width="0.75" stroke-miterlimit="10"/>
<path d="M104.338 92.6545C105.452 92.6545 106.355 91.7514 106.355 90.6373C106.355 89.5232 105.452 88.6201 104.338 88.6201C103.223 88.6201 102.32 89.5232 102.32 90.6373C102.32 91.7514 103.223 92.6545 104.338 92.6545Z" stroke="white" stroke-width="0.75" stroke-miterlimit="10"/>
<path d="M383.871 70.6179L503.939 49.8066V213.631L383.574 200.322" stroke="white" stroke-width="0.75" stroke-miterlimit="10"/>
<path d="M460.012 137.789H408.123V149.73H460.012V137.789Z" stroke="white" stroke-width="0.75" stroke-miterlimit="10"/>
<path d="M317.895 204.51L304.182 199.505L303.502 201.366L317.215 206.372L317.895 204.51Z" stroke="white" stroke-width="0.75" stroke-miterlimit="10"/>
<path d="M339.143 71.3561C335.117 80.7666 324.221 85.1342 314.81 81.1178L301.969 75.6336C292.495 71.5902 288.136 60.6127 292.243 51.1751L292.261 51.1301C296.34 41.7646 307.219 37.46 316.602 41.4944L329.426 47.0147C338.818 51.0671 343.159 61.9545 339.143 71.3561Z" stroke="white" stroke-width="0.75" stroke-miterlimit="10"/>
<path d="M501.58 99.2819C501.58 107.459 491.413 114.249 479.364 114.249C467.315 114.249 457.553 107.621 457.553 99.444C457.553 94.329 457.58 93.4465 459.831 88.9258" stroke="white" stroke-width="0.75" stroke-miterlimit="10"/>
<path d="M329.486 145.866L331.017 134.736L331.774 115.239C331.774 115.239 319.175 101.866 331.846 88.3943L357.087 40.0897L341.166 27.5903C340.671 27.2301 329.99 20.377 329.432 20.1159C321.507 16.4147 307.936 11.1826 301.408 9.27348L283.91 5.53627C279.345 4.0684 286.396 6.06758 282.83 23.4749C281.776 26.5997 280.731 29.7246 279.678 32.8494C277.507 38.7389 271.294 45.5289 269.123 51.4184C266.593 58.2714 265.783 62.621 265.566 71.077C265.566 71.077 265.566 82.3967 271.24 91.1769C274.383 96.0488 276.103 101.677 273.995 113.744" stroke="white" stroke-width="0.75" stroke-miterlimit="10"/>
<path d="M356.926 40.3418L347.777 57.9112L346.561 60.2256L331.892 88.5293C331.892 88.5293 318.96 100.326 331.775 115.248" stroke="white" stroke-width="0.75" stroke-miterlimit="10"/>
<path d="M460.244 106.657L445.709 115.455L331.774 115.239L331.018 134.736L386.959 137.906L383.402 198.151" stroke="white" stroke-width="0.75" stroke-miterlimit="10"/>
<path d="M162.617 40.585L179.133 59.4242C179.133 59.4242 211.084 27.2572 237.514 25.0959V5.12207L226.231 7.24733C227.338 6.97717 219.684 8.85928 216.865 9.5617C212.732 10.5883 210.507 11.5429 205.582 13.6321C199.152 16.3517 195.469 17.3423 186.445 22.9976C181.681 25.9874 175.126 30.1929 174.639 30.6252L162.617 40.585Z" stroke="white" stroke-width="0.75" stroke-miterlimit="10"/>
<path d="M11.8809 54.3369L12.0249 78.7053L33.0704 80.8846" stroke="white" stroke-width="0.75" stroke-miterlimit="10"/>
<path d="M175.922 29.7423L184.477 41.026C184.477 41.026 216.734 18.0174 237.284 15.748" stroke="white" stroke-width="0.75" stroke-miterlimit="10"/>
<path d="M196.264 17.5498L204.053 28.7434" stroke="white" stroke-width="0.75" stroke-miterlimit="10"/>
<path d="M217.244 9.47168L222.26 19.8818" stroke="white" stroke-width="0.75" stroke-miterlimit="10"/>
<path d="M189.743 32.7592C191.757 32.7592 193.39 31.1263 193.39 29.112C193.39 27.0977 191.757 25.4648 189.743 25.4648C187.729 25.4648 186.096 27.0977 186.096 29.112C186.096 31.1263 187.729 32.7592 189.743 32.7592Z" stroke="white" stroke-width="0.75" stroke-miterlimit="10"/>
<path d="M209.563 22.3129C211.577 22.3129 213.21 20.68 213.21 18.6657C213.21 16.6514 211.577 15.0186 209.563 15.0186C207.549 15.0186 205.916 16.6514 205.916 18.6657C205.916 20.68 207.549 22.3129 209.563 22.3129Z" stroke="white" stroke-width="0.75" stroke-miterlimit="10"/>
<path d="M227.241 15.7474C229.255 15.7474 230.888 14.1146 230.888 12.1003C230.888 10.086 229.255 8.45312 227.241 8.45312C225.227 8.45312 223.594 10.086 223.594 12.1003C223.594 14.1146 225.227 15.7474 227.241 15.7474Z" stroke="white" stroke-width="0.75" stroke-miterlimit="10"/>
<path d="M180.981 57.6314L178.252 53.6871L184.592 48.3379L187.158 52.0571" stroke="white" stroke-width="0.75" stroke-miterlimit="10"/>
<path d="M237.004 266.358V274.094H282.355L282.076 267.07" stroke="white" stroke-width="0.75" stroke-miterlimit="10"/>
<path d="M383.869 70.6179L503.937 49.8066V213.631L383.572 200.322" stroke="white" stroke-width="0.75" stroke-miterlimit="10"/>
</svg>
