<svg width="1440" height="651" viewBox="0 0 1440 651" fill="none" xmlns="http://www.w3.org/2000/svg">
<rect x="133.016" y="86.3154" width="1037.36" height="477.59" fill="#EB3762"/>
<path fill-rule="evenodd" clip-rule="evenodd" d="M495.064 564.393C437.183 617.65 359.922 650.171 275.066 650.171C95.5739 650.171 -49.9336 504.663 -49.9336 325.171C-49.9336 145.678 95.5739 0.170898 275.066 0.170898C359.922 0.170898 437.183 32.6915 495.064 85.9492C430.512 145.345 390.062 230.534 390.062 325.171C390.062 419.807 430.512 504.996 495.064 564.393ZM935.055 564.398C877.174 617.652 799.916 650.171 715.062 650.171C630.206 650.171 552.946 617.65 495.064 564.393C559.617 504.996 600.066 419.807 600.066 325.171C600.066 230.534 559.617 145.345 495.064 85.9492C552.946 32.6915 630.206 0.170898 715.062 0.170898C799.916 0.170898 877.174 32.6894 935.055 85.9441C870.499 145.34 830.047 230.532 830.047 325.171C830.047 419.81 870.499 505.001 935.055 564.398ZM935.055 564.398C999.611 505.001 1040.06 419.81 1040.06 325.171C1040.06 230.532 999.611 145.34 935.055 85.9441C992.936 32.6894 1070.19 0.170898 1155.05 0.170898C1334.54 0.170898 1480.05 145.678 1480.05 325.171C1480.05 504.663 1334.54 650.171 1155.05 650.171C1070.19 650.171 992.936 617.652 935.055 564.398Z" fill="#0024B1"/>
</svg>
