<svg width="38" height="1739" viewBox="0 0 38 1739" fill="none" xmlns="http://www.w3.org/2000/svg">
<path d="M30.42 1728.08C30.42 1730.09 29.9813 1731.81 29.104 1733.23C28.2173 1734.65 26.9853 1735.73 25.408 1736.49C23.8307 1737.24 22.0013 1737.61 19.92 1737.61C17.8387 1737.61 16.0093 1737.24 14.432 1736.49C12.8547 1735.73 11.6273 1734.65 10.75 1733.23C9.86333 1731.81 9.42 1730.09 9.42 1728.08C9.42 1726.07 9.86333 1724.36 10.75 1722.94C11.6273 1721.51 12.8547 1720.42 14.432 1719.68C16.0093 1718.93 17.8387 1718.56 19.92 1718.56C22.0013 1718.56 23.8307 1718.93 25.408 1719.68C26.9853 1720.42 28.2173 1721.51 29.104 1722.94C29.9813 1724.36 30.42 1726.07 30.42 1728.08ZM27.634 1728.08C27.6527 1726.65 27.34 1725.46 26.696 1724.52C26.0427 1723.57 25.1373 1722.85 23.98 1722.38C22.8133 1721.9 21.46 1721.66 19.92 1721.66C18.38 1721.66 17.036 1721.9 15.888 1722.38C14.7307 1722.85 13.83 1723.57 13.186 1724.52C12.542 1725.46 12.2153 1726.65 12.206 1728.08C12.1873 1729.5 12.5 1730.69 13.144 1731.65C13.788 1732.59 14.6933 1733.3 15.86 1733.77C17.0267 1734.25 18.38 1734.49 19.92 1734.5C21.46 1734.51 22.8087 1734.28 23.966 1733.8C25.114 1733.33 26.01 1732.61 26.654 1731.66C27.298 1730.7 27.6247 1729.5 27.634 1728.08ZM30 1715.76H9.84V1712.84H18.534L18.534 1702.76H9.84V1699.82H30V1702.76H21.292L21.292 1712.84H30V1715.76ZM30 1697.28H27.494C27.5407 1696.81 27.5173 1696.42 27.424 1696.11C27.3213 1695.79 27.1253 1695.52 26.836 1695.31C26.5373 1695.1 26.108 1694.91 25.548 1694.76C24.988 1694.61 24.2647 1694.45 23.378 1694.3C22.2487 1694.1 21.0867 1693.92 19.892 1693.78C18.6973 1693.64 17.512 1693.53 16.336 1693.43C15.1507 1693.33 14.0073 1693.25 12.906 1693.18C11.8047 1693.12 10.7827 1693.07 9.84 1693.03L9.84 1679.8H30V1682.72H12.598V1690.28C13.3447 1690.33 14.18 1690.39 15.104 1690.45C16.028 1690.52 17.008 1690.6 18.044 1690.69C19.08 1690.78 20.1487 1690.9 21.25 1691.04C22.3513 1691.17 23.4573 1691.34 24.568 1691.54C25.52 1691.71 26.3787 1691.92 27.144 1692.16C27.9093 1692.4 28.5487 1692.73 29.062 1693.14C29.566 1693.55 29.902 1694.09 30.07 1694.75C30.2473 1695.41 30.224 1696.26 30 1697.28ZM30 1677.27L9.84 1670.72V1666.5L30 1659.95L30 1662.99L11.604 1669.02V1668.27L30 1674.23V1677.27ZM25.45 1673.87H22.706V1663.34H25.45V1673.87ZM30 1657.44H9.84L9.84 1654.47H24.82L9.84 1644.54V1641.58H30L30 1644.54H15.006L30 1654.47V1657.44ZM8.104 1649.46C8.104 1650.21 7.922 1650.88 7.558 1651.49C7.194 1652.1 6.70867 1652.58 6.102 1652.94C5.49533 1653.31 4.81867 1653.49 4.072 1653.49V1651.17C4.53867 1651.17 4.94 1651 5.276 1650.66C5.612 1650.33 5.78 1649.93 5.78 1649.46C5.78 1648.98 5.612 1648.58 5.276 1648.25C4.94 1647.92 4.53867 1647.75 4.072 1647.75V1645.43C4.81867 1645.43 5.49533 1645.61 6.102 1645.97C6.70867 1646.34 7.194 1646.83 7.558 1647.44C7.922 1648.05 8.104 1648.72 8.104 1649.46ZM30 1637.67H9.84V1634.74H18.534L18.534 1624.66H9.84V1621.72H30V1624.66H21.292L21.292 1634.74H30V1637.67ZM30 1613.58L9.84 1607.03L9.84 1602.82L30 1596.27V1599.3L11.604 1605.34V1604.58L30 1610.55V1613.58ZM25.45 1610.18H22.706L22.706 1599.65H25.45L25.45 1610.18ZM30 1594.23H27.494C27.5407 1593.75 27.5173 1593.36 27.424 1593.05C27.3213 1592.73 27.1253 1592.47 26.836 1592.25C26.5373 1592.04 26.108 1591.85 25.548 1591.71C24.988 1591.55 24.2647 1591.39 23.378 1591.24C22.2487 1591.04 21.0867 1590.87 19.892 1590.73C18.6973 1590.59 17.512 1590.47 16.336 1590.38C15.1507 1590.27 14.0073 1590.19 12.906 1590.12C11.8047 1590.06 10.7827 1590.01 9.84 1589.97L9.84 1576.74H30V1579.67H12.598L12.598 1587.23C13.3447 1587.27 14.18 1587.33 15.104 1587.39C16.028 1587.46 17.008 1587.54 18.044 1587.63C19.08 1587.72 20.1487 1587.84 21.25 1587.98C22.3513 1588.11 23.4573 1588.28 24.568 1588.49C25.52 1588.65 26.3787 1588.86 27.144 1589.1C27.9093 1589.34 28.5487 1589.67 29.062 1590.08C29.566 1590.49 29.902 1591.03 30.07 1591.69C30.2473 1592.35 30.224 1593.2 30 1594.23ZM30 1572.82H9.84V1569.9H17.078V1564.68C17.078 1564.49 17.0873 1564.25 17.106 1563.96C17.1153 1563.66 17.1433 1563.39 17.19 1563.14C17.3673 1562.02 17.75 1561.08 18.338 1560.34C18.926 1559.58 19.668 1559.01 20.564 1558.64C21.46 1558.26 22.454 1558.07 23.546 1558.07C24.6287 1558.07 25.618 1558.25 26.514 1558.63C27.41 1559 28.152 1559.57 28.74 1560.32C29.328 1561.07 29.7107 1562.01 29.888 1563.14C29.9253 1563.39 29.9533 1563.66 29.972 1563.95C29.9907 1564.24 30 1564.48 30 1564.68V1572.82ZM27.242 1569.9V1564.79C27.242 1564.61 27.2327 1564.41 27.214 1564.19C27.1953 1563.95 27.158 1563.73 27.102 1563.53C26.962 1562.92 26.7053 1562.44 26.332 1562.09C25.9493 1561.72 25.5153 1561.46 25.03 1561.3C24.5353 1561.13 24.0407 1561.05 23.546 1561.05C23.0513 1561.05 22.5567 1561.13 22.062 1561.3C21.5673 1561.46 21.1333 1561.72 20.76 1562.09C20.3773 1562.44 20.116 1562.92 19.976 1563.53C19.92 1563.73 19.8873 1563.95 19.878 1564.19C19.8593 1564.41 19.85 1564.61 19.85 1564.79V1569.9H27.242ZM30 1554.98H9.84L9.84 1541.84H12.598L12.598 1552.06H17.456V1546.83C17.456 1546.65 17.4653 1546.41 17.484 1546.12C17.4933 1545.82 17.5167 1545.54 17.554 1545.28C17.6847 1544.19 18.0393 1543.27 18.618 1542.52C19.1967 1541.77 19.9293 1541.2 20.816 1540.81C21.7027 1540.42 22.6733 1540.23 23.728 1540.23C24.7827 1540.23 25.7533 1540.42 26.64 1540.8C27.5267 1541.18 28.2593 1541.75 28.838 1542.51C29.4167 1543.25 29.7713 1544.18 29.902 1545.28C29.9393 1545.54 29.9673 1545.82 29.986 1546.11C29.9953 1546.39 30 1546.64 30 1546.83V1554.98ZM27.242 1552.06V1546.95C27.242 1546.76 27.2327 1546.55 27.214 1546.33C27.1953 1546.1 27.1673 1545.88 27.13 1545.67C26.9433 1544.77 26.514 1544.13 25.842 1543.77C25.17 1543.39 24.4653 1543.21 23.728 1543.21C22.9813 1543.21 22.2767 1543.39 21.614 1543.77C20.942 1544.13 20.5127 1544.77 20.326 1545.67C20.2793 1545.88 20.2513 1546.1 20.242 1546.33C20.2233 1546.55 20.214 1546.76 20.214 1546.95V1552.06H27.242ZM30.42 1529.01C30.42 1531.03 29.9813 1532.75 29.104 1534.16C28.2173 1535.58 26.9853 1536.67 25.408 1537.43C23.8307 1538.17 22.0013 1538.55 19.92 1538.55C17.8387 1538.55 16.0093 1538.17 14.432 1537.43C12.8547 1536.67 11.6273 1535.58 10.75 1534.16C9.86333 1532.75 9.42 1531.03 9.42 1529.01C9.42 1527.01 9.86333 1525.29 10.75 1523.87C11.6273 1522.45 12.8547 1521.36 14.432 1520.61C16.0093 1519.87 17.8387 1519.49 19.92 1519.49C22.0013 1519.49 23.8307 1519.87 25.408 1520.61C26.9853 1521.36 28.2173 1522.45 29.104 1523.87C29.9813 1525.29 30.42 1527.01 30.42 1529.01ZM27.634 1529.01C27.6527 1527.58 27.34 1526.4 26.696 1525.46C26.0427 1524.5 25.1373 1523.79 23.98 1523.31C22.8133 1522.84 21.46 1522.6 19.92 1522.6C18.38 1522.6 17.036 1522.84 15.888 1523.31C14.7307 1523.79 13.83 1524.5 13.186 1525.46C12.542 1526.4 12.2153 1527.58 12.206 1529.01C12.1873 1530.44 12.5 1531.63 13.144 1532.58C13.788 1533.53 14.6933 1534.23 15.86 1534.71C17.0267 1535.19 18.38 1535.43 19.92 1535.44C21.46 1535.45 22.8087 1535.21 23.966 1534.74C25.114 1534.26 26.01 1533.55 26.654 1532.6C27.298 1531.64 27.6247 1530.44 27.634 1529.01ZM30 1516.7H9.84L9.84 1514.05L25.002 1506.75L9.84 1499.48L9.84 1496.81H29.986V1499.58H16.196L30 1506.09V1507.42L16.196 1513.94H30V1516.7ZM22.342 1487.56H19.99L19.99 1475.8H22.342L22.342 1487.56ZM30.42 1458.14C30.42 1460.15 29.9813 1461.87 29.104 1463.29C28.2173 1464.71 26.9853 1465.8 25.408 1466.55C23.8307 1467.3 22.0013 1467.67 19.92 1467.67C17.8387 1467.67 16.0093 1467.3 14.432 1466.55C12.8547 1465.8 11.6273 1464.71 10.75 1463.29C9.86333 1461.87 9.42 1460.15 9.42 1458.14C9.42 1456.13 9.86333 1454.42 10.75 1453C11.6273 1451.57 12.8547 1450.48 14.432 1449.74C16.0093 1448.99 17.8387 1448.62 19.92 1448.62C22.0013 1448.62 23.8307 1448.99 25.408 1449.74C26.9853 1450.48 28.2173 1451.57 29.104 1453C29.9813 1454.42 30.42 1456.13 30.42 1458.14ZM27.634 1458.14C27.6527 1456.71 27.34 1455.52 26.696 1454.58C26.0427 1453.63 25.1373 1452.92 23.98 1452.44C22.8133 1451.96 21.46 1451.73 19.92 1451.73C18.38 1451.73 17.036 1451.96 15.888 1452.44C14.7307 1452.92 13.83 1453.63 13.186 1454.58C12.542 1455.52 12.2153 1456.71 12.206 1458.14C12.1873 1459.57 12.5 1460.76 13.144 1461.71C13.788 1462.65 14.6933 1463.36 15.86 1463.84C17.0267 1464.31 18.38 1464.55 19.92 1464.56C21.46 1464.57 22.8087 1464.34 23.966 1463.86C25.114 1463.39 26.01 1462.67 26.654 1461.72C27.298 1460.76 27.6247 1459.57 27.634 1458.14ZM30 1445.83H9.84V1443.18L25.002 1435.87L9.84 1428.61V1425.93H29.986V1428.7H16.196L30 1435.21V1436.54L16.196 1443.07H30V1445.83ZM30 1422.01H9.84L9.84 1419.36L25.002 1412.05L9.84 1404.79L9.84 1402.11H29.986V1404.89H16.196L30 1411.4V1412.73L16.196 1419.25H30V1422.01ZM30 1392.59H9.84V1389.66H18.534L18.534 1379.58H9.84L9.84 1376.64H30V1379.58H21.292L21.292 1389.66H30V1392.59ZM30.42 1364.29C30.42 1366.31 29.9813 1368.03 29.104 1369.45C28.2173 1370.86 26.9853 1371.95 25.408 1372.71C23.8307 1373.45 22.0013 1373.83 19.92 1373.83C17.8387 1373.83 16.0093 1373.45 14.432 1372.71C12.8547 1371.95 11.6273 1370.86 10.75 1369.45C9.86333 1368.03 9.42 1366.31 9.42 1364.29C9.42 1362.29 9.86333 1360.57 10.75 1359.16C11.6273 1357.73 12.8547 1356.64 14.432 1355.89C16.0093 1355.15 17.8387 1354.77 19.92 1354.77C22.0013 1354.77 23.8307 1355.15 25.408 1355.89C26.9853 1356.64 28.2173 1357.73 29.104 1359.16C29.9813 1360.57 30.42 1362.29 30.42 1364.29ZM27.634 1364.29C27.6527 1362.87 27.34 1361.68 26.696 1360.74C26.0427 1359.79 25.1373 1359.07 23.98 1358.6C22.8133 1358.12 21.46 1357.88 19.92 1357.88C18.38 1357.88 17.036 1358.12 15.888 1358.6C14.7307 1359.07 13.83 1359.79 13.186 1360.74C12.542 1361.68 12.2153 1362.87 12.206 1364.29C12.1873 1365.72 12.5 1366.91 13.144 1367.86C13.788 1368.81 14.6933 1369.52 15.86 1369.99C17.0267 1370.47 18.38 1370.71 19.92 1370.72C21.46 1370.73 22.8087 1370.5 23.966 1370.02C25.114 1369.54 26.01 1368.83 26.654 1367.88C27.298 1366.92 27.6247 1365.72 27.634 1364.29ZM30 1351.98H9.84L9.84 1349.34L25.002 1342.03L9.84 1334.76L9.84 1332.09H29.986V1334.86H16.196L30 1341.37V1342.7L16.196 1349.22H30V1351.98ZM22.342 1322.84H19.99L19.99 1311.08H22.342L22.342 1322.84ZM30.42 1293.42C30.42 1295.43 29.9813 1297.15 29.104 1298.57C28.2173 1299.99 26.9853 1301.08 25.408 1301.83C23.8307 1302.58 22.0013 1302.95 19.92 1302.95C17.8387 1302.95 16.0093 1302.58 14.432 1301.83C12.8547 1301.08 11.6273 1299.99 10.75 1298.57C9.86333 1297.15 9.42 1295.43 9.42 1293.42C9.42 1291.41 9.86333 1289.7 10.75 1288.28C11.6273 1286.85 12.8547 1285.77 14.432 1285.02C16.0093 1284.27 17.8387 1283.9 19.92 1283.9C22.0013 1283.9 23.8307 1284.27 25.408 1285.02C26.9853 1285.77 28.2173 1286.85 29.104 1288.28C29.9813 1289.7 30.42 1291.41 30.42 1293.42ZM27.634 1293.42C27.6527 1291.99 27.34 1290.81 26.696 1289.86C26.0427 1288.91 25.1373 1288.2 23.98 1287.72C22.8133 1287.24 21.46 1287.01 19.92 1287.01C18.38 1287.01 17.036 1287.24 15.888 1287.72C14.7307 1288.2 13.83 1288.91 13.186 1289.86C12.542 1290.81 12.2153 1291.99 12.206 1293.42C12.1873 1294.85 12.5 1296.04 13.144 1296.99C13.788 1297.93 14.6933 1298.64 15.86 1299.12C17.0267 1299.59 18.38 1299.84 19.92 1299.84C21.46 1299.85 22.8087 1299.62 23.966 1299.14C25.114 1298.67 26.01 1297.95 26.654 1297C27.298 1296.04 27.6247 1294.85 27.634 1293.42ZM30 1281.11H9.84V1278.18H18.534L18.534 1268.1H9.84V1265.16H30V1268.1H21.292L21.292 1278.18H30V1281.11ZM30 1262.63H27.494C27.5407 1262.15 27.5173 1261.76 27.424 1261.45C27.3213 1261.13 27.1253 1260.87 26.836 1260.65C26.5373 1260.44 26.108 1260.26 25.548 1260.11C24.988 1259.95 24.2647 1259.79 23.378 1259.65C22.2487 1259.44 21.0867 1259.27 19.892 1259.13C18.6973 1258.99 17.512 1258.87 16.336 1258.78C15.1507 1258.67 14.0073 1258.59 12.906 1258.53C11.8047 1258.46 10.7827 1258.41 9.84 1258.37L9.84 1245.14H30V1248.07H12.598L12.598 1255.63C13.3447 1255.67 14.18 1255.73 15.104 1255.8C16.028 1255.86 17.008 1255.94 18.044 1256.03C19.08 1256.13 20.1487 1256.24 21.25 1256.38C22.3513 1256.51 23.4573 1256.68 24.568 1256.89C25.52 1257.06 26.3787 1257.26 27.144 1257.5C27.9093 1257.75 28.5487 1258.07 29.062 1258.48C29.566 1258.89 29.902 1259.43 30.07 1260.09C30.2473 1260.76 30.224 1261.6 30 1262.63ZM30 1242.61L9.84 1236.06V1231.85L30 1225.29V1228.33L11.604 1234.37V1233.61L30 1239.57L30 1242.61ZM25.45 1239.21H22.706V1228.68H25.45V1239.21ZM30 1222.78H9.84L9.84 1219.81H24.82L9.84 1209.89V1206.92H30L30 1209.89H15.006L30 1219.81V1222.78ZM8.104 1214.8C8.104 1215.55 7.922 1216.23 7.558 1216.83C7.194 1217.44 6.70867 1217.92 6.102 1218.29C5.49533 1218.65 4.81867 1218.83 4.072 1218.83L4.072 1216.51C4.53867 1216.51 4.94 1216.34 5.276 1216.01C5.612 1215.67 5.78 1215.27 5.78 1214.8C5.78 1214.33 5.612 1213.92 5.276 1213.6C4.94 1213.26 4.53867 1213.09 4.072 1213.09V1210.77C4.81867 1210.77 5.49533 1210.95 6.102 1211.32C6.70867 1211.68 7.194 1212.17 7.558 1212.79C7.922 1213.39 8.104 1214.06 8.104 1214.8ZM30 1203.01H9.84L9.84 1200.09H18.534V1190.01H9.84V1187.07H30L30 1190.01H21.292V1200.09H30V1203.01ZM30 1178.93L9.84 1172.38V1168.16L30 1161.61V1164.65L11.604 1170.68V1169.93L30 1175.89V1178.93ZM25.45 1175.53H22.706L22.706 1165H25.45L25.45 1175.53ZM30 1159.57H27.494C27.5407 1159.09 27.5173 1158.7 27.424 1158.39C27.3213 1158.08 27.1253 1157.81 26.836 1157.59C26.5373 1157.38 26.108 1157.2 25.548 1157.05C24.988 1156.89 24.2647 1156.74 23.378 1156.59C22.2487 1156.38 21.0867 1156.21 19.892 1156.07C18.6973 1155.93 17.512 1155.81 16.336 1155.72C15.1507 1155.62 14.0073 1155.53 12.906 1155.47C11.8047 1155.4 10.7827 1155.35 9.84 1155.31L9.84 1142.08H30V1145.01H12.598L12.598 1152.57C13.3447 1152.62 14.18 1152.67 15.104 1152.74C16.028 1152.8 17.008 1152.88 18.044 1152.97C19.08 1153.07 20.1487 1153.18 21.25 1153.32C22.3513 1153.46 23.4573 1153.62 24.568 1153.83C25.52 1154 26.3787 1154.2 27.144 1154.44C27.9093 1154.69 28.5487 1155.01 29.062 1155.42C29.566 1155.84 29.902 1156.37 30.07 1157.03C30.2473 1157.7 30.224 1158.54 30 1159.57ZM30 1138.17H9.84V1135.24H17.078V1130.02C17.078 1129.83 17.0873 1129.59 17.106 1129.31C17.1153 1129.01 17.1433 1128.73 17.19 1128.48C17.3673 1127.36 17.75 1126.43 18.338 1125.68C18.926 1124.92 19.668 1124.36 20.564 1123.99C21.46 1123.6 22.454 1123.41 23.546 1123.41C24.6287 1123.41 25.618 1123.6 26.514 1123.97C27.41 1124.34 28.152 1124.91 28.74 1125.67C29.328 1126.41 29.7107 1127.35 29.888 1128.48C29.9253 1128.73 29.9533 1129 29.972 1129.29C29.9907 1129.58 30 1129.82 30 1130.02L30 1138.17ZM27.242 1135.24V1130.13C27.242 1129.95 27.2327 1129.75 27.214 1129.53C27.1953 1129.3 27.158 1129.08 27.102 1128.87C26.962 1128.26 26.7053 1127.78 26.332 1127.43C25.9493 1127.07 25.5153 1126.8 25.03 1126.65C24.5353 1126.48 24.0407 1126.39 23.546 1126.39C23.0513 1126.39 22.5567 1126.48 22.062 1126.65C21.5673 1126.8 21.1333 1127.07 20.76 1127.43C20.3773 1127.78 20.116 1128.26 19.976 1128.87C19.92 1129.08 19.8873 1129.3 19.878 1129.53C19.8593 1129.75 19.85 1129.95 19.85 1130.13V1135.24H27.242ZM30 1120.33H9.84L9.84 1107.18H12.598L12.598 1117.4H17.456V1112.18C17.456 1111.99 17.4653 1111.75 17.484 1111.46C17.4933 1111.16 17.5167 1110.88 17.554 1110.62C17.6847 1109.53 18.0393 1108.61 18.618 1107.87C19.1967 1107.11 19.9293 1106.54 20.816 1106.16C21.7027 1105.77 22.6733 1105.57 23.728 1105.57C24.7827 1105.57 25.7533 1105.76 26.64 1106.14C27.5267 1106.53 28.2593 1107.1 28.838 1107.85C29.4167 1108.6 29.7713 1109.52 29.902 1110.62C29.9393 1110.88 29.9673 1111.16 29.986 1111.45C29.9953 1111.74 30 1111.98 30 1112.18L30 1120.33ZM27.242 1117.4V1112.29C27.242 1112.1 27.2327 1111.9 27.214 1111.67C27.1953 1111.44 27.1673 1111.22 27.13 1111.02C26.9433 1110.11 26.514 1109.48 25.842 1109.11C25.17 1108.74 24.4653 1108.55 23.728 1108.55C22.9813 1108.55 22.2767 1108.74 21.614 1109.11C20.942 1109.48 20.5127 1110.11 20.326 1111.02C20.2793 1111.22 20.2513 1111.44 20.242 1111.67C20.2233 1111.9 20.214 1112.1 20.214 1112.29V1117.4H27.242ZM30.42 1094.36C30.42 1096.37 29.9813 1098.09 29.104 1099.51C28.2173 1100.93 26.9853 1102.01 25.408 1102.77C23.8307 1103.52 22.0013 1103.89 19.92 1103.89C17.8387 1103.89 16.0093 1103.52 14.432 1102.77C12.8547 1102.01 11.6273 1100.93 10.75 1099.51C9.86333 1098.09 9.42 1096.37 9.42 1094.36C9.42 1092.35 9.86333 1090.64 10.75 1089.22C11.6273 1087.79 12.8547 1086.7 14.432 1085.96C16.0093 1085.21 17.8387 1084.84 19.92 1084.84C22.0013 1084.84 23.8307 1085.21 25.408 1085.96C26.9853 1086.7 28.2173 1087.79 29.104 1089.22C29.9813 1090.64 30.42 1092.35 30.42 1094.36ZM27.634 1094.36C27.6527 1092.93 27.34 1091.74 26.696 1090.8C26.0427 1089.85 25.1373 1089.13 23.98 1088.66C22.8133 1088.18 21.46 1087.94 19.92 1087.94C18.38 1087.94 17.036 1088.18 15.888 1088.66C14.7307 1089.13 13.83 1089.85 13.186 1090.8C12.542 1091.74 12.2153 1092.93 12.206 1094.36C12.1873 1095.78 12.5 1096.97 13.144 1097.93C13.788 1098.87 14.6933 1099.58 15.86 1100.05C17.0267 1100.53 18.38 1100.77 19.92 1100.78C21.46 1100.79 22.8087 1100.56 23.966 1100.08C25.114 1099.61 26.01 1098.89 26.654 1097.94C27.298 1096.98 27.6247 1095.78 27.634 1094.36ZM30 1082.04H9.84L9.84 1079.4L25.002 1072.09L9.84 1064.82L9.84 1062.15H29.986V1064.92H16.196L30 1071.43V1072.76L16.196 1079.29H30V1082.04ZM22.342 1052.9H19.99L19.99 1041.14H22.342L22.342 1052.9ZM30.42 1023.48C30.42 1025.5 29.9813 1027.21 29.104 1028.63C28.2173 1030.05 26.9853 1031.14 25.408 1031.9C23.8307 1032.64 22.0013 1033.02 19.92 1033.02C17.8387 1033.02 16.0093 1032.64 14.432 1031.9C12.8547 1031.14 11.6273 1030.05 10.75 1028.63C9.86333 1027.21 9.42 1025.5 9.42 1023.48C9.42 1021.47 9.86333 1019.76 10.75 1018.34C11.6273 1016.92 12.8547 1015.83 14.432 1015.08C16.0093 1014.33 17.8387 1013.96 19.92 1013.96C22.0013 1013.96 23.8307 1014.33 25.408 1015.08C26.9853 1015.83 28.2173 1016.92 29.104 1018.34C29.9813 1019.76 30.42 1021.47 30.42 1023.48ZM27.634 1023.48C27.6527 1022.05 27.34 1020.87 26.696 1019.93C26.0427 1018.97 25.1373 1018.26 23.98 1017.78C22.8133 1017.31 21.46 1017.07 19.92 1017.07C18.38 1017.07 17.036 1017.31 15.888 1017.78C14.7307 1018.26 13.83 1018.97 13.186 1019.93C12.542 1020.87 12.2153 1022.05 12.206 1023.48C12.1873 1024.91 12.5 1026.1 13.144 1027.05C13.788 1027.99 14.6933 1028.7 15.86 1029.18C17.0267 1029.66 18.38 1029.9 19.92 1029.91C21.46 1029.92 22.8087 1029.68 23.966 1029.21C25.114 1028.73 26.01 1028.02 26.654 1027.07C27.298 1026.1 27.6247 1024.91 27.634 1023.48ZM30 1011.17H9.84V1008.52L25.002 1001.21L9.84 993.949L9.84 991.275H29.986V994.047H16.196L30 1000.56V1001.89L16.196 1008.41H30V1011.17ZM30 987.352H9.84L9.84 984.706L25.002 977.398L9.84 970.132L9.84 967.458H29.986V970.23H16.196L30 976.74V978.07L16.196 984.594H30V987.352ZM30 957.931H9.84V955.005H18.534L18.534 944.925H9.84V941.985H30V944.925H21.292L21.292 955.005H30V957.931ZM30.42 929.638C30.42 931.654 29.9813 933.371 29.104 934.79C28.2173 936.208 26.9853 937.296 25.408 938.052C23.8307 938.798 22.0013 939.172 19.92 939.172C17.8387 939.172 16.0093 938.798 14.432 938.052C12.8547 937.296 11.6273 936.208 10.75 934.79C9.86333 933.371 9.42 931.654 9.42 929.638C9.42 927.631 9.86333 925.918 10.75 924.5C11.6273 923.072 12.8547 921.984 14.432 921.238C16.0093 920.491 17.8387 920.118 19.92 920.118C22.0013 920.118 23.8307 920.491 25.408 921.238C26.9853 921.984 28.2173 923.072 29.104 924.5C29.9813 925.918 30.42 927.631 30.42 929.638ZM27.634 929.638C27.6527 928.21 27.34 927.024 26.696 926.082C26.0427 925.13 25.1373 924.416 23.98 923.94C22.8133 923.464 21.46 923.226 19.92 923.226C18.38 923.226 17.036 923.464 15.888 923.94C14.7307 924.416 13.83 925.13 13.186 926.082C12.542 927.024 12.2153 928.21 12.206 929.638C12.1873 931.066 12.5 932.256 13.144 933.208C13.788 934.15 14.6933 934.86 15.86 935.336C17.0267 935.812 18.38 936.054 19.92 936.064C21.46 936.073 22.8087 935.84 23.966 935.364C25.114 934.888 26.01 934.174 26.654 933.222C27.298 932.26 27.6247 931.066 27.634 929.638ZM30 917.325H9.84L9.84 914.679L25.002 907.371L9.84 900.105L9.84 897.431H29.986V900.203H16.196L30 906.713V908.043L16.196 914.567H30V917.325ZM22.342 888.183H19.99V876.423H22.342V888.183ZM30.42 858.763C30.42 860.779 29.9813 862.496 29.104 863.915C28.2173 865.333 26.9853 866.421 25.408 867.177C23.8307 867.923 22.0013 868.297 19.92 868.297C17.8387 868.297 16.0093 867.923 14.432 867.177C12.8547 866.421 11.6273 865.333 10.75 863.915C9.86333 862.496 9.42 860.779 9.42 858.763C9.42 856.756 9.86333 855.043 10.75 853.625C11.6273 852.197 12.8547 851.109 14.432 850.363C16.0093 849.616 17.8387 849.243 19.92 849.243C22.0013 849.243 23.8307 849.616 25.408 850.363C26.9853 851.109 28.2173 852.197 29.104 853.625C29.9813 855.043 30.42 856.756 30.42 858.763ZM27.634 858.763C27.6527 857.335 27.34 856.149 26.696 855.207C26.0427 854.255 25.1373 853.541 23.98 853.065C22.8133 852.589 21.46 852.351 19.92 852.351C18.38 852.351 17.036 852.589 15.888 853.065C14.7307 853.541 13.83 854.255 13.186 855.207C12.542 856.149 12.2153 857.335 12.206 858.763C12.1873 860.191 12.5 861.381 13.144 862.333C13.788 863.275 14.6933 863.985 15.86 864.461C17.0267 864.937 18.38 865.179 19.92 865.189C21.46 865.198 22.8087 864.965 23.966 864.489C25.114 864.013 26.01 863.299 26.654 862.347C27.298 861.385 27.6247 860.191 27.634 858.763ZM30 846.45H9.84L9.84 843.524H18.534L18.534 833.444H9.84V830.504H30V833.444H21.292L21.292 843.524H30V846.45ZM30 827.971H27.494C27.5407 827.495 27.5173 827.103 27.424 826.795C27.3213 826.478 27.1253 826.212 26.836 825.997C26.5373 825.783 26.108 825.601 25.548 825.451C24.988 825.293 24.2647 825.139 23.378 824.989C22.2487 824.784 21.0867 824.611 19.892 824.471C18.6973 824.331 17.512 824.215 16.336 824.121C15.1507 824.019 14.0073 823.935 12.906 823.869C11.8047 823.804 10.7827 823.753 9.84 823.715L9.84 810.485H30V813.411H12.598L12.598 820.971C13.3447 821.018 14.18 821.074 15.104 821.139C16.028 821.205 17.008 821.284 18.044 821.377C19.08 821.471 20.1487 821.587 21.25 821.727C22.3513 821.858 23.4573 822.026 24.568 822.231C25.52 822.399 26.3787 822.605 27.144 822.847C27.9093 823.09 28.5487 823.417 29.062 823.827C29.566 824.238 29.902 824.775 30.07 825.437C30.2473 826.1 30.224 826.945 30 827.971ZM30 807.956L9.84 801.404V797.19L30 790.638V793.676L11.604 799.71V798.954L30 804.918L30 807.956ZM25.45 804.554H22.706V794.026H25.45V804.554ZM30 788.126H9.84V785.158H24.82L9.84 775.232V772.264H30V775.232H15.006L30 785.158V788.126ZM8.104 780.146C8.104 780.893 7.922 781.569 7.558 782.176C7.194 782.783 6.70867 783.268 6.102 783.632C5.49533 783.996 4.81867 784.178 4.072 784.178L4.072 781.854C4.53867 781.854 4.94 781.686 5.276 781.35C5.612 781.014 5.78 780.613 5.78 780.146C5.78 779.67 5.612 779.269 5.276 778.942C4.94 778.606 4.53867 778.438 4.072 778.438L4.072 776.114C4.81867 776.114 5.49533 776.296 6.102 776.66C6.70867 777.024 7.194 777.514 7.558 778.13C7.922 778.737 8.104 779.409 8.104 780.146ZM30 768.356H9.84L9.84 765.43H18.534V755.35H9.84V752.41H30L30 755.35H21.292V765.43H30V768.356ZM30 744.272L9.84 737.72V733.506L30 726.954V729.992L11.604 736.026V735.27L30 741.234V744.272ZM25.45 740.87H22.706L22.706 730.342H25.45L25.45 740.87ZM30 724.913H27.494C27.5407 724.437 27.5173 724.045 27.424 723.737C27.3213 723.419 27.1253 723.153 26.836 722.939C26.5373 722.724 26.108 722.542 25.548 722.393C24.988 722.234 24.2647 722.08 23.378 721.931C22.2487 721.725 21.0867 721.553 19.892 721.413C18.6973 721.273 17.512 721.156 16.336 721.063C15.1507 720.96 14.0073 720.876 12.906 720.811C11.8047 720.745 10.7827 720.694 9.84 720.657L9.84 707.427H30V710.353H12.598L12.598 717.913C13.3447 717.959 14.18 718.015 15.104 718.081C16.028 718.146 17.008 718.225 18.044 718.319C19.08 718.412 20.1487 718.529 21.25 718.669C22.3513 718.799 23.4573 718.967 24.568 719.173C25.52 719.341 26.3787 719.546 27.144 719.789C27.9093 720.031 28.5487 720.358 29.062 720.769C29.566 721.179 29.902 721.716 30.07 722.379C30.2473 723.041 30.224 723.886 30 724.913ZM30 703.511H9.84V700.585H17.078V695.363C17.078 695.176 17.0873 694.938 17.106 694.649C17.1153 694.35 17.1433 694.075 17.19 693.823C17.3673 692.703 17.75 691.77 18.338 691.023C18.926 690.267 19.668 689.702 20.564 689.329C21.46 688.946 22.454 688.755 23.546 688.755C24.6287 688.755 25.618 688.942 26.514 689.315C27.41 689.688 28.152 690.253 28.74 691.009C29.328 691.756 29.7107 692.694 29.888 693.823C29.9253 694.075 29.9533 694.346 29.972 694.635C29.9907 694.924 30 695.167 30 695.363L30 703.511ZM27.242 700.585V695.475C27.242 695.298 27.2327 695.097 27.214 694.873C27.1953 694.64 27.158 694.42 27.102 694.215C26.962 693.608 26.7053 693.128 26.332 692.773C25.9493 692.409 25.5153 692.148 25.03 691.989C24.5353 691.821 24.0407 691.737 23.546 691.737C23.0513 691.737 22.5567 691.821 22.062 691.989C21.5673 692.148 21.1333 692.409 20.76 692.773C20.3773 693.128 20.116 693.608 19.976 694.215C19.92 694.42 19.8873 694.64 19.878 694.873C19.8593 695.097 19.85 695.298 19.85 695.475V700.585H27.242ZM30 685.669H9.84L9.84 672.523H12.598L12.598 682.743H17.456V677.521C17.456 677.334 17.4653 677.096 17.484 676.807C17.4933 676.508 17.5167 676.228 17.554 675.967C17.6847 674.875 18.0393 673.956 18.618 673.209C19.1967 672.453 19.9293 671.884 20.816 671.501C21.7027 671.109 22.6733 670.913 23.728 670.913C24.7827 670.913 25.7533 671.104 26.64 671.487C27.5267 671.87 28.2593 672.439 28.838 673.195C29.4167 673.942 29.7713 674.866 29.902 675.967C29.9393 676.228 29.9673 676.504 29.986 676.793C29.9953 677.082 30 677.325 30 677.521L30 685.669ZM27.242 682.743V677.633C27.242 677.446 27.2327 677.241 27.214 677.017C27.1953 676.784 27.1673 676.564 27.13 676.359C26.9433 675.454 26.514 674.819 25.842 674.455C25.17 674.082 24.4653 673.895 23.728 673.895C22.9813 673.895 22.2767 674.082 21.614 674.455C20.942 674.819 20.5127 675.454 20.326 676.359C20.2793 676.564 20.2513 676.784 20.242 677.017C20.2233 677.241 20.214 677.446 20.214 677.633V682.743H27.242ZM30.42 659.7C30.42 661.716 29.9813 663.434 29.104 664.852C28.2173 666.271 26.9853 667.358 25.408 668.114C23.8307 668.861 22.0013 669.234 19.92 669.234C17.8387 669.234 16.0093 668.861 14.432 668.114C12.8547 667.358 11.6273 666.271 10.75 664.852C9.86333 663.434 9.42 661.716 9.42 659.7C9.42 657.694 9.86333 655.981 10.75 654.562C11.6273 653.134 12.8547 652.047 14.432 651.3C16.0093 650.554 17.8387 650.18 19.92 650.18C22.0013 650.18 23.8307 650.554 25.408 651.3C26.9853 652.047 28.2173 653.134 29.104 654.562C29.9813 655.981 30.42 657.694 30.42 659.7ZM27.634 659.7C27.6527 658.272 27.34 657.087 26.696 656.144C26.0427 655.192 25.1373 654.478 23.98 654.002C22.8133 653.526 21.46 653.288 19.92 653.288C18.38 653.288 17.036 653.526 15.888 654.002C14.7307 654.478 13.83 655.192 13.186 656.144C12.542 657.087 12.2153 658.272 12.206 659.7C12.1873 661.128 12.5 662.318 13.144 663.27C13.788 664.213 14.6933 664.922 15.86 665.398C17.0267 665.874 18.38 666.117 19.92 666.126C21.46 666.136 22.8087 665.902 23.966 665.426C25.114 664.95 26.01 664.236 26.654 663.284C27.298 662.323 27.6247 661.128 27.634 659.7ZM30 647.388H9.84L9.84 644.742L25.002 637.434L9.84 630.168L9.84 627.494H29.986V630.266H16.196L30 636.776V638.106L16.196 644.63H30V647.388ZM22.342 618.246H19.99L19.99 606.486H22.342L22.342 618.246ZM30.42 588.825C30.42 590.841 29.9813 592.559 29.104 593.977C28.2173 595.396 26.9853 596.483 25.408 597.239C23.8307 597.986 22.0013 598.359 19.92 598.359C17.8387 598.359 16.0093 597.986 14.432 597.239C12.8547 596.483 11.6273 595.396 10.75 593.977C9.86333 592.559 9.42 590.841 9.42 588.825C9.42 586.819 9.86333 585.106 10.75 583.687C11.6273 582.259 12.8547 581.172 14.432 580.425C16.0093 579.679 17.8387 579.305 19.92 579.305C22.0013 579.305 23.8307 579.679 25.408 580.425C26.9853 581.172 28.2173 582.259 29.104 583.687C29.9813 585.106 30.42 586.819 30.42 588.825ZM27.634 588.825C27.6527 587.397 27.34 586.212 26.696 585.269C26.0427 584.317 25.1373 583.603 23.98 583.127C22.8133 582.651 21.46 582.413 19.92 582.413C18.38 582.413 17.036 582.651 15.888 583.127C14.7307 583.603 13.83 584.317 13.186 585.269C12.542 586.212 12.2153 587.397 12.206 588.825C12.1873 590.253 12.5 591.443 13.144 592.395C13.788 593.338 14.6933 594.047 15.86 594.523C17.0267 594.999 18.38 595.242 19.92 595.251C21.46 595.261 22.8087 595.027 23.966 594.551C25.114 594.075 26.01 593.361 26.654 592.409C27.298 591.448 27.6247 590.253 27.634 588.825ZM30 576.513H9.84L9.84 573.867L25.002 566.559L9.84 559.293L9.84 556.619H29.986V559.391H16.196L30 565.901V567.231L16.196 573.755H30V576.513ZM30 552.696H9.84V550.05L25.002 542.742L9.84 535.476V532.802H29.986V535.574H16.196L30 542.084V543.414L16.196 549.938H30V552.696ZM30 523.274H9.84V520.348H18.534L18.534 510.268H9.84V507.328H30V510.268H21.292L21.292 520.348H30V523.274ZM30.42 494.981C30.42 496.997 29.9813 498.715 29.104 500.133C28.2173 501.552 26.9853 502.639 25.408 503.395C23.8307 504.142 22.0013 504.515 19.92 504.515C17.8387 504.515 16.0093 504.142 14.432 503.395C12.8547 502.639 11.6273 501.552 10.75 500.133C9.86333 498.715 9.42 496.997 9.42 494.981C9.42 492.975 9.86333 491.262 10.75 489.843C11.6273 488.415 12.8547 487.328 14.432 486.581C16.0093 485.835 17.8387 485.461 19.92 485.461C22.0013 485.461 23.8307 485.835 25.408 486.581C26.9853 487.328 28.2173 488.415 29.104 489.843C29.9813 491.262 30.42 492.975 30.42 494.981ZM27.634 494.981C27.6527 493.553 27.34 492.368 26.696 491.425C26.0427 490.473 25.1373 489.759 23.98 489.283C22.8133 488.807 21.46 488.569 19.92 488.569C18.38 488.569 17.036 488.807 15.888 489.283C14.7307 489.759 13.83 490.473 13.186 491.425C12.542 492.368 12.2153 493.553 12.206 494.981C12.1873 496.409 12.5 497.599 13.144 498.551C13.788 499.494 14.6933 500.203 15.86 500.679C17.0267 501.155 18.38 501.398 19.92 501.407C21.46 501.417 22.8087 501.183 23.966 500.707C25.114 500.231 26.01 499.517 26.654 498.565C27.298 497.604 27.6247 496.409 27.634 494.981ZM30 482.669H9.84V480.023L25.002 472.715L9.84 465.449V462.775H29.986V465.547H16.196L30 472.057V473.387L16.196 479.911H30V482.669ZM22.342 453.527H19.99V441.767H22.342V453.527ZM30.42 429.712C30.42 431.728 29.9813 433.445 29.104 434.864C28.2173 436.283 26.9853 437.37 25.408 438.126C23.8307 438.873 22.0013 439.246 19.92 439.246C17.8387 439.246 16.0093 438.873 14.432 438.126C12.8547 437.37 11.6273 436.283 10.75 434.864C9.86333 433.445 9.42 431.728 9.42 429.712C9.42 427.705 9.86333 425.993 10.75 424.574C11.6273 423.146 12.8547 422.059 14.432 421.312C16.0093 420.565 17.8387 420.192 19.92 420.192C22.0013 420.192 23.8307 420.565 25.408 421.312C26.9853 422.059 28.2173 423.146 29.104 424.574C29.9813 425.993 30.42 427.705 30.42 429.712ZM27.634 429.712C27.6527 428.284 27.34 427.099 26.696 426.156C26.0427 425.204 25.1373 424.49 23.98 424.014C22.8133 423.538 21.46 423.3 19.92 423.3C18.38 423.3 17.036 423.538 15.888 424.014C14.7307 424.49 13.83 425.204 13.186 426.156C12.542 427.099 12.2153 428.284 12.206 429.712C12.1873 431.14 12.5 432.33 13.144 433.282C13.788 434.225 14.6933 434.934 15.86 435.41C17.0267 435.886 18.38 436.129 19.92 436.138C21.46 436.147 22.8087 435.914 23.966 435.438C25.114 434.962 26.01 434.248 26.654 433.296C27.298 432.335 27.6247 431.14 27.634 429.712ZM30 417.399H9.84V414.473H18.534L18.534 404.393H9.84L9.84 401.453H30V404.393H21.292L21.292 414.473H30V417.399ZM30 398.92H27.494C27.5407 398.444 27.5173 398.052 27.424 397.744C27.3213 397.427 27.1253 397.161 26.836 396.946C26.5373 396.732 26.108 396.55 25.548 396.4C24.988 396.242 24.2647 396.088 23.378 395.938C22.2487 395.733 21.0867 395.56 19.892 395.42C18.6973 395.28 17.512 395.164 16.336 395.07C15.1507 394.968 14.0073 394.884 12.906 394.818C11.8047 394.753 10.7827 394.702 9.84 394.664L9.84 381.434H30V384.36H12.598V391.92C13.3447 391.967 14.18 392.023 15.104 392.088C16.028 392.154 17.008 392.233 18.044 392.326C19.08 392.42 20.1487 392.536 21.25 392.676C22.3513 392.807 23.4573 392.975 24.568 393.18C25.52 393.348 26.3787 393.554 27.144 393.796C27.9093 394.039 28.5487 394.366 29.062 394.776C29.566 395.187 29.902 395.724 30.07 396.386C30.2473 397.049 30.224 397.894 30 398.92ZM30 378.905L9.84 372.353V368.139L30 361.587V364.625L11.604 370.659V369.903L30 375.867V378.905ZM25.45 375.503H22.706L22.706 364.975H25.45L25.45 375.503ZM30 359.075H9.84L9.84 356.107H24.82L9.84 346.181V343.213H30V346.181H15.006L30 356.107V359.075ZM8.104 351.095C8.104 351.842 7.922 352.518 7.558 353.125C7.194 353.732 6.70867 354.217 6.102 354.581C5.49533 354.945 4.81867 355.127 4.072 355.127V352.803C4.53867 352.803 4.94 352.635 5.276 352.299C5.612 351.963 5.78 351.562 5.78 351.095C5.78 350.619 5.612 350.218 5.276 349.891C4.94 349.555 4.53867 349.387 4.072 349.387L4.072 347.063C4.81867 347.063 5.49533 347.245 6.102 347.609C6.70867 347.973 7.194 348.463 7.558 349.079C7.922 349.686 8.104 350.358 8.104 351.095ZM30 339.306H9.84V336.38H18.534L18.534 326.3H9.84V323.36H30V326.3H21.292L21.292 336.38H30V339.306ZM30 315.221L9.84 308.669L9.84 304.455L30 297.903V300.941L11.604 306.975V306.219L30 312.183V315.221ZM25.45 311.819H22.706L22.706 301.291H25.45L25.45 311.819ZM30 295.862H27.494C27.5407 295.386 27.5173 294.994 27.424 294.686C27.3213 294.369 27.1253 294.103 26.836 293.888C26.5373 293.673 26.108 293.491 25.548 293.342C24.988 293.183 24.2647 293.029 23.378 292.88C22.2487 292.675 21.0867 292.502 19.892 292.362C18.6973 292.222 17.512 292.105 16.336 292.012C15.1507 291.909 14.0073 291.825 12.906 291.76C11.8047 291.695 10.7827 291.643 9.84 291.606L9.84 278.376H30V281.302H12.598L12.598 288.862C13.3447 288.909 14.18 288.965 15.104 289.03C16.028 289.095 17.008 289.175 18.044 289.268C19.08 289.361 20.1487 289.478 21.25 289.618C22.3513 289.749 23.4573 289.917 24.568 290.122C25.52 290.29 26.3787 290.495 27.144 290.738C27.9093 290.981 28.5487 291.307 29.062 291.718C29.566 292.129 29.902 292.665 30.07 293.328C30.2473 293.991 30.224 294.835 30 295.862ZM30 274.46H9.84V271.534H17.078L17.078 266.312C17.078 266.126 17.0873 265.888 17.106 265.598C17.1153 265.3 17.1433 265.024 17.19 264.772C17.3673 263.652 17.75 262.719 18.338 261.972C18.926 261.216 19.668 260.652 20.564 260.278C21.46 259.896 22.454 259.704 23.546 259.704C24.6287 259.704 25.618 259.891 26.514 260.264C27.41 260.638 28.152 261.202 28.74 261.958C29.328 262.705 29.7107 263.643 29.888 264.772C29.9253 265.024 29.9533 265.295 29.972 265.584C29.9907 265.874 30 266.116 30 266.312L30 274.46ZM27.242 271.534L27.242 266.424C27.242 266.247 27.2327 266.046 27.214 265.822C27.1953 265.589 27.158 265.37 27.102 265.164C26.962 264.558 26.7053 264.077 26.332 263.722C25.9493 263.358 25.5153 263.097 25.03 262.938C24.5353 262.77 24.0407 262.686 23.546 262.686C23.0513 262.686 22.5567 262.77 22.062 262.938C21.5673 263.097 21.1333 263.358 20.76 263.722C20.3773 264.077 20.116 264.558 19.976 265.164C19.92 265.37 19.8873 265.589 19.878 265.822C19.8593 266.046 19.85 266.247 19.85 266.424L19.85 271.534H27.242ZM30 256.618H9.84L9.84 243.472H12.598L12.598 253.692H17.456L17.456 248.47C17.456 248.283 17.4653 248.045 17.484 247.756C17.4933 247.457 17.5167 247.177 17.554 246.916C17.6847 245.824 18.0393 244.905 18.618 244.158C19.1967 243.402 19.9293 242.833 20.816 242.45C21.7027 242.058 22.6733 241.862 23.728 241.862C24.7827 241.862 25.7533 242.053 26.64 242.436C27.5267 242.819 28.2593 243.388 28.838 244.144C29.4167 244.891 29.7713 245.815 29.902 246.916C29.9393 247.177 29.9673 247.453 29.986 247.742C29.9953 248.031 30 248.274 30 248.47L30 256.618ZM27.242 253.692L27.242 248.582C27.242 248.395 27.2327 248.19 27.214 247.966C27.1953 247.733 27.1673 247.513 27.13 247.308C26.9433 246.403 26.514 245.768 25.842 245.404C25.17 245.031 24.4653 244.844 23.728 244.844C22.9813 244.844 22.2767 245.031 21.614 245.404C20.942 245.768 20.5127 246.403 20.326 247.308C20.2793 247.513 20.2513 247.733 20.242 247.966C20.2233 248.19 20.214 248.395 20.214 248.582L20.214 253.692H27.242ZM30.42 230.649C30.42 232.665 29.9813 234.383 29.104 235.801C28.2173 237.22 26.9853 238.307 25.408 239.063C23.8307 239.81 22.0013 240.183 19.92 240.183C17.8387 240.183 16.0093 239.81 14.432 239.063C12.8547 238.307 11.6273 237.22 10.75 235.801C9.86333 234.383 9.42 232.665 9.42 230.649C9.42 228.643 9.86333 226.93 10.75 225.511C11.6273 224.083 12.8547 222.996 14.432 222.249C16.0093 221.503 17.8387 221.129 19.92 221.129C22.0013 221.129 23.8307 221.503 25.408 222.249C26.9853 222.996 28.2173 224.083 29.104 225.511C29.9813 226.93 30.42 228.643 30.42 230.649ZM27.634 230.649C27.6527 229.221 27.34 228.036 26.696 227.093C26.0427 226.141 25.1373 225.427 23.98 224.951C22.8133 224.475 21.46 224.237 19.92 224.237C18.38 224.237 17.036 224.475 15.888 224.951C14.7307 225.427 13.83 226.141 13.186 227.093C12.542 228.036 12.2153 229.221 12.206 230.649C12.1873 232.077 12.5 233.267 13.144 234.219C13.788 235.162 14.6933 235.871 15.86 236.347C17.0267 236.823 18.38 237.066 19.92 237.075C21.46 237.085 22.8087 236.851 23.966 236.375C25.114 235.899 26.01 235.185 26.654 234.233C27.298 233.272 27.6247 232.077 27.634 230.649ZM30 218.337H9.84V215.691L25.002 208.383L9.84 201.117V198.443H29.986V201.215H16.196L30 207.725V209.055L16.196 215.579H30V218.337ZM22.342 189.195H19.99L19.99 177.435H22.342L22.342 189.195ZM30.42 159.774C30.42 161.79 29.9813 163.508 29.104 164.926C28.2173 166.345 26.9853 167.432 25.408 168.188C23.8307 168.935 22.0013 169.308 19.92 169.308C17.8387 169.308 16.0093 168.935 14.432 168.188C12.8547 167.432 11.6273 166.345 10.75 164.926C9.86333 163.508 9.42 161.79 9.42 159.774C9.42 157.768 9.86333 156.055 10.75 154.636C11.6273 153.208 12.8547 152.121 14.432 151.374C16.0093 150.628 17.8387 150.254 19.92 150.254C22.0013 150.254 23.8307 150.628 25.408 151.374C26.9853 152.121 28.2173 153.208 29.104 154.636C29.9813 156.055 30.42 157.768 30.42 159.774ZM27.634 159.774C27.6527 158.346 27.34 157.161 26.696 156.218C26.0427 155.266 25.1373 154.552 23.98 154.076C22.8133 153.6 21.46 153.362 19.92 153.362C18.38 153.362 17.036 153.6 15.888 154.076C14.7307 154.552 13.83 155.266 13.186 156.218C12.542 157.161 12.2153 158.346 12.206 159.774C12.1873 161.202 12.5 162.392 13.144 163.344C13.788 164.287 14.6933 164.996 15.86 165.472C17.0267 165.948 18.38 166.191 19.92 166.2C21.46 166.21 22.8087 165.976 23.966 165.5C25.114 165.024 26.01 164.31 26.654 163.358C27.298 162.397 27.6247 161.202 27.634 159.774ZM30 147.462H9.84V144.816L25.002 137.508L9.84 130.242V127.568H29.986V130.34H16.196L30 136.85V138.18L16.196 144.704H30V147.462ZM30 123.645H9.84L9.84 120.999L25.002 113.691L9.84 106.425L9.84 103.751H29.986V106.523H16.196L30 113.033V114.363L16.196 120.887H30V123.645ZM30 94.2236H9.84V91.2976H18.534V81.2176H9.84L9.84 78.2776H30V81.2176H21.292V91.2976H30L30 94.2236ZM30.42 65.9307C30.42 67.9467 29.9813 69.664 29.104 71.0827C28.2173 72.5014 26.9853 73.5887 25.408 74.3447C23.8307 75.0914 22.0013 75.4647 19.92 75.4647C17.8387 75.4647 16.0093 75.0914 14.432 74.3447C12.8547 73.5887 11.6273 72.5014 10.75 71.0827C9.86333 69.664 9.42 67.9467 9.42 65.9307C9.42 63.924 9.86333 62.2114 10.75 60.7927C11.6273 59.3647 12.8547 58.2774 14.432 57.5307C16.0093 56.784 17.8387 56.4107 19.92 56.4107C22.0013 56.4107 23.8307 56.784 25.408 57.5307C26.9853 58.2774 28.2173 59.3647 29.104 60.7927C29.9813 62.2114 30.42 63.924 30.42 65.9307ZM27.634 65.9307C27.6527 64.5027 27.34 63.3174 26.696 62.3747C26.0427 61.4227 25.1373 60.7087 23.98 60.2327C22.8133 59.7567 21.46 59.5187 19.92 59.5187C18.38 59.5187 17.036 59.7567 15.888 60.2327C14.7307 60.7087 13.83 61.4227 13.186 62.3747C12.542 63.3174 12.2153 64.5027 12.206 65.9307C12.1873 67.3587 12.5 68.5487 13.144 69.5007C13.788 70.4434 14.6933 71.1527 15.86 71.6287C17.0267 72.1047 18.38 72.3474 19.92 72.3567C21.46 72.366 22.8087 72.1327 23.966 71.6567C25.114 71.1807 26.01 70.4667 26.654 69.5147C27.298 68.5534 27.6247 67.3587 27.634 65.9307ZM30 53.6181H9.84L9.84 50.9721L25.002 43.6641L9.84 36.3981L9.84 33.7241H29.986V36.4961H16.196L30 43.0061V44.3361L16.196 50.8601H30V53.6181ZM22.342 24.4762H19.99L19.99 12.7162H22.342L22.342 24.4762Z" fill="white"/>
</svg>
