<svg width="45" height="44" viewBox="0 0 45 44" fill="none" xmlns="http://www.w3.org/2000/svg">
<path d="M22.4932 0.421875C10.5218 0.421875 0.800781 10.1661 0.800781 22.1143C0.800781 34.0858 10.545 43.8068 22.4932 43.8068C34.4647 43.8068 44.1857 34.0626 44.1857 22.1143C44.2089 10.1429 34.4647 0.421875 22.4932 0.421875ZM22.4932 41.3475C17.6443 41.3475 13.213 39.5379 9.80257 36.545L17.6211 28.7265H15.4635C15.0923 28.7265 14.7675 28.5641 14.5587 28.2857L8.06253 34.7818C5.09287 31.3945 3.26003 26.9632 3.26003 22.0911C3.28323 11.5117 11.8906 2.90433 22.4932 2.90433C27.3421 2.90433 31.7966 4.71396 35.1839 7.70683L28.1773 14.7134C28.1773 14.7134 27.7829 15.1078 27.5277 15.363H27.6437C28.2934 15.363 28.8038 15.8734 28.8038 16.523V17.5902L36.9471 9.47006C39.9168 12.8341 41.7264 17.2654 41.7264 22.1143C41.7264 32.7169 33.0959 41.3475 22.4932 41.3475Z" fill="#17239A"/>
<path d="M14.0251 18.1929C14.0251 18.0537 14.0019 17.8681 14.0019 17.6361C13.9787 17.4273 13.9555 17.2648 13.9323 17.172C13.8859 17.0792 13.8395 16.9632 13.7699 16.8704C13.7003 16.7544 13.6307 16.6848 13.5147 16.6616C13.3987 16.6152 13.2827 16.6152 13.1203 16.6152H8.71221C7.57539 16.6152 6.85617 16.6848 6.57776 16.8008C6.29936 16.9168 6.16016 17.288 6.16016 17.9145V27.5891H8.71221V18.8889H14.0483C14.0483 18.5641 14.0251 18.3321 14.0251 18.1929Z" fill="#17239A"/>
<path d="M24.1379 17.1016C25.0659 16.7072 26.8674 16.1513 27.618 16.679C28.3686 17.2067 27.618 26.3586 27.618 26.3586C27.618 26.985 27.502 27.3562 27.27 27.4722C27.038 27.5882 26.3652 27.6578 25.2515 27.6578V20.5585C24.4627 22.6697 23.6275 24.549 22.7691 26.2194C22.1195 26.4746 21.3307 26.6138 20.3562 26.637C19.405 24.665 18.5698 22.6233 17.8506 20.4889V27.5882H15.4609V17.1248C16.2962 16.7536 17.4562 16.5448 18.8946 16.4984C19.753 19.1896 20.6346 21.5329 21.5627 23.5281C22.5371 21.5561 23.3723 19.4217 24.1379 17.1016Z" fill="#17239A"/>
<path d="M38.9221 17.8449C37.9477 16.8937 36.6021 16.4297 34.8852 16.4297C33.1684 16.4297 31.8228 16.8937 30.8483 17.8449C29.8739 18.7961 29.3867 20.0954 29.3867 21.7658C29.3867 23.4826 29.8971 24.8979 30.9179 26.0347C31.9388 27.1715 33.2612 27.7283 34.8852 27.7283C36.5093 27.7283 37.8317 27.1715 38.8525 26.0347C39.8733 24.8979 40.3837 23.4826 40.3837 21.7658C40.3837 20.0954 39.8965 18.7961 38.9221 17.8449ZM36.9501 24.5267C36.4165 25.2459 35.7436 25.5939 34.862 25.5939C34.0036 25.5939 33.3076 25.2459 32.774 24.5267C32.2404 23.8074 31.9852 22.9026 31.9852 21.789C31.9852 20.7682 32.2404 19.9794 32.7276 19.3993C33.2148 18.8425 33.934 18.5641 34.8388 18.5641C35.7669 18.5641 36.4629 18.8425 36.9501 19.3993C37.4373 19.9562 37.6925 20.745 37.6925 21.789C37.7389 22.8794 37.4837 23.8074 36.9501 24.5267Z" fill="#17239A"/>
</svg>
