<svg width="37" height="36" viewBox="0 0 37 36" fill="none" xmlns="http://www.w3.org/2000/svg">
<path fill-rule="evenodd" clip-rule="evenodd" d="M18.4658 2.21378C9.88163 2.21378 2.92277 9.17264 2.92277 17.7568C2.92277 26.341 9.88163 33.2999 18.4658 33.2999C27.05 33.2999 34.0089 26.341 34.0089 17.7568C34.0089 9.17264 27.05 2.21378 18.4658 2.21378ZM0.769531 17.7568C0.769531 7.98345 8.69243 0.0605469 18.4658 0.0605469C28.2392 0.0605469 36.1621 7.98345 36.1621 17.7568C36.1621 27.5302 28.2392 35.4531 18.4658 35.4531C8.69243 35.4531 0.769531 27.5302 0.769531 17.7568Z" fill="#CFD2D8"/>
<path d="M9.27734 16.1056C9.27734 16.1231 9.27734 16.1231 9.29491 16.1407C9.29491 16.1758 9.31248 16.1934 9.33005 16.2285C9.33005 16.2461 9.34762 16.2461 9.34762 16.2637C9.36519 16.2812 9.36519 16.3164 9.38275 16.334C9.40032 16.3691 9.43546 16.4042 9.4706 16.4394L12.3167 19.2854C12.3518 19.3206 12.3869 19.3381 12.4221 19.3733C12.4396 19.3908 12.4572 19.3908 12.4748 19.4084C12.4924 19.426 12.5099 19.426 12.5275 19.4436C12.5451 19.4436 12.5626 19.4611 12.5978 19.4611C12.6153 19.4611 12.6329 19.4787 12.6505 19.4787C12.6856 19.4787 12.7207 19.4963 12.7734 19.4963C12.7734 19.4963 12.7734 19.4963 12.791 19.4963C12.8789 19.4963 13.8275 19.4787 15.3384 19.1449C15.0046 20.6558 14.9871 21.622 14.9871 21.6923C14.9871 21.7274 14.9871 21.7801 15.0046 21.8153C15.0046 21.8328 15.0046 21.8328 15.0222 21.8504C15.0222 21.8856 15.0398 21.9031 15.0573 21.9383C15.0573 21.9558 15.0749 21.9558 15.0749 21.9734C15.0925 21.991 15.0925 22.0261 15.11 22.0437C15.1276 22.0788 15.1627 22.1139 15.1979 22.1491L18.0088 24.9776C18.044 25.0127 18.0791 25.0303 18.1142 25.0654C18.1142 25.0654 18.1318 25.0654 18.1318 25.083C18.1669 25.1006 18.1845 25.1181 18.2196 25.1357C18.2899 25.1708 18.3778 25.1884 18.4656 25.1884C18.5359 25.1884 19.5021 25.1708 21.013 24.837C20.6792 26.3479 20.6616 27.3142 20.6616 27.3844C20.6616 27.5601 20.7319 27.7183 20.8549 27.8412L21.9441 28.9305C22.3131 29.2994 22.7698 29.4927 23.2618 29.4927C23.4374 29.4927 23.6131 29.4751 23.8064 29.4224C24.474 29.2291 24.9659 28.7021 25.124 28.0169C25.4402 26.629 26.1078 24.4505 27.566 22.0261V22.0085C27.5836 21.991 27.5836 21.9558 27.6011 21.9383V21.9207C27.6187 21.8856 27.6187 21.868 27.6187 21.8328V21.8153C27.6187 21.7977 27.6187 21.7977 27.6187 21.7801C27.6187 21.7626 27.6187 21.7626 27.6187 21.745V21.7274C27.6187 21.6923 27.6187 21.6572 27.6187 21.6396V21.622C27.6187 21.5869 27.6011 21.5693 27.6011 21.5518V21.5342C27.5836 21.499 27.5836 21.4815 27.566 21.4463C27.5484 21.4112 27.5309 21.3936 27.5133 21.3761L27.4957 21.3585C27.4782 21.3234 27.4606 21.3058 27.4255 21.2882L24.5794 18.4422C24.5618 18.4246 24.5267 18.407 24.5091 18.3894L24.4915 18.3719C24.474 18.3543 24.4388 18.3367 24.4213 18.3367C24.4213 18.3367 24.4213 18.3367 24.4037 18.3367C24.3686 18.3192 24.351 18.3192 24.3159 18.3016H24.2983C24.2807 18.3016 24.2456 18.284 24.2105 18.284H24.1929C24.1577 18.284 24.1226 18.284 24.105 18.284H24.0875C24.0699 18.284 24.0699 18.284 24.0523 18.284C24.0348 18.284 24.0348 18.284 24.0172 18.284C23.9996 18.284 23.9996 18.284 23.9821 18.284C23.9469 18.284 23.9294 18.3016 23.8942 18.3016H23.8767C23.8591 18.3192 23.8239 18.3192 23.8064 18.3367H23.7888C22.8928 18.8814 21.9617 19.3557 21.0306 19.7422C20.7319 19.8652 20.5738 20.1814 20.6616 20.4977C20.6616 20.5328 20.6792 20.5679 20.6968 20.6031C20.8373 20.9369 21.2238 21.095 21.5401 20.9544C21.8739 20.8139 22.2077 20.6558 22.5415 20.4977C22.032 21.5693 21.6455 22.5707 21.3644 23.4667C20.4157 23.7302 19.6427 23.8356 19.1332 23.9059C19.2035 23.2383 19.3967 22.1139 19.8535 20.7085C20.2576 19.4611 20.89 17.9854 21.8387 16.3867V16.3691C21.8563 16.3515 21.8563 16.3164 21.8739 16.2988V16.2812C21.8914 16.2461 21.8914 16.2285 21.909 16.1934V16.1758C21.909 16.1583 21.909 16.1583 21.909 16.1407C21.909 16.1231 21.909 16.1231 21.909 16.1056V16.088C21.909 16.0529 21.909 16.0177 21.909 16.0002V15.9826C21.909 15.9474 21.8914 15.9299 21.8914 15.9123V15.8947C21.8739 15.8596 21.8739 15.842 21.8563 15.8069C21.8563 15.8069 21.8563 15.8069 21.8563 15.7893C21.8387 15.7718 21.8212 15.7366 21.8212 15.7191L21.8036 15.7015C21.786 15.6839 21.7684 15.6488 21.7333 15.6312L18.8872 12.7851C18.8697 12.7676 18.8345 12.75 18.817 12.7149L18.7994 12.6973C18.7818 12.6797 18.7467 12.6622 18.7291 12.6446C18.694 12.627 18.6764 12.627 18.6413 12.6095H18.6237C18.5886 12.6095 18.571 12.5919 18.5359 12.5919C18.5359 12.5919 18.5359 12.5919 18.5183 12.5919C18.4832 12.5919 18.448 12.5919 18.4305 12.5919H18.4129C18.3953 12.5919 18.3953 12.5919 18.3778 12.5919C18.3602 12.5919 18.3602 12.5919 18.3426 12.5919H18.3251C18.2899 12.5919 18.2723 12.6095 18.2372 12.627H18.2196C18.2021 12.6446 18.1669 12.6446 18.1494 12.6622C18.1494 12.6622 18.1494 12.6622 18.1318 12.6622C17.2358 13.2068 16.3047 13.6811 15.3736 14.0676C15.0749 14.1906 14.9168 14.5068 15.0046 14.8231C15.0046 14.8582 15.0222 14.8933 15.0398 14.9285C15.1803 15.2623 15.5668 15.4204 15.883 15.2798C16.2168 15.1393 16.5506 14.9812 16.8844 14.8231C16.375 15.8947 15.9885 16.8961 15.7074 17.7921C14.7587 18.0557 13.9857 18.1786 13.4762 18.2313C13.5465 17.5637 13.7397 16.4394 14.1965 15.0339C14.6006 13.7865 15.233 12.3108 16.1817 10.7121C16.3398 10.4661 16.2871 10.1323 16.0763 9.9215L14.3897 8.23494C13.9505 7.79573 13.3708 7.60248 12.7559 7.70789C12.141 7.8133 11.6491 8.18223 11.368 8.72685C9.29491 12.75 9.27734 15.842 9.27734 15.9826C9.27734 16.0177 9.27734 16.0529 9.27734 16.1056ZM12.9667 8.88497C13.16 8.84983 13.3356 8.9201 13.4762 9.04308L14.8114 10.3783C13.1072 13.3473 12.4924 15.8947 12.264 17.3881L10.5774 15.7191C10.6301 14.9285 10.9288 12.3811 12.5275 9.2012C12.6153 9.04308 12.7734 8.9201 12.9667 8.88497ZM18.6061 14.1906L20.5035 16.088C18.817 19.0395 18.1845 21.6045 17.9561 23.0978L16.2871 21.4288C16.3223 20.5679 16.6561 17.7043 18.6061 14.1906ZM24.2983 19.8828L26.1957 21.7801C24.8253 24.187 24.1577 26.3128 23.8591 27.7183C23.7888 28.0169 23.5429 28.1223 23.455 28.1575C23.3496 28.1926 23.1036 28.2277 22.8753 27.9993L21.9793 27.1034C22.032 26.2601 22.3658 23.3964 24.2983 19.8828Z" fill="#CFD2D8"/>
</svg>
