<svg width="45" height="45" viewBox="0 0 45 45" fill="none" xmlns="http://www.w3.org/2000/svg">
<path d="M22.9479 0.888672C10.8053 0.888672 0.945312 10.7722 0.945312 22.8913C0.945312 35.0103 10.8288 44.8938 22.9479 44.8938C35.067 44.8938 44.9505 35.0103 44.9505 22.8913C44.9505 10.7722 35.0905 0.888672 22.9479 0.888672ZM22.9479 42.3994C18.0297 42.3994 13.5115 40.5639 10.0758 37.5283L14.3116 33.2925C13.888 32.4453 13.6056 31.5511 13.4409 30.6098L8.28735 35.7634C5.27523 32.3277 3.41619 27.833 3.41619 22.8913C3.43972 12.1371 12.1937 3.40661 22.9479 3.40661C27.8661 3.40661 32.3843 5.24213 35.82 8.27778L28.0073 16.0905C28.3838 16.8906 28.7603 17.7142 29.1133 18.5378L37.5849 10.0662C40.597 13.5019 42.4561 17.9966 42.4561 22.9383C42.4561 33.6455 33.7021 42.3994 22.9479 42.3994Z" fill="#17239A"/>
<path d="M28.4084 19.2207C28.0554 18.397 27.6789 17.5734 27.3024 16.7733C25.1139 12.1139 22.9489 8.06641 22.9489 8.06641C22.9489 8.06641 14.2891 24.2801 14.2891 29.0571C14.2891 29.2924 14.3126 29.5278 14.3126 29.7395C14.3832 30.7514 14.642 31.6927 15.0421 32.5634C16.3834 35.5991 19.4191 37.7169 22.9724 37.7169C27.7495 37.7169 31.6323 33.8341 31.6323 29.0571C31.6087 27.0804 30.1262 23.1505 28.4084 19.2207ZM25.9375 35.199C25.8198 35.2696 25.6551 35.4108 25.3963 35.5285C25.1609 35.6461 24.855 35.8108 24.502 35.9285C24.149 36.0462 23.7255 36.1638 23.2548 36.2109C23.1842 36.2109 23.1372 36.2344 23.0666 36.2344H22.9724H22.9489H22.9254H22.8783C22.7606 36.2344 22.643 36.258 22.5253 36.258C22.2665 36.258 21.9841 36.258 21.7252 36.2109C21.184 36.1403 20.5957 36.0226 20.0309 35.7873C19.7485 35.6697 19.4661 35.5285 19.1838 35.3873C18.9014 35.2225 18.6425 35.0578 18.3837 34.8696C17.866 34.4695 17.4188 33.9989 17.0188 33.4812C16.6423 32.9634 16.3128 32.3751 16.101 31.7633C16.0775 31.6927 16.054 31.6221 16.0304 31.5751C15.9598 31.3397 15.8893 31.1044 15.8187 30.8691C15.7951 30.7044 15.7481 30.5632 15.7481 30.3984C15.7481 30.3278 15.7245 30.2572 15.7245 30.1631C15.7245 30.0925 15.701 30.0219 15.701 29.9278C15.6775 29.7866 15.6775 29.6219 15.6775 29.4807C15.6775 29.4101 15.6775 29.3395 15.6775 29.2689C15.6775 29.1983 15.6775 29.1277 15.6775 29.0336C15.6775 28.963 15.6775 28.8924 15.701 28.8218C15.701 28.7512 15.7245 28.6806 15.7245 28.61C15.7481 28.4923 15.7481 28.3747 15.7716 28.2805C15.7716 28.257 15.7716 28.2335 15.7716 28.21C15.8657 27.6922 15.9598 27.1981 16.101 26.751C16.2187 26.3038 16.3599 25.9038 16.4776 25.5508C16.5952 25.1978 16.7364 24.9154 16.8305 24.6566C16.9482 24.4213 17.0423 24.233 17.0894 24.0918C17.16 23.9742 17.1835 23.9036 17.1835 23.9036C17.1835 23.9036 17.16 23.9742 17.1365 24.1154C17.1129 24.2565 17.0659 24.4683 17.0188 24.7037C16.9717 24.9625 16.9247 25.2684 16.8541 25.6449C16.807 25.9979 16.7364 26.398 16.6893 26.8451C16.6658 27.0098 16.6658 27.151 16.6423 27.3157C16.6187 27.6216 16.5952 27.9276 16.5717 28.257C16.5717 28.3747 16.5717 28.5159 16.5717 28.6335C16.5717 28.7041 16.5717 28.7512 16.5717 28.8218C16.5717 28.8924 16.5717 28.963 16.5717 29.0336C16.5717 29.1042 16.5717 29.1512 16.5952 29.2218C16.5952 29.2924 16.5952 29.3395 16.6187 29.4101C16.6423 29.5278 16.6423 29.6689 16.6658 29.7866C16.7129 30.069 16.7835 30.3749 16.8776 30.6573C16.9482 30.8691 17.0188 31.1044 17.1129 31.3162C17.3247 31.8104 17.6071 32.281 17.9365 32.7281C18.266 33.1517 18.6425 33.5518 19.0661 33.9047C19.4897 34.2577 19.9368 34.5401 20.4074 34.7519C20.5251 34.799 20.6428 34.8696 20.7604 34.9166C20.8781 34.9637 20.9957 35.0107 21.1134 35.0578C21.2311 35.1049 21.3487 35.1519 21.4664 35.1755C21.584 35.2225 21.7017 35.2461 21.8194 35.2696C22.0547 35.3167 22.29 35.3637 22.5018 35.4108C22.6195 35.4343 22.7371 35.4343 22.8548 35.4579H22.9018C22.9018 35.4579 22.9254 35.4579 22.9018 35.4579H22.9254H22.996C23.043 35.4579 23.1136 35.4579 23.1607 35.4579C23.3725 35.4579 23.5843 35.4814 23.7725 35.4579C23.9608 35.4579 24.149 35.4343 24.3373 35.4108C24.6903 35.3637 24.9962 35.3167 25.2551 35.2461C25.5139 35.1755 25.7022 35.1284 25.8434 35.0813C25.9846 35.0343 26.0552 35.0107 26.0552 35.0107C26.0552 35.0107 26.0552 35.1049 25.9375 35.199Z" fill="#17239A"/>
</svg>
