<svg width="38" height="39" viewBox="0 0 38 39" fill="none" xmlns="http://www.w3.org/2000/svg">
<path fill-rule="evenodd" clip-rule="evenodd" d="M19.0361 3.20932C9.97593 3.20932 2.63119 10.5541 2.63119 19.6143C2.63119 28.6745 9.97593 36.0192 19.0361 36.0192C28.0963 36.0192 35.4411 28.6745 35.4411 19.6143C35.4411 10.5541 28.0963 3.20932 19.0361 3.20932ZM0.417969 19.6143C0.417969 9.33173 8.7536 0.996094 19.0361 0.996094C29.3187 0.996094 37.6543 9.33173 37.6543 19.6143C37.6543 29.8968 29.3187 38.2324 19.0361 38.2324C8.7536 38.2324 0.417969 29.8968 0.417969 19.6143Z" fill="#CFD2D8"/>
<path d="M14.6256 24.6492C15.8103 25.8339 17.3837 26.4818 19.0683 26.4818C20.7343 26.4818 22.3262 25.8339 23.5109 24.6492C25.9544 22.2057 25.9544 18.2258 23.5109 15.7824L19.6606 11.9321C19.5125 11.784 19.2904 11.6914 19.0683 11.6914C18.8461 11.6914 18.6425 11.784 18.4759 11.9321L14.6256 15.7824C12.1821 18.2258 12.1821 22.2057 14.6256 24.6492ZM15.7918 23.483C13.9962 21.6874 13.9962 18.7442 15.7918 16.9486L19.0497 13.6906L22.3077 16.9486C24.1033 18.7442 24.1033 21.6874 22.3077 23.483C21.4377 24.353 20.2715 24.8343 19.0497 24.8343C17.828 24.8343 16.6618 24.353 15.7918 23.483Z" fill="#CFD2D8"/>
<path d="M21.8354 19.5215C21.3726 19.5215 21.0024 19.8917 21.0024 20.3545C21.0024 21.3911 20.1509 22.2426 19.1143 22.2426C18.6515 22.2426 18.2812 22.6128 18.2812 23.0756C18.2812 23.5384 18.6515 23.9086 19.1143 23.9086C21.0764 23.9086 22.6684 22.3167 22.6684 20.3545C22.6684 19.8917 22.2982 19.5215 21.8354 19.5215Z" fill="#CFD2D8"/>
<path d="M10.1896 16.5214C10.5228 16.5769 10.8375 16.3548 10.893 16.0401C10.9486 15.7069 10.7264 15.3922 10.4117 15.3367C10.0785 15.2811 9.76384 15.5033 9.70831 15.8179C9.65278 16.1511 9.8564 16.4658 10.1896 16.5214Z" fill="#CFD2D8"/>
<path d="M12.1862 13.4129C12.5565 13.487 12.9082 13.2278 12.9637 12.8761C13.0377 12.5059 12.7786 12.1542 12.4269 12.0986C12.0567 12.0246 11.7049 12.2837 11.6494 12.6355C11.5754 13.0057 11.8345 13.3574 12.1862 13.4129Z" fill="#CFD2D8"/>
<path d="M15.2586 11.3416C15.6659 11.4156 16.0546 11.1379 16.1287 10.7492C16.2027 10.342 15.9251 9.95322 15.5363 9.87918C15.1291 9.80513 14.7403 10.0828 14.6663 10.4715C14.5737 10.8788 14.8514 11.2675 15.2586 11.3416Z" fill="#CFD2D8"/>
<path d="M18.9238 10.6355C19.3681 10.7095 19.7939 10.4133 19.8679 9.96908C19.9419 9.52481 19.6458 9.09906 19.2015 9.02501C18.7572 8.95097 18.3315 9.24714 18.2574 9.69141C18.1834 10.1172 18.4796 10.5429 18.9238 10.6355Z" fill="#CFD2D8"/>
<path d="M22.5882 11.3756C23.0695 11.4681 23.5323 11.1349 23.6248 10.6537C23.7174 10.1724 23.3842 9.70959 22.9029 9.61703C22.4216 9.52447 21.9588 9.85768 21.8662 10.339C21.7922 10.8203 22.1069 11.283 22.5882 11.3756Z" fill="#CFD2D8"/>
<path d="M25.7571 13.4869C26.2754 13.5795 26.7752 13.2278 26.8678 12.7094C26.9603 12.1911 26.6086 11.6913 26.0903 11.5988C25.572 11.5062 25.0722 11.8579 24.9796 12.3762C24.8871 12.8946 25.2388 13.3944 25.7571 13.4869Z" fill="#CFD2D8"/>
<path d="M27.8667 16.6344C28.422 16.7455 28.9589 16.3567 29.0699 15.8014C29.181 15.246 28.7923 14.7092 28.2369 14.5982C27.6816 14.5056 27.1448 14.8758 27.0337 15.4312C26.9411 15.9865 27.3114 16.5233 27.8667 16.6344Z" fill="#CFD2D8"/>
<path d="M27.7527 19.0955C27.6416 19.6879 28.0488 20.2617 28.6412 20.3728C29.2336 20.4838 29.8074 20.0766 29.9185 19.4842C30.0295 18.8919 29.6223 18.318 29.0299 18.207C28.4376 18.1144 27.8637 18.5031 27.7527 19.0955Z" fill="#CFD2D8"/>
<path d="M27.9617 24.1147C28.5911 24.2258 29.2019 23.8 29.3315 23.1707C29.4426 22.5413 29.0168 21.9304 28.3874 21.8008C27.7581 21.6898 27.1472 22.1155 27.0176 22.7449C26.9066 23.3928 27.3323 24.0037 27.9617 24.1147Z" fill="#CFD2D8"/>
<path d="M26.3641 24.889C25.6977 24.7594 25.0498 25.2222 24.9202 25.8886C24.7907 26.555 25.2534 27.2029 25.9198 27.3325C26.5862 27.462 27.2341 26.9993 27.3637 26.3329C27.4933 25.6665 27.0305 25.0186 26.3641 24.889Z" fill="#CFD2D8"/>
<path d="M21.7594 28.0202C21.6298 28.7421 22.1111 29.4271 22.8145 29.5566C23.5365 29.6862 24.2214 29.2049 24.3509 28.5015C24.4805 27.7796 23.9992 27.0947 23.2958 26.9651C22.5739 26.8355 21.889 27.2983 21.7594 28.0202Z" fill="#CFD2D8"/>
<path d="M19.627 27.6845C18.8681 27.5549 18.1461 28.0547 18.0165 28.7952C17.887 29.5541 18.3868 30.2761 19.1272 30.4057C19.8862 30.5352 20.6081 30.0354 20.7377 29.295C20.8858 28.536 20.386 27.8141 19.627 27.6845Z" fill="#CFD2D8"/>
<path d="M14.2824 28.1114C14.1343 28.9073 14.6712 29.6663 15.4486 29.7959C16.2446 29.944 17.0036 29.4071 17.1331 28.6297C17.2812 27.8337 16.7444 27.0747 15.9669 26.9452C15.1895 26.7971 14.4305 27.3154 14.2824 28.1114Z" fill="#CFD2D8"/>
<path d="M11.0239 26.0931C10.8758 26.9261 11.4312 27.7221 12.2457 27.8702C13.0787 28.0182 13.8746 27.4629 14.0227 26.6484C14.1708 25.8154 13.6155 25.0194 12.801 24.8714C11.9865 24.7048 11.1905 25.2601 11.0239 26.0931Z" fill="#CFD2D8"/>
<path d="M10.1315 24.8362C11.0016 25.0028 11.8346 24.4104 11.9827 23.5589C12.1493 22.6889 11.5569 21.8559 10.6869 21.7078C9.81686 21.5412 8.98385 22.1335 8.83576 23.0036C8.68768 23.8366 9.26152 24.6696 10.1315 24.8362Z" fill="#CFD2D8"/>
</svg>
