<svg width="36" height="36" viewBox="0 0 36 36" fill="none" xmlns="http://www.w3.org/2000/svg">
<path fill-rule="evenodd" clip-rule="evenodd" d="M17.8135 2.71771C9.35874 2.71771 2.50482 9.57163 2.50482 18.0264C2.50482 26.4811 9.35874 33.335 17.8135 33.335C26.2682 33.335 33.1221 26.4811 33.1221 18.0264C33.1221 9.57163 26.2682 2.71771 17.8135 2.71771ZM0.117188 18.0264C0.117188 8.25298 8.04009 0.330078 17.8135 0.330078C27.5869 0.330078 35.5098 8.25298 35.5098 18.0264C35.5098 27.7998 27.5869 35.7227 17.8135 35.7227C8.04009 35.7227 0.117188 27.7998 0.117188 18.0264Z" fill="#CFD2D8"/>
<path d="M6.71875 30.2367C9.64942 32.9057 13.5395 34.528 17.8134 34.528C22.0873 34.528 25.9775 32.9057 28.9081 30.2367C25.9775 27.5676 22.0873 25.9453 17.8134 25.9453C13.5395 25.9453 9.64942 27.5676 6.71875 30.2367Z" fill="#CFD2D8"/>
<path d="M14.3622 16.0215C14.1005 15.7947 13.7342 15.69 13.2806 15.69C12.8969 15.69 12.5654 15.7598 12.3212 15.8994C12.0595 16.0389 11.8502 16.2308 11.6932 16.4576C11.5362 16.6844 11.4315 16.9635 11.3617 17.2601C11.292 17.5741 11.2571 17.8881 11.2571 18.2021C11.2571 18.4986 11.292 18.7952 11.3617 19.0743C11.4315 19.3534 11.5362 19.6151 11.6932 19.8418C11.8502 20.0686 12.0421 20.2431 12.2863 20.3826C12.5305 20.5222 12.8096 20.5919 13.1585 20.5919C13.6819 20.5919 14.1005 20.4524 14.3971 20.1733C14.6936 19.8942 14.8681 19.5104 14.9379 19.0045H16.0369C15.9147 19.8069 15.6182 20.4349 15.1472 20.8711C14.6587 21.3072 14.0133 21.5165 13.176 21.5165C12.6875 21.5165 12.2514 21.4293 11.8676 21.2723C11.4838 21.1153 11.1698 20.8885 10.9082 20.5919C10.6465 20.2954 10.4546 19.9465 10.3325 19.5453C10.2104 19.1441 10.1406 18.6905 10.1406 18.2021C10.1406 17.7136 10.2104 17.2601 10.3325 16.8414C10.4546 16.4227 10.6465 16.0564 10.9082 15.7424C11.1698 15.4284 11.4838 15.1842 11.8676 15.0097C12.2514 14.8353 12.705 14.748 13.2109 14.748C13.5772 14.748 13.9261 14.8004 14.2401 14.8876C14.5541 14.9748 14.8506 15.1144 15.0949 15.2888C15.3391 15.4807 15.5484 15.7075 15.7054 15.9866C15.8624 16.2657 15.9671 16.5972 16.002 16.9809H14.903C14.7983 16.5797 14.6239 16.2483 14.3622 16.0215Z" fill="#CFD2D8"/>
<path d="M22.2109 21.5341C21.9318 21.5341 21.7225 21.4643 21.548 21.3073C21.391 21.1503 21.3038 20.9061 21.3038 20.5397C21.0073 20.8886 20.6758 21.1503 20.2746 21.3073C19.8908 21.4643 19.4721 21.5341 19.0186 21.5341C18.722 21.5341 18.4429 21.4992 18.1812 21.4469C17.9196 21.3771 17.6928 21.2724 17.5009 21.1329C17.309 20.9933 17.152 20.8014 17.0299 20.5746C16.9252 20.3479 16.8555 20.0687 16.8555 19.7373C16.8555 19.371 16.9252 19.0744 17.0474 18.8302C17.1695 18.6034 17.3439 18.4115 17.5358 18.2545C17.7451 18.115 17.9719 17.9929 18.2336 17.9231C18.4953 17.8533 18.7744 17.7835 19.036 17.7312C19.3326 17.6789 19.6117 17.6265 19.8734 17.5916C20.135 17.5567 20.3618 17.5219 20.5711 17.4695C20.7805 17.4172 20.9375 17.33 21.0421 17.2253C21.1643 17.1206 21.2166 16.9636 21.2166 16.7717C21.2166 16.545 21.1643 16.3531 21.077 16.2135C20.9898 16.074 20.8677 15.9693 20.7456 15.8821C20.606 15.8123 20.449 15.76 20.2746 15.7251C20.1001 15.7076 19.9257 15.6902 19.7687 15.6902C19.3151 15.6902 18.9314 15.7774 18.6348 15.9518C18.3383 16.1263 18.1638 16.4403 18.1464 16.9287H17.0822C17.0997 16.5275 17.1869 16.1961 17.3265 15.917C17.4835 15.6378 17.6754 15.4111 17.937 15.2366C18.1813 15.0622 18.4778 14.9401 18.8093 14.8703C19.1407 14.8005 19.4721 14.7656 19.8385 14.7656C20.135 14.7656 20.4141 14.7831 20.7107 14.8354C21.0073 14.8703 21.2689 14.9575 21.4957 15.0971C21.7225 15.2192 21.9144 15.4111 22.0539 15.6378C22.1935 15.8646 22.2633 16.1786 22.2633 16.5624V19.9117C22.2633 20.156 22.2807 20.3479 22.3156 20.47C22.3505 20.5921 22.4377 20.6444 22.6121 20.6444C22.6994 20.6444 22.8215 20.627 22.9436 20.5746V21.412C22.7866 21.4817 22.5424 21.5341 22.2109 21.5341ZM20.7107 18.2545C20.4839 18.3069 20.2571 18.3417 20.0304 18.3592C19.7861 18.3941 19.5419 18.429 19.3151 18.4639C19.0709 18.4987 18.8616 18.5685 18.6697 18.6383C18.4778 18.7255 18.3208 18.8476 18.1987 19.0046C18.0766 19.1616 18.0242 19.371 18.0242 19.6326C18.0242 19.8071 18.0591 19.9641 18.1289 20.0862C18.1987 20.2083 18.2859 20.313 18.408 20.3827C18.5127 20.4525 18.6523 20.5049 18.8093 20.5397C18.9663 20.5746 19.1233 20.5921 19.2803 20.5921C19.6291 20.5921 19.9257 20.5397 20.1874 20.4525C20.4316 20.3479 20.6409 20.2432 20.7979 20.0862C20.9549 19.9466 21.077 19.7722 21.1468 19.6152C21.2166 19.4407 21.2515 19.2837 21.2515 19.1267V18.0277C21.1119 18.1324 20.9375 18.2022 20.7107 18.2545Z" fill="#CFD2D8"/>
<path d="M25.0876 12.4258H24.0234V21.3922H25.0876V12.4258Z" fill="#CFD2D8"/>
<path d="M15.7369 27.5848L13.661 28.3349L12.7539 22.5957L15.7369 27.5848Z" fill="#CFD2D8"/>
</svg>
