<svg width="36" height="36" viewBox="0 0 36 36" fill="none" xmlns="http://www.w3.org/2000/svg">
<path fill-rule="evenodd" clip-rule="evenodd" d="M17.79 2.51467C9.25229 2.51467 2.33107 9.43588 2.33107 17.9736C2.33107 26.5114 9.25229 33.4326 17.79 33.4326C26.3278 33.4326 33.249 26.5114 33.249 17.9736C33.249 9.43588 26.3278 2.51467 17.79 2.51467ZM0.09375 17.9736C0.09375 8.20024 8.01665 0.277344 17.79 0.277344C27.5634 0.277344 35.4863 8.20024 35.4863 17.9736C35.4863 27.747 27.5634 35.6699 17.79 35.6699C8.01665 35.6699 0.09375 27.747 0.09375 17.9736Z" fill="#CFD2D8"/>
<path d="M9.76347 20.0945H19.3841C19.8397 20.0945 20.2077 19.7265 20.2077 19.2708C20.2077 18.8152 19.8397 18.4472 19.3841 18.4472H11.5334L19.5068 9.14202L18.0698 14.1539C17.9471 14.592 18.1925 15.0301 18.6306 15.1703C19.0687 15.2929 19.5068 15.0476 19.647 14.6095L21.5045 8.09059C21.6797 7.5123 21.4169 6.89896 20.8736 6.60105C20.3304 6.32067 19.682 6.42582 19.2965 6.89896L9.15013 18.7451C8.93984 18.9905 8.88727 19.3234 9.02746 19.6213C9.16765 19.9017 9.44804 20.0945 9.76347 20.0945Z" fill="#CFD2D8"/>
<path d="M15.3721 16.6791C15.3721 17.1347 15.7401 17.5027 16.1957 17.5027H24.0464L16.0731 26.8079L17.51 21.7961C17.6327 21.358 17.3874 20.9199 16.9493 20.7797C16.5112 20.657 16.0731 20.9024 15.9329 21.3405L14.0578 27.8594C13.8826 28.4376 14.1454 29.051 14.6887 29.3489C14.8814 29.454 15.0917 29.5066 15.302 29.5066C15.67 29.5066 16.0205 29.3489 16.2834 29.051L26.4297 17.2048C26.64 16.9595 26.6926 16.6265 26.5524 16.3286C26.4122 16.0307 26.1318 15.8555 25.8164 15.8555H16.1782C15.7401 15.8555 15.3721 16.2235 15.3721 16.6791Z" fill="#CFD2D8"/>
</svg>
