<svg width="39" height="39" viewBox="0 0 39 39" fill="none" xmlns="http://www.w3.org/2000/svg">
<path d="M37.6916 19.9493C37.6916 28.5896 31.6852 35.8128 23.6537 37.6314V26.4774H27.0827H27.9418L28.0713 25.6281L28.914 20.1L29.0895 18.9493H27.9255H23.6537V16.3619C23.6537 15.7498 23.8045 15.2685 24.0754 14.9533C24.3222 14.6662 24.7899 14.3754 25.7514 14.3754H28.1482H29.1482V13.3754V8.66904V7.82611L28.3174 7.68346L28.1482 8.66904C28.3174 7.68346 28.3173 7.68345 28.3172 7.68343L28.317 7.68339L28.3164 7.68329L28.3146 7.68298L28.3086 7.68196L28.2874 7.67841L28.2093 7.66566C28.142 7.65484 28.0449 7.63962 27.9223 7.62147C27.6773 7.58518 27.3299 7.53705 26.916 7.48897C26.0924 7.39329 24.9866 7.29553 23.8932 7.29553C21.5186 7.29553 19.4456 8.02348 17.9657 9.51378C16.4856 11.0043 15.7137 13.1416 15.7137 15.736V18.9493H11.8875H10.8875V19.9493V25.4774V26.4774H11.8875H15.7137V37.6314C7.68229 35.8128 1.67578 28.5896 1.67578 19.9493C1.67578 9.93385 9.74393 1.8252 19.6838 1.8252C29.6235 1.8252 37.6916 9.93384 37.6916 19.9493Z" stroke="black" stroke-width="2"/>
</svg>
