<svg width="776" height="34" viewBox="0 0 776 34" fill="none" xmlns="http://www.w3.org/2000/svg">
<path d="M0.421875 6.70703C23.2164 6.70703 23.2164 26.5571 46.0108 26.5571C68.8053 26.5571 68.8053 6.70703 91.6108 6.70703C114.405 6.70703 114.405 26.5571 137.2 26.5571C159.994 26.5571 159.994 6.70703 182.8 6.70703C205.594 6.70703 205.594 26.5571 228.389 26.5571C251.183 26.5571 251.183 6.70703 273.978 6.70703C296.772 6.70703 296.772 26.5571 319.578 26.5571C342.372 26.5571 342.372 6.70703 365.178 6.70703C387.972 6.70703 387.972 26.5571 410.778 26.5571C433.572 26.5571 433.572 6.70703 456.378 6.70703C479.172 6.70703 479.172 26.5571 501.967 26.5571C524.761 26.5571 524.761 6.70703 547.567 6.70703C570.361 6.70703 570.361 26.5571 593.167 26.5571C615.972 26.5571 615.972 6.70703 638.766 6.70703C661.561 6.70703 661.561 26.5571 684.366 26.5571C707.172 26.5571 707.172 6.70703 729.966 6.70703C752.772 6.70703 752.772 26.5571 775.566 26.5571" stroke="#CFD2D8" stroke-width="13" stroke-miterlimit="10"/>
</svg>
