<svg width="38" height="37" viewBox="0 0 38 37" fill="none" xmlns="http://www.w3.org/2000/svg">
<path d="M27.5461 0.0996094H10.6956C5.21152 0.0996094 0.75 4.56113 0.75 10.0453V26.8959C0.75 32.3798 5.21152 36.8413 10.6956 36.8413H27.5463C33.0302 36.8413 37.4917 32.3798 37.4917 26.8959V10.0453C37.4917 4.56113 33.0302 0.0996094 27.5461 0.0996094V0.0996094ZM35.3377 26.8959C35.3377 31.1921 31.8425 34.6873 27.5461 34.6873H10.6956C6.39923 34.6873 2.90395 31.1921 2.90395 26.8959V10.0453C2.90395 5.74884 6.39923 2.25356 10.6956 2.25356H27.5463C31.8425 2.25356 35.3377 5.74884 35.3377 10.0453V26.8959Z" fill="black"/>
<path d="M19.1224 8.4248C13.5828 8.4248 9.07617 12.9315 9.07617 18.4711C9.07617 24.0107 13.5828 28.5174 19.1224 28.5174C24.6621 28.5174 29.1687 24.0107 29.1687 18.4711C29.1687 12.9315 24.6621 8.4248 19.1224 8.4248V8.4248ZM19.1224 26.3634C14.7708 26.3634 11.2301 22.823 11.2301 18.4711C11.2301 14.1194 14.7708 10.5788 19.1224 10.5788C23.4744 10.5788 27.0148 14.1194 27.0148 18.4711C27.0148 22.823 23.4744 26.3634 19.1224 26.3634V26.3634Z" fill="black"/>
<path d="M29.408 4.85645C27.771 4.85645 26.4395 6.18823 26.4395 7.825C26.4395 9.46205 27.771 10.7938 29.408 10.7938C31.0451 10.7938 32.3768 9.46205 32.3768 7.825C32.3768 6.18795 31.0451 4.85645 29.408 4.85645ZM29.408 8.6396C28.9589 8.6396 28.5934 8.27407 28.5934 7.825C28.5934 7.37565 28.9589 7.0104 29.408 7.0104C29.8574 7.0104 30.2229 7.37565 30.2229 7.825C30.2229 8.27407 29.8574 8.6396 29.408 8.6396Z" fill="black"/>
</svg>
