<svg width="237" height="229" viewBox="0 0 237 229" fill="none" xmlns="http://www.w3.org/2000/svg">
<circle cx="43.5315" cy="194.553" r="32.9455" fill="#C4C4C4"/>
<path d="M138.456 23.5291L42.2583 76.5508L78.116 141.608L174.314 88.586L138.456 23.5291Z" fill="#0029FF"/>
<path d="M156.39 56.0633L213.952 61.2945L182.704 4.60148L156.39 56.0633Z" fill="#0029FF"/>
<path d="M60.1916 109.084L33.8654 160.552L2.61768 103.859L60.1916 109.084Z" fill="#0029FF"/>
<rect x="86.6533" y="140.66" width="30.4439" height="86.8371" fill="#FF9FA1"/>
<rect x="209.522" y="197.559" width="30.4439" height="86.8371" transform="rotate(90 209.522 197.559)" fill="#0029FF"/>
<path d="M134.735 115.084L136.351 123.211L144.891 122.654L143.476 124.497L136.346 124.956L140.614 128.23L139.505 129.674L129.454 121.965L130.564 120.519L134.693 123.687L133.415 116.801L134.735 115.084Z" fill="#C4C4C4"/>
<path d="M141.97 108.678C144.989 106.544 149.149 107.262 151.283 110.281C153.417 113.299 152.699 117.46 149.68 119.594C146.659 121.726 142.501 121.009 140.367 117.99C138.234 114.97 138.951 110.808 141.97 108.678ZM148.679 118.175C151.019 116.523 151.432 113.681 149.791 111.356C148.13 109.003 145.311 108.444 142.972 110.094C140.634 111.744 140.205 114.599 141.865 116.952C143.506 119.277 146.339 119.827 148.679 118.175Z" fill="#C4C4C4"/>
<path d="M159.1 101.293L160.851 100.791L164.35 112.966L162.598 113.468L161.066 108.131L156.395 109.472L157.928 114.81L156.176 115.313L152.678 103.138L154.429 102.635L155.913 107.805L160.584 106.464L159.1 101.293Z" fill="#C4C4C4"/>
<path d="M171.506 100.083L173.309 100.167L173.222 102.073L174.313 102.124C177.086 102.253 178.91 104.16 178.798 106.586C178.686 109.012 176.697 110.745 173.923 110.618L172.832 110.566L172.728 112.819L170.925 112.736L171.029 110.483L169.937 110.432C167.165 110.303 165.341 108.396 165.453 105.97C165.565 103.544 167.553 101.811 170.327 101.938L171.419 101.989L171.506 100.083ZM169.926 108.73L171.105 108.785L171.34 103.688L170.161 103.634C168.428 103.555 167.334 104.668 167.272 106.054C167.208 107.442 168.193 108.651 169.926 108.73ZM174.087 108.923C175.819 109.002 176.913 107.888 176.976 106.503C177.038 105.117 176.053 103.908 174.32 103.828L173.141 103.774L172.906 108.87L174.087 108.923Z" fill="#C4C4C4"/>
<path d="M183.685 101.86L190.842 104.522L190.237 106.149L184.789 104.122L183.518 107.538L188.804 109.504L188.198 111.13L182.911 109.163L181.58 112.742L187.028 114.768L186.423 116.395L179.266 113.732L183.685 101.86Z" fill="#C4C4C4"/>
<path d="M193.917 106.071L201.218 111.071L200.238 112.504L197.347 110.523L191.17 119.544L189.652 118.504L195.829 109.482L192.938 107.501L193.917 106.071Z" fill="#C4C4C4"/>
<path d="M208.626 118.953L209.807 120.339L200.166 128.554L198.985 127.168L203.211 123.566L200.058 119.868L195.833 123.47L194.652 122.084L204.293 113.869L205.474 115.255L201.381 118.744L204.533 122.443L208.626 118.953Z" fill="#C4C4C4"/>
<path d="M206.589 138.717L206.694 138.992L215.278 135.694L215.172 135.419L216.793 134.796L217.665 137.064L216.045 137.687L215.939 137.411L207.356 140.71L207.461 140.985L205.841 141.608L204.968 139.34L206.589 138.717ZM213.202 125.451L213.857 127.151L208.835 129.08L209.957 131.996C210.767 134.102 209.98 136.169 207.956 136.946C205.932 137.723 203.963 136.714 203.155 134.609L201.382 129.992L213.202 125.451ZM204.802 134.07C205.176 135.043 206.084 135.715 207.3 135.248C208.516 134.781 208.739 133.672 208.366 132.703L207.216 129.706L203.654 131.075L204.802 134.07Z" fill="#C4C4C4"/>
<path d="M209.186 144.951L218.669 150.145L218.711 152.14L206.045 152.411L206.006 150.608L215.548 150.403L205.891 145.211L205.849 143.217L218.514 142.946L218.553 144.749L209.186 144.951ZM221.655 145.257L221.776 145.255L221.808 146.728L221.79 146.729C221.41 146.738 220.927 146.991 220.942 147.615C220.955 148.24 221.447 148.471 221.828 148.463L221.845 148.461L221.876 149.935L221.755 149.938C220.766 149.959 219.605 149.203 219.572 147.641C219.539 146.084 220.666 145.279 221.655 145.257Z" fill="#C4C4C4"/>
<path d="M212.309 172.762L211.19 175.113L199.747 169.675L200.521 168.046L209.754 172.434L204.564 166.008L205.457 164.128L213.716 164.096L204.483 159.708L205.257 158.079L216.7 163.517L215.582 165.868L206.639 165.846L212.309 172.762Z" fill="#C4C4C4"/>
<path d="M204.975 182.28L203.621 183.624L191.614 177.691L192.907 176.406L196.031 177.951L199.369 174.638L197.832 171.516L199.125 170.231L204.975 182.28ZM200.173 176.287L197.673 178.771L202.585 181.229L200.173 176.287Z" fill="#C4C4C4"/>
<path d="M196.887 189.119L189.928 193.03L189.078 191.518L194.448 188.499L189.091 178.969L190.68 178.077L196.887 189.119Z" fill="#C4C4C4"/>
<path d="M185.102 194.655L183.274 195.208L175.457 184.338L177.2 183.811L179.234 186.641L183.735 185.28L183.845 181.803L185.588 181.276L185.102 194.655ZM183.675 187.11L180.303 188.13L183.486 192.605L183.675 187.11Z" fill="#C4C4C4"/>
<path d="M173.063 191.584L171.138 191.622C169.925 191.645 168.899 192.43 168.923 193.66C168.951 195.048 170.176 195.631 171.305 195.609C172.433 195.587 173.635 195.042 173.613 193.827L175.435 193.791C175.472 195.699 173.682 197.295 171.339 197.343C169.171 197.385 167.145 195.949 167.103 193.781C167.08 192.549 167.737 191.565 168.625 190.922C167.436 190.408 166.583 189.418 166.552 187.891C166.507 185.636 168.384 184.037 170.987 183.987C173.329 183.942 175.178 185.294 175.567 187.369L173.756 187.926C173.64 186.541 172.498 185.695 171.022 185.725C169.634 185.753 168.348 186.471 168.376 187.946C168.404 189.42 169.629 189.916 170.932 189.892L173.031 189.851L173.063 191.584Z" fill="#C4C4C4"/>
<path d="M162.426 186.978L154.722 194.567L152.798 194.032L156.181 181.826L157.92 182.307L155.371 191.505L163.122 183.748L165.045 184.283L161.663 196.49L159.923 196.008L162.426 186.978Z" fill="#C4C4C4"/>
<path d="M141.975 188.051L140.44 187.07L147.264 176.397L148.799 177.378L145.808 182.057L149.902 184.674L152.893 179.995L154.428 180.976L147.602 191.651L146.068 190.67L148.966 186.137L144.872 183.52L141.975 188.051Z" fill="#C4C4C4"/>
<path d="M139.319 172.752L128.532 173.518L127.417 171.864L137.918 164.78L138.928 166.276L131.016 171.612L141.945 170.748L143.061 172.402L132.561 179.487L131.552 177.991L139.319 172.752Z" fill="#C4C4C4"/>
<path d="M124.642 165.59L122.412 157.927L132.908 154.873L132.52 153.541L136.685 152.328L137.194 154.077L134.695 154.805L136.925 162.468L139.424 161.741L139.933 163.49L135.768 164.703L135.535 163.903C135.241 163.085 134.587 162.696 133.636 162.974L124.642 165.59ZM133.416 156.621L124.586 159.19L125.823 163.439L132.987 161.355C133.636 161.165 134.291 161.246 134.843 161.52L133.416 156.621Z" fill="#C4C4C4"/>
<path d="M121.683 152.075L121.682 144.441L123.417 144.44L123.42 150.253L127.063 150.252L127.062 144.614L128.799 144.614L128.799 150.253L132.617 150.253L132.617 144.44L134.352 144.439L134.352 152.073L121.683 152.075Z" fill="#C4C4C4"/>
<path d="M131.821 140.322L124.334 132.521L124.891 130.605L137.054 134.146L136.55 135.878L127.387 133.209L135.042 141.058L134.485 142.973L122.322 139.432L122.826 137.701L131.821 140.322ZM120.019 136.291L119.902 136.257L120.314 134.842L120.331 134.846C120.698 134.952 121.233 134.855 121.406 134.256C121.579 133.658 121.183 133.287 120.816 133.181L120.799 133.177L121.211 131.759L121.328 131.793C122.279 132.069 123.158 133.139 122.724 134.639C122.289 136.138 120.968 136.566 120.019 136.291Z" fill="#C4C4C4"/>
</svg>
