<svg width="300" height="212" viewBox="0 0 300 212" fill="none" xmlns="http://www.w3.org/2000/svg">
<rect x="0.282227" y="0.171875" width="299.514" height="211.228" rx="12" fill="#0024B1"/>
<path d="M36.3809 184.474C36.3809 166.489 35.2642 148.555 35.2642 130.563C35.2642 117.29 36.1433 106.871 45.3144 96.5034C60.2105 79.6644 81.7542 80.8796 96.4342 97.372C106.752 108.964 130.982 157.295 102.018 161.892C88.9455 163.967 78.8406 163.514 73.8521 149.546C65.5591 126.326 68.4539 98.6906 83.4681 79.1327C91.7827 68.3018 102.624 59.7448 113.929 52.2079C121.665 47.0509 131.689 41.8803 141.35 44.5151C150.086 46.8977 155.623 56.4941 160.644 63.1887C171.153 77.2009 181.764 91.0005 188.003 107.546C193.254 121.474 200.428 147.31 176.96 144.397C155.612 141.747 153.386 121.576 152.641 103.328C151.788 82.4312 158.955 68.1072 178.449 58.784C196.819 49.9983 218.401 47.5383 232.795 63.8091C242.636 74.9334 250.365 85.0382 251.655 100.226C252.703 112.575 246.803 115.808 235.152 117.472" stroke="white" stroke-linecap="round" stroke-linejoin="round"/>
<path d="M173.734 184.474C181.16 184.474 199.524 188.358 203.761 179.883C205.87 175.666 205.692 168.093 204.754 163.505C203.277 156.285 187.545 158.859 189.616 167.972C193.613 185.556 222.633 189.178 236.517 188.941C256.921 188.592 249.715 169.819 254.136 156.557" stroke="white" stroke-linecap="round" stroke-linejoin="round"/>
<path d="M49.9277 34.8344C59.9817 34.8344 70.0357 34.8344 80.0897 34.8344C85.2326 34.8344 94.2352 36.2474 98.6416 32.6423C99.4976 31.9419 100.361 29.3198 98.9257 28.7046C94.3753 26.7544 85.6543 28.2063 81.1452 29.3541C72.0877 31.6596 52.9798 43.1366 60.7666 55.5378C64.1736 60.9637 73.1438 61.2369 78.6283 60.6121C92.0958 59.0778 109.313 53.4443 118.411 42.7504C130.279 28.8004 93.4627 35.6717 89.0612 36.7829C81.5761 38.6726 71.2899 42.2779 66.6528 49.0426C61.262 56.9068 71.3804 63.9337 77.2075 67.5538C98.4971 80.7803 125.619 84.0443 150.116 84.9284C169.924 85.6433 190.086 84.543 207.923 75.0233C220.294 68.4203 231.874 56.1535 231.874 41.4107" stroke="white" stroke-linecap="round" stroke-linejoin="round"/>
</svg>
