<svg width="187" height="149" viewBox="0 0 187 149" fill="none" xmlns="http://www.w3.org/2000/svg">
<g clip-path="url(#clip0)">
<path d="M79.8296 81.7023C83.0534 79.9357 86.5763 78.9358 90.3818 78.7025C94.1872 78.4525 98.2087 78.9858 102.43 80.2857C106.866 81.6523 110.605 83.5688 113.646 86.052C116.704 88.5352 119.031 91.4183 120.642 94.7015C122.254 97.9846 123.119 101.634 123.235 105.651C123.351 109.65 122.753 113.834 121.407 118.2C119.978 122.866 118.05 126.799 115.591 130.016C113.148 133.232 110.306 135.715 107.082 137.482C103.842 139.232 100.336 140.249 96.5303 140.482C92.7249 140.732 88.7034 140.199 84.4825 138.899C80.0456 137.532 76.3067 135.615 73.2656 133.132L79.8296 81.7023ZM79.6468 105.334C78.899 107.784 78.5168 110.134 78.5168 112.4C78.5168 114.667 78.8658 116.767 79.5969 118.683C80.3115 120.6 81.3916 122.25 82.8208 123.616C84.2499 124.983 86.0446 126.016 88.2381 126.683C92.3094 127.933 96.065 127.599 99.4716 125.649C102.878 123.7 105.487 119.767 107.299 113.85C108.861 108.751 108.927 104.251 107.498 100.368C106.069 96.4847 103.144 93.8682 98.7072 92.5016C96.7297 91.9016 94.8187 91.6516 92.9243 91.7516C91.0465 91.8683 89.2684 92.4349 87.6066 93.4515C85.9449 94.4848 84.4327 95.9514 83.07 97.8846C81.724 99.8178 80.5774 102.301 79.6468 105.334Z" fill="#0024B1"/>
<path d="M56.3382 112.666L33.0735 109.317L29.8331 131.965L15.625 129.915L23.8507 72.4355L38.0588 74.4854L34.9679 96.1007L58.2326 99.4505L61.3235 77.8352L75.5149 79.8851L67.2892 137.365L53.0978 135.315L56.3382 112.666Z" fill="#0024B1"/>
<path d="M153.197 49.5543L159.129 39.0383L158.647 38.7716L135.715 51.6875L133.089 50.2876L130.181 23.6393L129.6 23.3393L124.797 34.3219L116.654 49.7376L115.009 31.3721C114.959 30.8888 115.042 30.4055 115.242 29.9555L128.087 0.607422L141.248 7.60697L143.874 34.1053L144.256 34.3053L166.806 21.1894L180.067 28.239L152.964 79.5357L140.767 73.0528L153.197 49.5543Z" fill="#0024B1"/>
<path d="M169.677 98.4201L168.596 86.3876L168.048 86.4543L156.515 110.153L153.558 110.503L136.043 90.254L135.394 90.3373L137.671 102.103L140.795 128.635L128.083 130.151L121.286 72.4885L136.076 70.7386L153.258 91.0373L153.69 90.9873L164.791 67.3388L179.697 65.5723L186.494 123.235L172.801 124.868L169.677 98.4201Z" fill="#0024B1"/>
<path d="M6.19104 100.401C9.3298 100.401 11.8743 97.8494 11.8743 94.7016C11.8743 91.5538 9.3298 89.002 6.19104 89.002C3.05228 89.002 0.507812 91.5538 0.507812 94.7016C0.507812 97.8494 3.05228 100.401 6.19104 100.401Z" fill="#0024B1"/>
<path d="M73.441 19.87C76.5798 19.87 79.1243 17.3182 79.1243 14.1703C79.1243 11.0225 76.5798 8.4707 73.441 8.4707C70.3023 8.4707 67.7578 11.0225 67.7578 14.1703C67.7578 17.3182 70.3023 19.87 73.441 19.87Z" fill="#0024B1"/>
<path d="M123.265 148.765C126.404 148.765 128.948 146.213 128.948 143.065C128.948 139.917 126.404 137.365 123.265 137.365C120.127 137.365 117.582 139.917 117.582 143.065C117.582 146.213 120.127 148.765 123.265 148.765Z" fill="#0024B1"/>
<path d="M110.999 21.4863L96.0104 22.1863L83.248 44.9682L82.816 44.9848L67.1289 23.5195L63.6891 23.6862C64.8357 26.486 65.517 29.5191 65.65 32.8023C65.8327 36.802 65.2844 41.0017 64.0048 45.3848C62.6422 50.0678 60.7644 54.0342 58.3714 57.284C57.042 59.0839 55.5631 60.6505 53.9844 62.0004L54.915 82.2158L67.6939 81.6158L66.4808 54.9342L65.0517 43.0349L65.7164 43.0016L81.7358 64.4669L84.7104 64.3336L97.9048 41.5184L98.4532 41.5017L98.6858 53.5843L99.9155 80.1492L113.692 79.5159L110.999 21.4863Z" fill="#0024B1"/>
<path d="M2.50048 27.8233C3.86313 23.1403 5.74092 19.1739 8.15047 15.9241C10.56 12.6743 13.3518 10.1411 16.559 8.34123C19.7662 6.54134 23.2725 5.49141 27.0779 5.19143C30.8834 4.89145 34.9048 5.35808 39.1423 6.608C43.5959 7.90792 47.3681 9.77447 50.4423 12.2076C53.5332 14.6408 55.8929 17.4906 57.5547 20.7571C59.2164 24.0236 60.1304 27.6567 60.3132 31.6564C60.496 35.6561 59.9476 39.8559 58.668 44.2389C57.3054 48.922 55.4276 52.8884 53.0347 56.1382C50.6251 59.388 47.8334 61.9211 44.6262 63.721C41.419 65.5209 37.9126 66.5708 34.1072 66.8708C30.3018 67.1708 26.2803 66.7041 22.0428 65.4709C17.5893 64.171 13.8337 62.3044 10.7428 59.8713C7.65194 57.4381 5.29224 54.5883 3.63048 51.3218C1.96872 48.0553 1.05475 44.4222 0.871953 40.4225C0.672542 36.4061 1.22092 32.2064 2.50048 27.8233ZM16.6919 31.973C15.9774 34.4229 15.645 36.7894 15.6616 39.0559C15.6949 41.3224 16.0771 43.4056 16.8249 45.3222C17.5727 47.2387 18.6694 48.872 20.1152 50.2219C21.5609 51.5718 23.3722 52.5717 25.5657 53.205C29.6537 54.4049 33.3926 54.005 36.7826 52.0051C40.156 50.0052 42.7151 46.0388 44.4434 40.0892C45.9389 34.9562 45.9389 30.4731 44.46 26.6067C42.981 22.7403 40.0065 20.1571 35.5529 18.8572C33.5754 18.2739 31.6478 18.0573 29.77 18.1906C27.8922 18.3239 26.1307 18.9239 24.4856 19.9738C22.8405 21.0237 21.3449 22.5236 20.0155 24.4735C18.686 26.4401 17.5893 28.9399 16.6919 31.973Z" fill="#0024B1"/>
</g>
<defs>
<clipPath id="clip0">
<rect x="0.507812" y="0.607422" width="185.984" height="148.157" fill="white"/>
</clipPath>
</defs>
</svg>
