<svg width="65" height="52" viewBox="0 0 65 52" fill="none" xmlns="http://www.w3.org/2000/svg">
<g clip-path="url(#clip0)">
<path d="M27.5886 28.7253C28.7026 28.1148 29.92 27.7693 31.235 27.6887C32.55 27.6023 33.9397 27.7866 35.3983 28.2358C36.9315 28.708 38.2235 29.3703 39.2744 30.2284C40.331 31.0865 41.1349 32.0828 41.692 33.2173C42.249 34.3518 42.5476 35.6131 42.5878 37.001C42.628 38.3831 42.4212 39.8286 41.9561 41.3375C41.4623 42.95 40.7961 44.3091 39.9463 45.4206C39.1021 46.5321 38.1202 47.3902 37.0061 48.0007C35.8864 48.6054 34.6747 48.9567 33.3597 49.0373C32.0447 49.1237 30.655 48.9394 29.1964 48.4902C27.6632 48.0179 26.3712 47.3556 25.3203 46.4976L27.5886 28.7253ZM27.5254 36.8916C27.267 37.7381 27.1349 38.5501 27.1349 39.3334C27.1349 40.1166 27.2555 40.8422 27.5082 41.5045C27.7551 42.1668 28.1284 42.7369 28.6222 43.2092C29.1161 43.6814 29.7362 44.0385 30.4942 44.2688C31.9011 44.7008 33.1989 44.5856 34.3761 43.9118C35.5533 43.238 36.4549 41.8788 37.0808 39.8344C37.6206 38.0721 37.6435 36.5172 37.1497 35.1754C36.6558 33.8335 35.6452 32.9294 34.112 32.4571C33.4286 32.2498 32.7682 32.1634 32.1136 32.198C31.4647 32.2383 30.8503 32.4341 30.276 32.7854C29.7018 33.1424 29.1792 33.6492 28.7083 34.3173C28.2432 34.9853 27.847 35.8434 27.5254 36.8916Z" fill="white"/>
<path d="M19.4713 39.4237L11.4319 38.2661L10.3121 46.0926L5.40234 45.3843L8.24484 25.5215L13.1546 26.2298L12.0865 33.6993L20.1259 34.8568L21.194 27.3874L26.098 28.0958L23.2555 47.9585L18.3515 47.2502L19.4713 39.4237Z" fill="white"/>
<path d="M52.9412 17.6153L54.9913 13.9814L54.8247 13.8893L46.9002 18.3525L45.9929 17.8687L44.988 8.66011L44.787 8.55644L43.1274 12.3516L40.3136 17.6787L39.7451 11.3323C39.7279 11.1653 39.7566 10.9983 39.8255 10.8428L44.2644 0.701172L48.8124 3.11995L49.7197 12.2768L49.8518 12.3459L57.6443 7.81353L62.2267 10.2496L52.8608 27.9758L48.6459 25.7355L52.9412 17.6153Z" fill="white"/>
<path d="M58.636 34.5019L58.2627 30.3439L58.0732 30.3669L54.088 38.5562L53.0658 38.6771L47.0133 31.68L46.7894 31.7087L47.5761 35.7746L48.6557 44.9429L44.2627 45.467L41.9141 25.5409L47.0248 24.9362L52.9625 31.9506L53.1118 31.9334L56.9477 23.7613L62.0987 23.1509L64.4473 43.077L59.7156 43.6414L58.636 34.5019Z" fill="white"/>
<path d="M2.14164 35.1857C3.22628 35.1857 4.10555 34.3039 4.10555 33.2162C4.10555 32.1284 3.22628 31.2466 2.14164 31.2466C1.05701 31.2466 0.177734 32.1284 0.177734 33.2162C0.177734 34.3039 1.05701 35.1857 2.14164 35.1857Z" fill="white"/>
<path d="M25.3799 7.35761C26.4646 7.35761 27.3438 6.4758 27.3438 5.38804C27.3438 4.30027 26.4646 3.41846 25.3799 3.41846C24.2953 3.41846 23.416 4.30027 23.416 5.38804C23.416 6.4758 24.2953 7.35761 25.3799 7.35761Z" fill="white"/>
<path d="M42.5987 51.8981C43.6833 51.8981 44.5626 51.0163 44.5626 49.9286C44.5626 48.8408 43.6833 47.959 42.5987 47.959C41.514 47.959 40.6348 48.8408 40.6348 49.9286C40.6348 51.0163 41.514 51.8981 42.5987 51.8981Z" fill="white"/>
<path d="M38.3585 7.91602L33.1788 8.15789L28.7687 16.0304L28.6194 16.0362L23.1985 8.61861L22.0098 8.6762C22.4061 9.64372 22.6415 10.6919 22.6874 11.8264C22.7506 13.2085 22.5611 14.6598 22.1189 16.1744C21.6481 17.7927 20.9992 19.1633 20.1723 20.2863C19.7129 20.9083 19.2018 21.4497 18.6562 21.9161L18.9778 28.9018L23.3937 28.6945L22.9746 19.4743L22.4807 15.3624L22.7104 15.3509L28.2461 22.7685L29.274 22.7224L33.8335 14.8383L34.023 14.8326L34.1034 19.0078L34.5283 28.1877L39.2888 27.9688L38.3585 7.91602Z" fill="white"/>
<path d="M0.865615 10.1055C1.33649 8.48721 1.98539 7.11657 2.81804 5.99357C3.65069 4.87056 4.61542 3.9952 5.7237 3.37322C6.83199 2.75125 8.04364 2.38844 9.35866 2.28477C10.6737 2.18111 12.0633 2.34236 13.5277 2.77429C15.0666 3.22349 16.3702 3.8685 17.4325 4.70931C18.5006 5.55013 19.316 6.53491 19.8903 7.66368C20.4645 8.79244 20.7803 10.0479 20.8435 11.4301C20.9067 12.8122 20.7172 14.2635 20.275 15.7781C19.8041 17.3964 19.1552 18.767 18.3283 19.89C17.4957 21.013 16.5309 21.8884 15.4227 22.5104C14.3144 23.1323 13.1027 23.4952 11.7877 23.5988C10.4727 23.7025 9.08302 23.5412 7.6187 23.1151C6.07973 22.6659 4.78195 22.0209 3.71386 21.18C2.64577 20.3392 1.83034 19.3544 1.2561 18.2257C0.681858 17.0969 0.366025 15.8415 0.302858 14.4593C0.233949 13.0714 0.423449 11.6201 0.865615 10.1055ZM5.76964 11.5395C5.52272 12.3861 5.40787 13.2038 5.41361 13.9871C5.4251 14.7703 5.55717 15.4902 5.81558 16.1524C6.07399 16.8147 6.45299 17.3791 6.95258 17.8456C7.45217 18.3121 8.0781 18.6576 8.8361 18.8764C10.2487 19.2911 11.5408 19.1529 12.7122 18.4618C13.8779 17.7707 14.7623 16.4001 15.3595 14.3441C15.8763 12.5703 15.8763 11.0212 15.3652 9.68509C14.8542 8.349 13.8263 7.45635 12.2873 7.00715C11.6039 6.80559 10.9378 6.73072 10.2889 6.77679C9.64003 6.82286 9.03134 7.03019 8.46284 7.393C7.89434 7.75582 7.37752 8.27413 6.91813 8.94793C6.45873 9.6275 6.07973 10.4913 5.76964 11.5395Z" fill="white"/>
</g>
<defs>
<clipPath id="clip0">
<rect x="0.177734" y="0.701172" width="64.2692" height="51.1975" fill="white"/>
</clipPath>
</defs>
</svg>
