<svg width="251" height="251" viewBox="0 0 251 251" fill="none" xmlns="http://www.w3.org/2000/svg">
<circle cx="125.5" cy="125.685" r="124.836" fill="white"/>
<g clip-path="url(#clip0)">
<path d="M111.83 132.702C115.053 130.936 118.576 129.936 122.382 129.702C126.187 129.452 130.209 129.986 134.43 131.286C138.866 132.652 142.605 134.569 145.646 137.052C148.704 139.535 151.031 142.418 152.642 145.701C154.254 148.985 155.119 152.634 155.235 156.651C155.351 160.65 154.753 164.834 153.407 169.2C151.978 173.866 150.05 177.799 147.591 181.016C145.148 184.232 142.306 186.715 139.082 188.482C135.842 190.232 132.336 191.249 128.53 191.482C124.725 191.732 120.703 191.199 116.483 189.899C112.046 188.532 108.307 186.615 105.266 184.132L111.83 132.702ZM111.647 156.334C110.899 158.784 110.517 161.134 110.517 163.4C110.517 165.667 110.866 167.767 111.597 169.683C112.312 171.6 113.392 173.25 114.821 174.616C116.25 175.983 118.045 177.016 120.238 177.683C124.309 178.933 128.065 178.599 131.472 176.649C134.878 174.7 137.487 170.767 139.299 164.85C140.861 159.751 140.927 155.251 139.498 151.368C138.069 147.485 135.144 144.868 130.707 143.502C128.73 142.902 126.819 142.652 124.924 142.752C123.046 142.868 121.268 143.435 119.607 144.452C117.945 145.485 116.433 146.951 115.07 148.885C113.724 150.818 112.577 153.301 111.647 156.334Z" fill="#0024B1"/>
<path d="M88.3382 163.666L65.0735 160.317L61.8331 182.965L47.625 180.915L55.8507 123.436L70.0588 125.485L66.9679 147.101L90.2326 150.45L93.3235 128.835L107.515 130.885L99.2892 188.365L85.0978 186.315L88.3382 163.666Z" fill="#0024B1"/>
<path d="M185.197 100.554L191.129 90.0383L190.647 89.7716L167.715 102.687L165.089 101.288L162.181 74.6393L161.6 74.3393L156.797 85.3219L148.654 100.738L147.009 82.3721C146.959 81.8888 147.042 81.4055 147.242 80.9555L160.087 51.6074L173.248 58.607L175.874 85.1053L176.256 85.3053L198.806 72.1894L212.067 79.239L184.964 130.536L172.767 124.053L185.197 100.554Z" fill="#0024B1"/>
<path d="M201.677 149.42L200.596 137.388L200.048 137.454L188.515 161.153L185.558 161.503L168.043 141.254L167.394 141.337L169.671 153.103L172.795 179.635L160.083 181.151L153.286 123.488L168.076 121.739L185.258 142.037L185.69 141.987L196.791 118.339L211.697 116.572L218.494 174.235L204.801 175.868L201.677 149.42Z" fill="#0024B1"/>
<path d="M38.191 151.401C41.3298 151.401 43.8743 148.849 43.8743 145.702C43.8743 142.554 41.3298 140.002 38.191 140.002C35.0523 140.002 32.5078 142.554 32.5078 145.702C32.5078 148.849 35.0523 151.401 38.191 151.401Z" fill="#0024B1"/>
<path d="M105.441 70.87C108.58 70.87 111.124 68.3182 111.124 65.1703C111.124 62.0225 108.58 59.4707 105.441 59.4707C102.302 59.4707 99.7578 62.0225 99.7578 65.1703C99.7578 68.3182 102.302 70.87 105.441 70.87Z" fill="#0024B1"/>
<path d="M155.265 199.765C158.404 199.765 160.948 197.213 160.948 194.065C160.948 190.917 158.404 188.365 155.265 188.365C152.127 188.365 149.582 190.917 149.582 194.065C149.582 197.213 152.127 199.765 155.265 199.765Z" fill="#0024B1"/>
<path d="M142.999 72.4863L128.01 73.1863L115.248 95.9682L114.816 95.9848L99.1289 74.5195L95.6891 74.6862C96.8357 77.486 97.517 80.5191 97.65 83.8023C97.8327 87.802 97.2844 92.0017 96.0048 96.3848C94.6422 101.068 92.7644 105.034 90.3714 108.284C89.042 110.084 87.5631 111.65 85.9844 113L86.915 133.216L99.6939 132.616L98.4808 105.934L97.0517 94.0349L97.7164 94.0016L113.736 115.467L116.71 115.334L129.905 92.5184L130.453 92.5017L130.686 104.584L131.916 131.149L145.692 130.516L142.999 72.4863Z" fill="#0024B1"/>
<path d="M34.5005 78.8233C35.8631 74.1403 37.7409 70.1739 40.1505 66.9241C42.56 63.6743 45.3518 61.1411 48.559 59.3412C51.7662 57.5413 55.2725 56.4914 59.0779 56.1914C62.8834 55.8914 66.9048 56.3581 71.1423 57.608C75.5959 58.9079 79.3681 60.7745 82.4423 63.2076C85.5332 65.6408 87.8929 68.4906 89.5547 71.7571C91.2164 75.0236 92.1304 78.6567 92.3132 82.6564C92.496 86.6561 91.9476 90.8559 90.668 95.2389C89.3054 99.922 87.4276 103.888 85.0347 107.138C82.6251 110.388 79.8334 112.921 76.6262 114.721C73.419 116.521 69.9126 117.571 66.1072 117.871C62.3018 118.171 58.2803 117.704 54.0428 116.471C49.5893 115.171 45.8337 113.304 42.7428 110.871C39.6519 108.438 37.2922 105.588 35.6305 102.322C33.9687 99.0553 33.0547 95.4222 32.872 91.4225C32.6725 87.4061 33.2209 83.2064 34.5005 78.8233ZM48.6919 82.973C47.9774 85.4229 47.645 87.7894 47.6616 90.0559C47.6949 92.3224 48.0771 94.4056 48.8249 96.3222C49.5727 98.2387 50.6694 99.872 52.1152 101.222C53.5609 102.572 55.3722 103.572 57.5657 104.205C61.6537 105.405 65.3926 105.005 68.7826 103.005C72.156 101.005 74.7151 97.0388 76.4434 91.0892C77.9389 85.9562 77.9389 81.4731 76.46 77.6067C74.981 73.7403 72.0065 71.1571 67.5529 69.8572C65.5754 69.2739 63.6478 69.0573 61.77 69.1906C59.8922 69.3239 58.1307 69.9239 56.4856 70.9738C54.8405 72.0237 53.3449 73.5236 52.0155 75.4735C50.686 77.4401 49.5893 79.9399 48.6919 82.973Z" fill="#0024B1"/>
</g>
<defs>
<clipPath id="clip0">
<rect width="185.984" height="148.157" fill="white" transform="translate(32.5078 51.6074)"/>
</clipPath>
</defs>
</svg>
