<svg width="43" height="35" viewBox="0 0 43 35" fill="none" xmlns="http://www.w3.org/2000/svg">
<g clip-path="url(#clip0)">
<path d="M18.3888 19.0472C19.1218 18.6456 19.9227 18.4182 20.7879 18.3652C21.6531 18.3083 22.5674 18.4296 23.5271 18.7251C24.5358 19.0358 25.3859 19.4716 26.0773 20.0361C26.7725 20.6007 27.3014 21.2562 27.6679 22.0026C28.0343 22.7491 28.2308 23.5789 28.2573 24.492C28.2837 25.4014 28.1477 26.3524 27.8417 27.3451C27.5167 28.4061 27.0785 29.3003 26.5193 30.0316C25.9639 30.7628 25.3179 31.3274 24.5849 31.729C23.8482 32.1269 23.051 32.358 22.1858 32.4111C21.3206 32.4679 20.4063 32.3466 19.4467 32.0511C18.438 31.7404 17.5879 31.3047 16.8965 30.7401L18.3888 19.0472ZM18.3473 24.42C18.1773 24.977 18.0904 25.5113 18.0904 26.0266C18.0904 26.5419 18.1697 27.0193 18.3359 27.455C18.4984 27.8908 18.744 28.2659 19.0689 28.5766C19.3938 28.8873 19.8018 29.1222 20.3006 29.2737C21.2262 29.5579 22.08 29.4821 22.8546 29.0388C23.6291 28.5955 24.2222 27.7013 24.634 26.3562C24.9892 25.1968 25.0043 24.1737 24.6794 23.2909C24.3545 22.4081 23.6895 21.8132 22.6808 21.5025C22.2312 21.3661 21.7967 21.3092 21.366 21.332C20.9391 21.3585 20.5348 21.4873 20.157 21.7185C19.7792 21.9534 19.4354 22.2868 19.1256 22.7263C18.8195 23.1659 18.5589 23.7304 18.3473 24.42Z" fill="black"/>
<path d="M13.0474 26.0881L7.75803 25.3265L7.0213 30.4758L3.79102 30.0097L5.66118 16.9414L8.89146 17.4075L8.18873 22.3218L13.4781 23.0834L14.1808 18.169L17.4073 18.6351L15.5372 31.7034L12.3106 31.2373L13.0474 26.0881Z" fill="black"/>
<path d="M35.0662 11.7377L36.4149 9.34684L36.3054 9.28621L31.0916 12.2227L30.4947 11.9044L29.8335 5.84579L29.7013 5.77759L28.6094 8.27455L26.7581 11.7794L26.3841 7.60389C26.3727 7.49401 26.3916 7.38413 26.437 7.28183L29.3574 0.609375L32.3497 2.20076L32.9466 8.22529L33.0335 8.27076L38.1604 5.28881L41.1754 6.89156L35.0133 18.5541L32.2401 17.0802L35.0662 11.7377Z" fill="black"/>
<path d="M38.8163 22.847L38.5707 20.1114L38.446 20.1265L35.824 25.5145L35.1515 25.5941L31.1694 20.9904L31.0221 21.0094L31.5397 23.6844L32.2499 29.7165L29.3597 30.0613L27.8145 16.9513L31.177 16.5535L35.0835 21.1685L35.1818 21.1571L37.7055 15.7805L41.0945 15.3789L42.6397 28.4889L39.5266 28.8602L38.8163 22.847Z" fill="black"/>
<path d="M1.64563 23.2987C2.35924 23.2987 2.93774 22.7186 2.93774 22.0029C2.93774 21.2872 2.35924 20.707 1.64563 20.707C0.932014 20.707 0.353516 21.2872 0.353516 22.0029C0.353516 22.7186 0.932014 23.2987 1.64563 23.2987Z" fill="black"/>
<path d="M16.9347 4.99012C17.6483 4.99012 18.2268 4.40995 18.2268 3.69428C18.2268 2.97861 17.6483 2.39844 16.9347 2.39844C16.2211 2.39844 15.6426 2.97861 15.6426 3.69428C15.6426 4.40995 16.2211 4.99012 16.9347 4.99012Z" fill="black"/>
<path d="M28.2638 34.2948C28.9774 34.2948 29.5559 33.7146 29.5559 32.999C29.5559 32.2833 28.9774 31.7031 28.2638 31.7031C27.5502 31.7031 26.9717 32.2833 26.9717 32.999C26.9717 33.7146 27.5502 34.2948 28.2638 34.2948Z" fill="black"/>
<path d="M25.4764 5.35547L22.0685 5.51461L19.1669 10.6942L19.0687 10.698L15.5022 5.81773L14.7201 5.85562C14.9808 6.49217 15.1357 7.18177 15.1659 7.92821C15.2075 8.83757 15.0828 9.7924 14.7919 10.7889C14.4821 11.8536 14.0551 12.7554 13.5111 13.4943C13.2088 13.9035 12.8726 14.2597 12.5137 14.5666L12.7252 19.1626L15.6306 19.0262L15.3548 12.96L15.0299 10.2547L15.181 10.2471L18.8231 15.1273L19.4994 15.097L22.4992 9.90986L22.6239 9.90607L22.6768 12.6531L22.9564 18.6928L26.0884 18.5488L25.4764 5.35547Z" fill="black"/>
<path d="M0.807065 6.79437C1.11687 5.72966 1.5438 4.82788 2.09162 4.08902C2.63945 3.35016 3.27417 2.77423 4.00334 2.36502C4.73252 1.9558 5.5297 1.7171 6.39488 1.64889C7.26007 1.58069 8.17437 1.68678 9.13779 1.97096C10.1503 2.2665 11.008 2.69087 11.7069 3.24407C12.4096 3.79726 12.9461 4.44519 13.3239 5.18783C13.7017 5.93048 13.9095 6.75648 13.9511 7.66585C13.9927 8.57521 13.868 9.53004 13.5771 10.5266C13.2673 11.5913 12.8403 12.493 12.2963 13.2319C11.7485 13.9708 11.1137 14.5467 10.3846 14.9559C9.65539 15.3651 8.85821 15.6038 7.99302 15.672C7.12784 15.7402 6.21353 15.6341 5.25012 15.3538C4.23759 15.0582 3.38373 14.6338 2.68101 14.0806C1.97828 13.5275 1.44179 12.8795 1.06398 12.1369C0.686166 11.3942 0.47837 10.5682 0.436811 9.65887C0.391474 8.74572 0.516151 7.79088 0.807065 6.79437ZM4.03357 7.73784C3.87111 8.29482 3.79555 8.83286 3.79933 9.34817C3.80688 9.86347 3.89378 10.3371 4.06379 10.7728C4.23381 11.2086 4.48316 11.5799 4.81186 11.8868C5.14055 12.1937 5.55237 12.4211 6.05108 12.565C6.98049 12.8379 7.83056 12.7469 8.6013 12.2922C9.36825 11.8376 9.95008 10.9358 10.343 9.58309C10.683 8.41607 10.683 7.39683 10.3468 6.51778C10.0105 5.63873 9.33425 5.05143 8.32172 4.75588C7.87212 4.62327 7.43386 4.57401 7.00694 4.60432C6.58001 4.63464 6.17953 4.77104 5.8055 5.00975C5.43147 5.24846 5.09144 5.58947 4.78919 6.03278C4.48694 6.47989 4.23759 7.04824 4.03357 7.73784Z" fill="black"/>
</g>
<defs>
<clipPath id="clip0">
<rect x="0.353516" y="0.609375" width="42.2846" height="33.6843" fill="white"/>
</clipPath>
</defs>
</svg>
