<svg width="1558" height="1558" viewBox="0 0 1558 1558" fill="none" xmlns="http://www.w3.org/2000/svg">
<path fill-rule="evenodd" clip-rule="evenodd" d="M770.224 759.935V761.852H768.315L767.908 759.523L770.224 759.935ZM770.224 757.548V759.935L772.122 760.273L771.847 761.852H770.224V763.47L768.646 763.751L768.315 761.852H765.99L764.961 758.998L767.908 759.523L767.38 756.504L770.224 757.548ZM770.224 754.482V757.548L772.455 758.368L772.122 760.273L773.695 760.553L773.227 761.852H771.847L771.607 763.224L770.224 763.47V764.876L768.926 765.353L768.646 763.751L766.794 764.081L765.99 761.852H762.987L760.946 758.284L764.961 758.998L763.554 755.098L767.38 756.504L766.665 752.409L770.224 754.482ZM770.224 750.284V754.482L772.865 756.022L772.455 758.368L774.246 759.026L773.695 760.553L775.059 760.796L774.455 761.852H773.227L772.809 763.01L771.607 763.224L771.393 764.446L770.224 764.876V766.121L769.168 766.736L768.926 765.353L767.448 765.896L766.794 764.081L764.495 764.49L762.987 761.852H758.907L755.072 757.238L760.946 758.284L757.945 753.038L763.554 755.098L761.499 749.398L766.665 752.409L765.611 746.378L770.224 750.284ZM770.224 744.18V750.284L773.398 752.972L772.865 756.022L774.901 757.208L774.246 759.026L775.755 759.58L775.059 760.796L776.266 761.01L775.566 761.852H774.455L773.904 762.815L772.809 763.01L772.428 764.066L771.393 764.446L771.2 765.552L770.224 766.121V767.235L769.38 767.949L769.168 766.736L767.997 767.418L767.448 765.896L765.673 766.548L764.495 764.49L761.538 765.016L758.907 761.852H752.937L745.473 755.53L755.072 757.238L748.781 749.671L757.945 753.038L753.045 744.472L761.499 749.398L758.122 740.035L765.611 746.378L763.898 736.571L770.224 744.18ZM770.224 734.225V744.18L774.116 748.862L773.398 752.972L775.72 754.938L774.901 757.208L776.559 758.174L775.755 759.58L777.057 760.059L776.266 761.01L777.346 761.203L776.58 761.852H775.566L774.915 762.635L773.904 762.815L773.391 763.713L772.428 764.066L772.076 765.041L771.2 765.552L771.025 766.556L770.224 767.235V768.278L769.574 769.059L769.38 767.949L768.467 768.722L767.997 767.418L766.627 768.216L765.673 766.548L763.481 767.353L761.538 765.016L757.518 765.731L752.937 761.852H743.148L726.507 752.155L745.473 755.53L730.721 743.037L748.781 749.671L736.39 734.767L753.045 744.472L743.351 727.525L758.122 740.035L751.492 721.649L763.898 736.571L760.527 717.274L770.224 734.225ZM770.224 714.637V734.225L775.164 742.862L774.116 748.862L776.763 752.045L775.72 754.938L777.532 756.473L776.559 758.174L777.95 758.985L777.057 760.059L778.201 760.479L777.346 761.203L778.355 761.382L777.549 761.852H776.58L775.851 762.469L774.915 762.635L774.295 763.38L773.391 763.713L772.908 764.556L772.076 765.041L771.752 765.94L771.025 766.556L770.857 767.516L770.224 768.278V769.249L769.751 770.075L769.574 769.059L768.887 769.886L768.467 768.722L767.423 769.607L766.627 768.216L764.991 769.17L763.481 767.353L760.658 768.39L757.518 765.731L751.61 766.783L743.148 761.852H723.939L670.324 742.156L726.507 752.155L676.981 723.295L730.721 743.037L686.913 705.936L736.39 734.767L699.482 690.373L743.351 727.525L714.617 677.295L751.492 721.649L731.812 667.076L760.527 717.274L750.521 660.002L770.224 714.637ZM770.224 656.564V714.637L776.874 733.077L775.164 742.862L778.176 748.127L776.763 752.045L778.719 754.398L777.532 756.473L779.002 757.719L777.95 758.985L779.144 759.68L778.201 760.479L779.246 760.863L778.355 761.382L779.285 761.547L778.456 761.852H777.549L776.772 762.305L775.851 762.469L775.142 763.069L774.295 763.38L773.702 764.094L772.908 764.556L772.459 765.342L771.752 765.94L771.434 766.822L770.857 767.516L770.7 768.417L770.224 769.249V770.179L769.918 771.027L769.751 770.075L769.263 770.928L768.887 769.886L768.114 770.815L767.423 769.607L766.209 770.635L764.991 769.17L762.969 770.348L760.658 768.39L756.8 769.807L751.61 766.783L742.011 768.491L723.939 761.852H666.849L195.494 677.966L198.936 658.265L670.324 742.156L220.539 576.925L227.324 558.111L676.981 723.295L262.556 481.802L272.487 464.441L686.913 705.936L320.335 395.479L333.12 380.1L699.482 690.373L392.058 320.592L407.321 307.667L714.617 677.295L475.581 259.421L492.861 249.351L731.812 667.076L568.356 213.809L587.13 206.913L750.521 660.002L667.564 185.152L687.255 181.647L770.224 656.564ZM790.224 656.662V174.323H770.224V656.564L780.232 713.853L776.874 733.077L780.238 742.408L778.176 748.127L780.241 751.737L778.719 754.398L780.241 756.229L779.002 757.719L780.231 758.759L779.144 759.68L780.21 760.302L779.246 760.863L780.197 761.212L779.285 761.547L780.156 761.703L779.317 761.852H778.456L777.648 762.149L776.772 762.305L776.002 762.753L775.142 763.069L774.44 763.664L773.702 764.094L773.155 764.752L772.459 765.342L772.005 766.136L771.434 766.822L771.131 767.663L770.7 768.417L770.55 769.274L770.224 770.179V771.142L770.081 771.96L769.918 771.027L769.608 771.886L769.263 770.928L768.721 771.876L768.114 770.815L767.237 771.871L766.209 770.635L764.758 771.863L762.969 770.348L760.349 771.875L756.8 769.807L751.198 771.865L742.011 768.491L723.083 771.86L666.849 761.852H188.236V781.852H666.937L195.504 865.751L198.946 885.453L670.386 801.552L220.563 966.797L227.348 985.611L677.07 820.403L262.591 1061.93L272.521 1079.29L686.823 837.867L320.351 1148.23L333.137 1163.61L699.524 853.318L392.086 1223.12L407.348 1236.04L714.638 866.422L475.604 1284.29L492.885 1294.36L731.83 876.645L568.383 1329.89L587.157 1336.78L750.572 883.63L667.605 1358.53L687.295 1362.04L770.224 887.356V1369.38H790.224V887.258L873.171 1362.05L892.861 1358.55L809.881 883.562L973.323 1336.79L992.096 1329.9L828.637 876.62L1067.6 1294.37L1084.88 1284.3L845.845 866.423L1153.15 1236.06L1168.41 1223.13L861.004 853.374L1227.36 1163.64L1240.15 1148.27L873.733 837.947L1287.97 1079.33L1297.9 1061.97L883.392 820.428L1333.17 985.658L1339.96 966.844L890.087 801.581L1361.55 885.485L1364.99 865.783L893.376 781.852H1372.28V761.852H893.463L1365 677.934L1361.56 658.232L890.149 742.127L1339.98 576.878L1333.2 558.064L883.481 723.27L1297.93 481.762L1288 464.402L873.643 705.856L1240.17 395.447L1227.38 380.068L861.046 690.317L1168.44 320.577L1153.17 307.652L845.866 677.293L1084.91 259.413L1067.63 249.343L828.656 667.1L992.123 213.801L973.35 206.905L809.931 660.069L892.902 185.141L873.211 181.637L790.224 656.662ZM790.224 714.719V656.662L780.232 713.853L783.595 733.101L780.238 742.408L782.303 748.133L780.241 751.737L781.763 754.398L780.241 756.229L781.471 757.709L780.231 758.759L781.301 759.666L780.21 760.302L781.164 760.857L780.197 761.212L781.083 761.538L780.156 761.703L780.995 761.852L779.317 761.852L777.648 762.149L776.002 762.753L774.44 763.664L773.155 764.752L772.005 766.136L771.131 767.663L770.55 769.274L770.224 771.142V772.778L770.081 771.96L769.935 772.792L769.608 771.886L769.267 772.831L768.721 771.876L768.118 772.93L767.237 771.871L766.216 773.098L764.758 771.863L762.953 773.393L760.349 771.875L756.82 773.931L751.198 771.865L742.033 775.232L723.083 771.86L666.937 781.852H724.013L670.386 801.552L726.583 791.551L677.07 820.403L730.712 800.698L686.823 837.867L736.375 808.992L699.524 853.318L743.38 816.177L714.638 866.422L751.511 822.07L731.83 876.645L760.569 826.405L750.572 883.63L770.224 829.135V887.356L780.232 830.067L790.224 887.258V829.053L809.881 883.562L799.887 826.36L828.637 876.62L808.962 822.059L845.845 866.423L817.121 816.209L861.004 853.374L824.164 809.062L873.733 837.947L829.802 800.741L883.392 820.428L833.884 791.578L890.087 801.581L836.382 781.852H893.376L837.229 771.86L893.463 761.852H836.456L890.149 742.127L833.961 752.127L883.481 723.27L829.793 742.993L873.643 705.856L824.15 734.697L861.046 690.317L817.15 727.493L845.866 677.293L808.981 721.659L828.656 667.1L799.929 717.319L809.931 660.069L790.224 714.719ZM790.224 734.286V714.719L783.595 733.101L785.304 742.886L782.303 748.133L783.715 752.05L781.763 754.398L782.944 756.462L781.471 757.709L782.512 758.96L781.301 759.666L782.241 760.461L781.164 760.857L782.039 761.367L781.083 761.538L781.938 761.852H780.995L782.825 762.178L784.46 762.778L786.116 763.743L787.373 764.808L788.478 766.137L789.337 767.638L789.902 769.207L790.224 771.044V772.875L789.953 774.425L789.355 776.082L788.499 777.579L787.415 778.883L786.025 780.06L784.549 780.92L782.887 781.531L781.082 781.852L779.229 781.852L777.586 781.559L775.913 780.945L774.531 780.139L773.113 778.939L771.984 777.581L771.112 776.057L770.499 774.357L770.224 772.778V773.592L769.935 772.792L769.774 773.717L769.267 772.831L768.894 773.865L768.118 772.93L767.433 774.128L766.216 773.098L764.986 774.578L762.953 773.393L760.654 775.339L756.82 773.931L751.65 776.944L742.033 775.232L724.013 781.852H743.228L726.583 791.551L745.483 788.187L730.712 800.698L748.793 794.055L736.375 808.992L753.047 799.277L743.38 816.177L758.146 803.671L751.511 822.07L763.938 807.122L760.569 826.405L770.224 809.527V829.135L776.856 810.742L780.232 830.067L783.612 810.719L790.224 829.053V809.466L799.887 826.36L796.522 807.096L808.962 822.059L802.337 803.689L817.121 816.209L807.466 799.332L824.164 809.062L811.727 794.101L829.802 800.741L815.019 788.221L833.884 791.578L817.192 781.852H836.382L818.334 775.222L837.229 771.86L818.356 768.501L836.456 761.852H817.272L833.961 752.127L815.029 755.496L829.793 742.993L811.739 749.625L824.15 734.697L807.468 744.417L817.15 727.493L802.361 740.018L808.981 721.659L796.561 736.598L799.929 717.319L790.224 734.286ZM790.224 744.221V734.286L785.304 742.886L786.351 748.879L783.715 752.05L784.754 754.929L782.944 756.462L783.907 758.147L782.512 758.96L783.404 760.034L782.241 760.461L783.09 761.18L782.039 761.367L782.87 761.852H781.938L782.825 762.178L783.695 762.332L784.46 762.778L785.372 763.113L786.116 763.743L786.837 764.164L787.373 764.808L788.042 765.374L788.478 766.137L789.039 766.811L789.337 767.638L789.757 768.372L789.902 769.207L790.224 770.097V771.044L790.383 771.96L790.224 772.875V773.674L789.953 774.425L789.799 775.307L789.355 776.082L789.058 776.907L788.499 777.579L788.071 778.328L787.415 778.883L786.823 779.595L786.025 780.06L785.362 780.621L784.549 780.92L783.771 781.373L782.887 781.531L782.013 781.852H781.082L780.156 782.017L779.229 781.852H778.382L777.586 781.559L776.696 781.401L775.913 780.945L775.152 780.665L774.531 780.139L773.717 779.665L773.113 778.939L772.43 778.36L771.984 777.581L771.415 776.896L771.112 776.057L770.657 775.262L770.499 774.357L770.224 773.592V774.503L769.774 773.717L769.6 774.713L768.894 773.865L768.48 775.015L767.433 774.128L766.628 775.534L764.986 774.578L763.488 776.38L760.654 775.339L757.525 777.989L751.65 776.944L743.228 781.852H752.964L745.483 788.187L755.094 786.477L748.793 794.055L757.96 790.688L753.047 799.277L761.508 794.346L758.146 803.671L765.651 797.315L763.938 807.122L770.224 799.561V809.527L775.142 800.93L776.856 810.742L780.238 801.363L783.612 810.719L785.327 800.906L790.224 809.466V799.52L796.522 807.096L794.813 797.317L802.337 803.689L798.983 794.388L807.466 799.332L802.545 790.728L811.727 794.101L805.418 786.512L815.019 788.221L807.498 781.852H817.192L808.744 776.929L818.334 775.222L809.197 771.865L818.356 768.501L808.785 766.798L817.272 761.852H807.525L815.029 755.496L805.439 757.203L811.739 749.625L802.561 752.997L807.468 744.417L798.993 749.356L802.361 740.018L794.853 746.376L796.561 736.598L790.224 744.221ZM790.224 750.297V744.221L786.351 748.879L787.066 752.971L784.754 754.929L785.566 757.181L783.907 758.147L784.712 759.554L783.404 760.034L784.194 760.984L783.09 761.18L783.883 761.852H782.87L783.695 762.332L784.651 762.503L785.372 763.113L786.224 763.426L786.837 764.164L787.605 764.611L788.042 765.374L788.731 765.958L789.039 766.811L789.602 767.49L789.757 768.372L790.224 769.188V770.097L790.55 771.004L790.383 771.96L790.533 772.816L790.224 773.674V774.564L789.799 775.307L789.642 776.204L789.058 776.907L788.754 777.749L788.071 778.328L787.607 779.138L786.823 779.595L786.237 780.3L785.362 780.621L784.661 781.215L783.771 781.373L782.95 781.852H782.013L781.104 782.185L780.156 782.017L779.263 782.176L778.382 781.852H777.47L776.696 781.401L775.841 781.249L775.152 780.665L774.283 780.346L773.717 779.665L772.906 779.193L772.43 778.36L771.729 777.766L771.415 776.896L770.818 776.178L770.657 775.262L770.224 774.503V775.463L769.6 774.713L769.409 775.802L768.48 775.015L768.003 776.336L766.628 775.534L765.683 777.187L763.488 776.38L761.554 778.706L757.525 777.989L752.964 781.852H758.939L755.094 786.477L760.967 785.432L757.96 790.688L763.571 788.626L761.508 794.346L766.698 791.322L765.651 797.315L770.224 793.442V799.561L774.09 794.911L775.142 800.93L778.172 795.633L780.238 801.363L782.307 795.627L785.327 800.906L786.377 794.893L790.224 799.52V793.43L794.813 797.317L793.771 791.351L798.983 794.388L796.918 788.661L802.545 790.728L799.535 785.465L805.418 786.512L801.543 781.852H807.498L802.911 777.967L808.744 776.929L803.59 773.925L809.197 771.865L803.61 769.813L808.785 766.798L802.918 765.753L807.525 761.852H801.574L805.439 757.203L799.556 758.25L802.561 752.997L796.935 755.064L798.993 749.356L793.804 752.38L794.853 746.376L790.224 750.297ZM790.224 754.466V750.297L787.066 752.971L787.595 755.998L785.566 757.181L786.221 758.999L784.712 759.554L785.407 760.768L784.194 760.984L784.915 761.852H783.883L784.651 762.503L785.596 762.671L786.224 763.426L787.115 763.753L787.605 764.611L788.415 765.083L788.731 765.958L789.44 766.558L789.602 767.49L790.224 768.237V769.188L790.717 770.051L790.55 771.004L790.868 771.886L790.533 772.816L790.695 773.741L790.224 774.564V775.505L789.642 776.204L789.479 777.135L788.754 777.749L788.425 778.662L787.607 779.138L787.13 779.972L786.237 780.3L785.618 781.045L784.661 781.215L783.909 781.852H782.95L782.08 782.359L781.104 782.185L780.197 782.519L779.263 782.176L778.315 782.344L777.47 781.852H776.553L775.841 781.249L774.893 781.08L774.283 780.346L773.375 780.013L772.906 779.193L772.067 778.704L771.729 777.766L770.985 777.136L770.818 776.178L770.224 775.463V776.492L769.409 775.802L769.195 777.03L768.003 776.336L767.461 777.84L765.683 777.187L764.513 779.233L761.554 778.706L758.939 781.852H763.015L760.967 785.432L764.981 784.717L763.571 788.626L767.416 787.214L766.698 791.322L770.224 789.268V793.442L773.368 790.779L774.09 794.911L776.755 791.705L778.172 795.633L780.241 792.015L782.307 795.627L783.723 791.701L786.377 794.893L787.095 790.78L790.224 793.43V789.284L793.771 791.351L793.053 787.241L796.918 788.661L795.507 784.749L799.535 785.465L797.467 781.852H801.543L798.906 778.68L802.911 777.967L799.788 775.322L803.59 773.925L800.071 771.875L803.61 769.813L799.784 768.408L802.918 765.753L798.922 765.042L801.574 761.852H797.495L799.556 758.25L795.527 758.967L796.935 755.064L793.088 756.477L793.804 752.38L790.224 754.466ZM790.224 757.529V754.466L787.595 755.998L788.005 758.344L786.221 758.999L786.772 760.525L785.407 760.768L786.027 761.852H784.915L785.596 762.671L786.597 762.849L787.115 763.753L788.061 764.101L788.415 765.083L789.269 765.58L789.44 766.558L790.224 767.222V768.237L790.893 769.042L790.717 770.051L791.216 770.923L790.868 771.886L791.212 772.837L790.695 773.741L790.867 774.73L790.224 775.505V776.504L789.479 777.135L789.302 778.151L788.425 778.662L788.078 779.624L787.13 779.972L786.618 780.867L785.618 781.045L784.947 781.852H783.909L783.097 782.54L782.08 782.359L781.184 782.881L780.197 782.519L779.226 782.875L778.315 782.344L777.339 782.518L776.553 781.852H775.535L774.893 781.08L773.883 780.9L773.375 780.013L772.411 779.658L772.067 778.704L771.167 778.179L770.985 777.136L770.224 776.492V777.629L769.195 777.03L768.957 778.39L767.461 777.84L766.811 779.642L764.513 779.233L763.015 781.852H766.014L764.981 784.717L767.944 784.19L767.416 787.214L770.224 786.183V789.268L772.838 787.744L773.368 790.779L775.707 788.798L776.755 791.705L778.715 789.348L780.241 792.015L781.767 789.348L783.723 791.701L784.766 788.808L787.095 790.78L787.622 787.768L790.224 789.284V786.202L793.053 787.241L792.525 784.218L795.507 784.749L794.462 781.852H797.467L795.953 779.205L798.906 778.68L796.974 776.356L799.788 775.322L797.492 773.378L800.071 771.875L797.476 770.363L799.784 768.408L796.98 767.378L798.922 765.042L795.971 764.517L797.495 761.852H794.487L795.527 758.967L792.561 759.495L793.088 756.477L790.224 757.529ZM790.224 759.911V757.529L788.005 758.344L788.337 760.247L786.772 760.525L787.25 761.852H786.027L786.597 762.849L787.679 763.041L788.061 764.101L789.076 764.474L789.269 765.58L790.224 766.137V767.222L791.084 767.951L790.893 769.042L791.591 769.882L791.216 770.923L791.761 771.876L791.212 772.837L791.584 773.869L790.867 774.73L791.054 775.801L790.224 776.504V777.614L789.302 778.151L789.111 779.244L788.078 779.624L787.699 780.674L786.618 780.867L786.055 781.852H784.947L784.21 782.738L783.097 782.54L782.237 783.268L781.184 782.881L780.21 783.449L779.226 782.875L778.205 783.251L777.339 782.518L776.25 782.712L775.535 781.852H774.427L773.883 780.9L772.789 780.706L772.411 779.658L771.358 779.272L771.167 778.179L770.224 777.629V778.855L768.957 778.39L768.68 779.974L766.811 779.642L766.014 781.852H768.353L767.944 784.19L770.224 783.784V786.183L772.424 785.374L772.838 787.744L774.895 786.546L775.707 788.798L777.522 787.262L778.715 789.348L780.241 787.512L781.767 789.348L782.954 787.273L784.766 788.808L785.572 786.573L787.622 787.768L788.036 785.398L790.224 786.202V783.808L792.525 784.218L792.112 781.852H794.462L793.656 779.614L795.953 779.205L794.784 777.16L796.974 776.356L795.475 774.553L797.492 773.378L795.704 771.863L797.476 770.363L795.47 769.194L796.98 767.378L794.794 766.574L795.971 764.517L793.673 764.108L794.487 761.852H792.149L792.561 759.495L790.224 759.911ZM790.224 761.852V759.911L788.337 760.247L788.618 761.852H787.25L787.679 763.041L788.862 763.252L789.076 764.474L790.224 764.895V766.137L791.292 766.759L791.084 767.951L792.006 768.731L791.591 769.882L792.368 770.816L791.761 771.876L792.364 772.93L791.584 773.869L791.994 775.005L791.054 775.801L791.265 777.007L790.224 777.614V778.836L789.111 779.244L788.898 780.461L787.699 780.674L787.274 781.852H786.055L785.424 782.954L784.21 782.738L783.411 783.699L782.237 783.268L781.284 784.075L780.21 783.449L779.16 784.06L778.205 783.251L777.05 783.675L776.25 782.712L775.042 782.927L774.427 781.852H773.202L772.789 780.706L771.571 780.489L771.358 779.272L770.224 778.855V780.249L768.68 779.974L768.353 781.852H770.224V783.784L772.088 783.452L772.424 785.374L774.233 784.71L774.895 786.546L776.558 785.577L777.522 787.262L778.995 786.014L780.241 787.512L781.479 786.023L782.954 787.273L783.908 785.604L785.572 786.573L786.234 784.736L788.036 785.398L788.371 783.479L790.224 783.808V781.852H792.112L791.779 779.948L793.656 779.614L793.006 777.813L794.784 777.16L793.838 775.507L795.475 774.553L794.257 773.088L795.704 771.863L794.264 770.644L795.47 769.194L793.839 768.244L794.794 766.574L793.019 765.922L793.673 764.108L791.813 763.777L792.149 761.852H790.224ZM790.224 763.494L788.862 763.252L788.618 761.852H790.224V763.494ZM791.534 765.377L790.224 764.895V763.494L791.813 763.777L791.534 765.377ZM792.47 767.446L791.292 766.759L791.534 765.377L793.019 765.922L792.47 767.446ZM793.053 769.618L792.006 768.731L792.47 767.446L793.839 768.244L793.053 769.618ZM793.245 771.871L792.368 770.816L793.053 769.618L794.264 770.644L793.245 771.871ZM793.043 774.117L792.364 772.93L793.245 771.871L794.257 773.088L793.043 774.117ZM792.463 776.308L791.994 775.005L793.043 774.117L793.838 775.507L792.463 776.308ZM791.503 778.366L791.265 777.007L792.463 776.308L793.006 777.813L791.503 778.366ZM790.224 780.225V778.836L791.503 778.366L791.779 779.948L790.224 780.225ZM788.655 781.852L788.898 780.461L790.224 780.225V781.852H788.655ZM786.789 783.197L787.274 781.852H788.655L788.371 783.479L786.789 783.197ZM784.722 784.181L785.424 782.954L786.789 783.197L786.234 784.736L784.722 784.181ZM782.507 784.787L783.411 783.699L784.722 784.181L783.908 785.604L782.507 784.787ZM780.231 784.967L781.284 784.075L782.507 784.787L781.479 786.023L780.231 784.967ZM777.955 784.763L779.16 784.06L780.231 784.967L778.995 786.014L777.955 784.763ZM775.744 784.154L777.05 783.675L777.955 784.763L776.558 785.577L775.744 784.154ZM773.677 783.17L775.042 782.927L775.744 784.154L774.233 784.71L773.677 783.17ZM771.809 781.852H773.202L773.677 783.17L772.088 783.452L771.809 781.852ZM771.809 781.852H770.224V780.249L771.571 780.489L771.809 781.852ZM1413.71 780.887C1413.71 1134.39 1129.85 1420.5 780.257 1420.5C430.666 1420.5 146.809 1134.39 146.809 780.887C146.809 427.387 430.666 141.278 780.257 141.278C1129.85 141.278 1413.71 427.387 1413.71 780.887ZM1442.71 780.887C1442.71 1150.15 1146.12 1449.5 780.257 1449.5C414.397 1449.5 117.809 1150.15 117.809 780.887C117.809 411.624 414.397 112.278 780.257 112.278C1146.12 112.278 1442.71 411.624 1442.71 780.887ZM780.262 1533.52C1191.7 1533.52 1525.7 1196.81 1525.7 780.885C1525.7 364.961 1191.7 28.2479 780.262 28.2479C368.822 28.2479 34.8271 364.961 34.8271 780.885C34.8271 1196.81 368.822 1533.52 780.262 1533.52ZM870.138 1557.31C1255.51 1512.36 1554.7 1181.89 1554.7 780.885C1554.7 363.015 1229.81 21.7316 821.07 0.314453H1557.67V1557.31H870.138ZM690.386 1557.31H0.670898V0.314453H739.454C330.715 21.7316 5.82715 363.015 5.82715 780.885C5.82715 1181.89 305.017 1512.36 690.386 1557.31Z" fill="#EB3762"/>
<circle cx="779.171" cy="769.745" r="114.663" fill="white"/>
</svg>
