<svg width="1559" height="1552" viewBox="0 0 1559 1552" fill="none" xmlns="http://www.w3.org/2000/svg">
<path fill-rule="evenodd" clip-rule="evenodd" d="M770.181 757.047V758.956H768.262L767.855 756.635L770.181 757.047ZM770.181 754.673V757.047L772.086 757.384L771.81 758.956H770.181V760.567L768.594 760.848L768.262 758.956H765.926L764.896 756.111L767.855 756.635L767.328 753.63L770.181 754.673ZM770.181 751.622V754.673L772.418 755.491L772.086 757.384L773.661 757.664L773.193 758.956H771.81L771.57 760.321L770.181 760.567V761.969L768.875 762.447L768.594 760.848L766.731 761.178L765.926 758.956H762.906L760.86 755.395L764.896 756.111L763.489 752.225L767.328 753.63L766.612 749.551L770.181 751.622ZM770.181 747.447V751.622L772.827 753.157L772.418 755.491L774.211 756.147L773.661 757.664L775.028 757.906L774.425 758.956H773.193L772.776 760.107L771.57 760.321L771.357 761.539L770.181 761.969V763.212L769.117 763.829L768.875 762.447L767.388 762.99L766.731 761.178L764.418 761.588L762.906 758.956H758.805L754.96 754.35L760.86 755.395L757.855 750.165L763.489 752.225L761.432 746.546L766.612 749.551L765.559 743.55L770.181 747.447ZM770.181 741.375V747.447L773.359 750.127L772.827 753.157L774.865 754.34L774.211 756.147L775.721 756.699L775.028 757.906L776.232 758.119L775.534 758.956H774.425L773.875 759.912L772.776 760.107L772.395 761.159L771.357 761.539L771.163 762.642L770.181 763.212V764.324L769.33 765.041L769.117 763.829L767.939 764.512L767.388 762.99L765.6 763.645L764.418 761.588L761.444 762.115L758.805 758.956H752.804L745.315 752.641L754.96 754.35L748.656 746.8L757.855 750.165L752.948 741.624L761.432 746.546L758.055 737.222L765.559 743.55L763.846 733.789L770.181 741.375ZM770.181 731.472V741.375L774.076 746.04L773.359 750.127L775.682 752.086L774.865 754.34L776.524 755.302L775.721 756.699L777.021 757.175L776.232 758.119L777.312 758.311L776.547 758.956H775.534L774.884 759.733L773.875 759.912L773.362 760.805L772.395 761.159L772.043 762.131L771.163 762.642L770.987 763.644L770.181 764.324V765.366L769.525 766.151L769.33 765.041L768.411 765.816L767.939 764.512L766.558 765.313L765.6 763.645L763.394 764.451L761.444 762.115L757.4 762.831L752.804 758.956H742.967L726.266 749.266L745.315 752.641L730.523 740.168L748.656 746.8L736.238 731.929L752.948 741.624L743.244 724.734L758.055 737.222L751.422 718.909L763.846 733.789L760.476 714.58L770.181 731.472ZM770.181 711.973V731.472L775.123 740.074L774.076 746.04L776.723 749.21L775.682 752.086L777.494 753.614L776.524 755.302L777.912 756.107L777.021 757.175L778.163 757.593L777.312 758.311L778.321 758.489L777.517 758.956H776.547L775.821 759.567L774.884 759.733L774.265 760.475L773.362 760.805L772.879 761.646L772.043 762.131L771.719 763.027L770.987 763.644L770.819 764.602L770.181 765.366V766.342L769.704 767.172L769.525 766.151L768.833 766.98L768.411 765.816L767.357 766.704L766.558 765.313L764.912 766.268L763.394 764.451L760.554 765.49L757.4 762.831L751.462 763.884L742.967 758.956H723.665L669.832 739.266L726.266 749.266L676.576 720.438L730.523 740.168L686.593 703.127L736.238 731.929L699.264 687.651L743.244 724.734L714.478 674.666L751.422 718.909L731.735 664.556L760.476 714.58L750.469 657.551L770.181 711.973ZM770.181 654.167V711.973L776.832 730.336L775.123 740.074L778.134 745.315L776.723 749.21L778.679 751.552L777.494 753.614L778.961 754.851L777.912 756.107L779.105 756.799L778.163 757.593L779.208 757.975L778.321 758.489L779.246 758.653L778.42 758.956H777.517L776.744 759.404L775.821 759.567L775.112 760.165L774.265 760.475L773.67 761.187L772.879 761.646L772.431 762.427L771.719 763.027L771.401 763.905L770.819 764.602L770.66 765.508L770.181 766.342V767.273L769.872 768.127L769.704 767.172L769.212 768.028L768.833 766.98L768.053 767.914L767.357 766.704L766.136 767.734L764.912 766.268L762.877 767.449L760.554 765.49L756.675 766.909L751.462 763.884L741.813 765.593L723.665 758.956H666.32L195.08 675.458L198.537 655.759L669.832 739.266L220.137 574.791L226.948 555.987L676.576 720.438L262.178 480.016L272.141 462.674L686.593 703.127L319.993 394.01L332.812 378.659L699.264 687.651L391.764 319.397L407.054 306.505L714.478 674.666L475.343 258.451L492.643 248.414L731.735 664.556L568.183 213.008L586.966 206.138L750.469 657.551L667.455 184.458L687.148 180.969L770.181 654.167ZM790.181 654.26V173.67H770.181V654.167L780.189 711.204L776.832 730.336L780.196 739.623L778.134 745.315L780.198 748.907L778.679 751.552L780.197 753.371L778.961 754.851L780.188 755.885L779.105 756.799L780.169 757.417L779.208 757.975L780.155 758.321L779.246 758.653L780.113 758.807L779.274 758.956H778.42L777.617 759.249L776.744 759.404L775.976 759.849L775.112 760.165L774.408 760.759L773.67 761.187L773.123 761.843L772.431 762.427L771.979 763.213L771.401 763.905L771.093 764.754L770.66 765.508L770.51 766.365L770.181 767.273V768.24L770.036 769.064L769.872 768.127L769.56 768.987L769.212 768.028L768.665 768.98L768.053 767.914L767.17 768.972L766.136 767.734L764.675 768.966L762.877 767.449L760.242 768.978L756.675 766.909L751.042 768.969L741.813 765.593L722.797 768.963L666.32 758.956H187.823V778.956H666.4L195.089 862.466L198.546 882.165L669.898 798.647L220.161 963.137L226.972 981.942L676.66 817.47L262.212 1057.92L272.176 1075.26L686.5 834.883L320.009 1143.91L332.828 1159.26L699.301 850.249L391.792 1218.51L407.081 1231.41L714.507 863.243L475.368 1279.47L492.668 1289.5L731.749 873.379L568.209 1324.9L586.992 1331.77L750.521 880.28L667.496 1353.43L687.19 1356.92L770.181 883.96V1364.24H790.181V883.868L873.19 1356.94L892.883 1353.45L809.844 880.207L973.402 1331.77L992.185 1324.9L828.634 873.356L1067.73 1289.51L1085.03 1279.47L845.892 863.248L1153.33 1231.42L1168.62 1218.53L861.137 850.302L1227.59 1159.29L1240.41 1143.94L873.96 834.953L1288.23 1075.3L1298.19 1057.96L883.727 817.498L1333.47 981.989L1340.28 963.184L890.49 798.676L1361.86 882.197L1365.32 862.498L893.827 778.956H1372.6V758.956H893.907L1365.33 675.426L1361.87 655.727L890.556 739.238L1340.3 574.745L1333.49 555.94L883.811 720.409L1298.23 479.979L1288.26 462.637L873.868 703.056L1240.42 393.978L1227.6 378.627L861.174 687.598L1168.64 319.381L1153.35 306.489L845.921 674.661L1085.06 258.443L1067.76 248.406L828.648 664.58L992.211 213L973.428 206.13L809.896 657.623L892.925 184.446L873.231 180.957L790.181 654.26ZM790.181 712.056V654.26L780.189 711.204L783.55 730.361L780.196 739.623L782.259 745.32L780.198 748.907L781.717 751.551L780.197 753.371L781.426 754.842L780.188 755.885L781.256 756.786L780.169 757.417L781.12 757.968L780.155 758.321L781.036 758.643L780.113 758.807L780.952 758.956L779.274 758.956L777.617 759.249L775.976 759.849L774.408 760.759L773.123 761.843L771.979 763.213L771.093 764.754L770.51 766.365L770.181 768.24V769.888L770.036 769.064L769.89 769.898L769.56 768.987L769.216 769.938L768.665 768.98L768.058 770.036L767.17 768.972L766.142 770.203L764.675 768.966L762.86 770.497L760.242 768.978L756.694 771.036L751.042 768.969L741.836 772.336L722.797 768.963L666.4 778.956H723.737L669.898 798.647L726.341 788.646L676.66 817.47L730.509 797.774L686.5 834.883L736.22 806.037L699.301 850.249L743.276 813.17L714.507 863.243L751.441 819.012L731.749 873.379L760.518 823.306L750.521 880.28L770.181 826.001V883.96L780.189 826.924L790.181 883.868V825.919L809.844 880.207L799.851 823.26L828.634 873.356L808.948 819.004L845.892 863.248L817.139 813.203L861.137 850.302L824.228 806.1L873.96 834.953L829.918 797.817L883.727 817.498L834.046 788.675L890.49 798.676L836.572 778.956H893.827L837.43 768.963L893.907 758.956H836.645L890.556 739.238L834.122 749.237L883.811 720.409L829.905 740.125L873.868 703.056L824.21 731.866L861.174 687.598L817.171 724.702L845.921 674.661L808.967 718.917L828.648 664.58L799.894 714.627L809.896 657.623L790.181 712.056ZM790.181 731.532V712.056L783.55 730.361L785.259 740.098L782.259 745.32L783.669 749.213L781.717 751.551L782.896 753.602L781.426 754.842L782.464 756.085L781.256 756.786L782.193 757.576L781.12 757.968L781.992 758.474L781.036 758.643L781.89 758.956H780.952L782.77 759.278L784.411 759.878L786.052 760.83L787.316 761.895L788.421 763.219L789.29 764.731L789.855 766.293L790.181 768.147V769.981L789.908 771.538L789.304 773.205L788.45 774.691L787.353 776.005L785.96 777.179L784.494 778.03L782.836 778.636L781.032 778.956L779.194 778.956L777.551 778.664L775.893 778.058L774.5 777.25L773.086 776.057L771.949 774.696L771.079 773.182L770.458 771.466L770.181 769.888V770.701L769.89 769.898L769.727 770.828L769.216 769.938L768.841 770.973L768.058 770.036L767.369 771.237L766.142 770.203L764.906 771.683L762.86 770.497L760.548 772.446L756.694 771.036L751.502 774.049L741.836 772.336L723.737 778.956H743.044L726.341 788.646L745.324 785.283L730.509 797.774L748.664 791.134L736.22 806.037L752.952 796.33L743.276 813.17L758.077 800.69L751.441 819.012L763.887 804.107L760.518 823.306L770.181 806.489V826.001L776.814 807.689L780.189 826.924L783.569 807.664L790.181 825.919V806.428L799.851 823.26L796.486 804.081L808.948 819.004L802.321 800.708L817.139 813.203L807.473 796.38L824.228 806.1L811.769 791.179L829.918 797.817L815.092 785.316L834.046 788.675L817.294 778.956H836.572L818.447 772.326L837.43 768.963L818.47 765.603L836.645 758.956H817.371L834.122 749.237L815.101 752.607L829.905 740.125L811.777 746.755L824.21 731.866L807.477 741.573L817.171 724.702L802.343 737.204L808.967 718.917L796.527 733.815L799.894 714.627L790.181 731.532ZM790.181 741.415V731.532L785.259 740.098L786.305 746.057L783.669 749.213L784.706 752.076L782.896 753.602L783.858 755.277L782.464 756.085L783.354 757.151L782.193 757.576L783.038 758.289L781.992 758.474L782.821 758.956H781.89L782.77 759.278L783.643 759.432L784.411 759.878L785.315 760.208L786.052 760.83L786.778 761.251L787.316 761.895L787.984 762.459L788.421 763.219L788.988 763.898L789.29 764.731L789.71 765.462L789.855 766.293L790.181 767.191V768.147L790.342 769.064L790.181 769.981V770.784L789.908 771.538L789.752 772.425L789.304 773.205L789.007 774.023L788.45 774.691L788.017 775.445L787.353 776.005L786.76 776.715L785.96 777.179L785.302 777.734L784.494 778.03L783.719 778.48L782.836 778.636L781.962 778.956H781.032L780.113 779.118L779.194 778.956H778.347L777.551 778.664L776.669 778.508L775.893 778.058L775.126 777.777L774.5 777.25L773.688 776.779L773.086 776.057L772.398 775.477L771.949 774.696L771.381 774.016L771.079 773.182L770.618 772.379L770.458 771.466L770.181 770.701V771.618L769.727 770.828L769.552 771.825L768.841 770.973L768.423 772.126L767.369 771.237L766.56 772.643L764.906 771.683L763.399 773.488L760.548 772.446L757.406 775.095L751.502 774.049L743.044 778.956H752.828L745.324 785.283L754.979 783.572L748.664 791.134L757.872 787.767L752.952 796.33L761.44 791.405L758.077 800.69L765.6 794.347L763.887 804.107L770.181 796.57V806.489L775.1 797.926L776.814 807.689L780.196 798.351L783.569 807.664L785.282 797.901L790.181 806.428V796.53L796.486 804.081L794.778 794.348L802.321 800.708L798.965 791.444L807.473 796.38L802.548 787.807L811.769 791.179L805.445 783.607L815.092 785.316L807.549 778.956H817.294L808.81 774.034L818.447 772.326L809.267 768.969L818.47 765.603L808.851 763.899L817.371 758.956H807.573L815.101 752.607L805.464 754.315L811.777 746.755L802.564 750.125L807.477 741.573L798.974 746.507L802.343 737.204L794.819 743.549L796.527 733.815L790.181 741.415ZM790.181 747.46V741.415L786.305 746.057L787.019 750.126L784.706 752.076L785.517 754.314L783.858 755.277L784.66 756.673L783.354 757.151L784.141 758.093L783.038 758.289L783.829 758.956H782.821L783.643 759.432L784.595 759.601L785.315 760.208L786.167 760.52L786.778 761.251L787.546 761.697L787.984 762.459L788.679 763.045L788.988 763.898L789.554 764.576L789.71 765.462L790.181 766.282V767.191L790.51 768.102L790.342 769.064L790.492 769.923L790.181 770.784V771.678L789.752 772.425L789.595 773.32L789.007 774.023L788.702 774.867L788.017 775.445L787.55 776.256L786.76 776.715L786.176 777.415L785.302 777.734L784.604 778.323L783.719 778.48L782.898 778.956H781.962L781.059 779.286L780.113 779.118L779.224 779.276L778.347 778.956H777.44L776.669 778.508L775.812 778.356L775.126 777.777L774.257 777.459L773.688 776.779L772.875 776.307L772.398 775.477L771.696 774.886L771.381 774.016L770.778 773.294L770.618 772.379L770.181 771.618V772.578L769.552 771.825L769.36 772.916L768.423 772.126L767.945 773.447L766.56 772.643L765.61 774.297L763.399 773.488L761.458 775.813L757.406 775.095L752.828 778.956H758.833L754.979 783.572L760.883 782.526L757.872 787.767L763.504 785.707L761.44 791.405L766.646 788.385L765.6 794.347L770.181 790.484V796.57L774.05 791.936L775.1 797.926L778.131 792.651L780.196 798.351L782.262 792.646L785.282 797.901L786.331 791.92L790.181 796.53V790.472L794.778 794.348L793.736 788.41L798.965 791.444L796.9 785.741L802.548 787.807L799.533 782.559L805.445 783.607L801.561 778.956H807.549L802.944 775.073L808.81 774.034L803.633 771.03L809.267 768.969L803.652 766.915L808.851 763.899L802.95 762.853L807.573 758.956H801.589L805.464 754.315L799.555 755.362L802.564 750.125L796.915 752.191L798.974 746.507L793.77 749.526L794.819 743.549L790.181 747.46ZM790.181 751.608V747.46L787.019 750.126L787.547 753.136L785.517 754.314L786.171 756.121L784.66 756.673L785.353 757.878L784.141 758.093L784.861 758.956H783.829L784.595 759.601L785.54 759.768L786.167 760.52L787.057 760.846L787.546 761.697L788.362 762.17L788.679 763.045L789.391 763.645L789.554 764.576L790.181 765.326V766.282L790.678 767.147L790.51 768.102L790.831 768.987L790.492 769.923L790.655 770.852L790.181 771.678V772.618L789.595 773.32L789.431 774.252L788.702 774.867L788.371 775.78L787.55 776.256L787.074 777.086L786.176 777.415L785.559 778.154L784.604 778.323L783.853 778.956H782.898L782.032 779.458L781.059 779.286L780.155 779.617L779.224 779.276L778.281 779.443L777.44 778.956H776.523L775.812 778.356L774.865 778.189L774.257 777.459L773.345 777.126L772.875 776.307L772.034 775.819L771.696 774.886L770.947 774.254L770.778 773.294L770.181 772.578V773.608L769.36 772.916L769.145 774.143L767.945 773.447L767.4 774.951L765.61 774.297L764.436 776.341L761.458 775.813L758.833 778.956H762.934L760.883 782.526L764.915 781.811L763.504 785.707L767.364 784.295L766.646 788.385L770.181 786.334V790.484L773.329 787.83L774.05 791.936L776.716 788.744L778.131 792.651L780.198 789.053L782.262 792.646L783.677 788.741L786.331 791.92L787.049 787.831L790.181 790.472V786.347L793.736 788.41L793.019 784.322L796.9 785.741L795.487 781.843L799.533 782.559L797.462 778.956H801.561L798.916 775.787L802.944 775.073L799.808 772.429L803.633 771.03L800.096 768.978L803.652 766.915L799.803 765.507L802.95 762.853L798.929 762.141L801.589 758.956H797.491L799.555 755.362L795.507 756.079L796.915 752.191L793.055 753.603L793.77 749.526L790.181 751.608ZM790.181 754.654V751.608L787.547 753.136L787.956 755.468L786.171 756.121L786.72 757.636L785.353 757.878L785.971 758.956H784.861L785.54 759.768L786.54 759.946L787.057 760.846L788.008 761.193L788.362 762.17L789.219 762.667L789.391 763.645L790.181 764.311V765.326L790.856 766.135L790.678 767.147L791.181 768.023L790.831 768.987L791.178 769.943L790.655 770.852L790.829 771.842L790.181 772.618V773.62L789.431 774.252L789.253 775.269L788.371 775.78L788.024 776.739L787.074 777.086L786.563 777.976L785.559 778.154L784.889 778.956H783.853L783.044 779.638L782.032 779.458L781.138 779.976L780.155 779.617L779.189 779.97L778.281 779.443L777.306 779.616L776.523 778.956H775.506L774.865 778.189L773.853 778.009L773.345 777.126L772.38 776.773L772.034 775.819L771.129 775.294L770.947 774.254L770.181 773.608V774.744L769.145 774.143L768.906 775.503L767.4 774.951L766.748 776.75L764.436 776.341L762.934 778.956H765.949L764.915 781.811L767.892 781.284L767.364 784.295L770.181 783.265V786.334L772.8 784.814L773.329 787.83L775.67 785.856L776.716 788.744L778.673 786.399L780.198 789.053L781.722 786.4L783.677 788.741L784.718 785.865L787.049 787.831L787.574 784.835L790.181 786.347V783.284L793.019 784.322L792.491 781.312L795.487 781.843L794.442 778.956H797.462L795.944 776.313L798.916 775.787L796.976 773.464L799.808 772.429L797.501 770.483L800.096 768.978L797.484 767.462L799.803 765.507L796.98 764.475L798.929 762.141L795.962 761.615L797.491 758.956H794.465L795.507 756.079L792.527 756.607L793.055 753.603L790.181 754.654ZM790.181 757.023V754.654L787.956 755.468L788.288 757.358L786.72 757.636L787.198 758.956H785.971L786.54 759.946L787.626 760.138L788.008 761.193L789.026 761.566L789.219 762.667L790.181 763.225V764.311L791.047 765.042L790.856 766.135L791.559 766.977L791.181 768.023L791.731 768.98L791.178 769.943L791.552 770.976L790.829 771.842L791.017 772.915L790.181 773.62V774.73L789.253 775.269L789.062 776.359L788.024 776.739L787.645 777.784L786.563 777.976L786 778.956H784.889L784.155 779.834L783.044 779.638L782.188 780.36L781.138 779.976L780.169 780.539L779.189 779.97L778.169 780.343L777.306 779.616L776.218 779.809L775.506 778.956H774.396L773.853 778.009L772.757 777.815L772.38 776.773L771.321 776.386L771.129 775.294L770.181 774.744V775.969L768.906 775.503L768.629 777.083L766.748 776.75L765.949 778.956H768.3L767.892 781.284L770.181 780.878V783.265L772.386 782.458L772.8 784.814L774.86 783.619L775.67 785.856L777.483 784.327L778.673 786.399L780.197 784.574L781.722 786.4L782.907 784.338L784.718 785.865L785.522 783.645L787.574 784.835L787.987 782.481L790.181 783.284V780.902L792.491 781.312L792.077 778.956H794.442L793.633 776.723L795.944 776.313L794.771 774.271L796.976 773.464L795.471 771.661L797.501 770.483L795.701 768.966L797.484 767.462L795.464 766.291L796.98 764.475L794.781 763.671L795.962 761.615L793.65 761.205L794.465 758.956H792.115L792.527 756.607L790.181 757.023ZM790.181 758.956V757.023L788.288 757.358L788.568 758.956H787.198L787.626 760.138L788.812 760.348L789.026 761.566L790.181 761.988V763.225L791.257 763.849L791.047 765.042L791.977 765.825L791.559 766.977L792.343 767.915L791.731 768.98L792.337 770.036L791.552 770.976L791.965 772.116L791.017 772.915L791.229 774.122L790.181 774.73V775.95L789.062 776.359L788.849 777.57L787.645 777.784L787.221 778.956H786L785.371 780.05L784.155 779.834L783.358 780.788L782.188 780.36L781.239 781.16L780.169 780.539L779.122 781.147L778.169 780.343L777.016 780.765L776.218 779.809L775.01 780.023L774.396 778.956H773.17L772.757 777.815L771.534 777.598L771.321 776.386L770.181 775.969V777.358L768.629 777.083L768.3 778.956H770.181V780.878L772.051 780.547L772.386 782.458L774.199 781.795L774.86 783.619L776.522 782.655L777.483 784.327L778.955 783.086L780.197 784.574L781.432 783.095L782.907 784.338L783.86 782.68L785.522 783.645L786.183 781.821L787.987 782.481L788.322 780.573L790.181 780.902V778.956H792.077L791.744 777.057L793.633 776.723L792.982 774.925L794.771 774.271L793.821 772.618L795.471 771.661L794.245 770.193L795.701 768.966L794.251 767.743L795.464 766.291L793.823 765.339L794.781 763.671L792.994 763.017L793.65 761.205L791.779 760.874L792.115 758.956H790.181ZM790.181 760.591L788.812 760.348L788.568 758.956H790.181V760.591ZM791.499 762.47L790.181 761.988V760.591L791.779 760.874L791.499 762.47ZM792.443 764.538L791.257 763.849L791.499 762.47L792.994 763.017L792.443 764.538ZM793.032 766.715L791.977 765.825L792.443 764.538L793.823 765.339L793.032 766.715ZM793.225 768.972L792.343 767.915L793.032 766.715L794.251 767.743L793.225 768.972ZM793.021 771.225L792.337 770.036L793.225 768.972L794.245 770.193L793.021 771.225ZM792.437 773.421L791.965 772.116L793.021 771.225L793.821 772.618L792.437 773.421ZM791.467 775.479L791.229 774.122L792.437 773.421L792.982 774.925L791.467 775.479ZM790.181 777.335V775.95L791.467 775.479L791.744 777.057L790.181 777.335ZM788.606 778.956L788.849 777.57L790.181 777.335V778.956H788.606ZM786.737 780.292L787.221 778.956H788.606L788.322 780.573L786.737 780.292ZM784.671 781.268L785.371 780.05L786.737 780.292L786.183 781.821L784.671 781.268ZM782.458 781.867L783.358 780.788L784.671 781.268L783.86 782.68L782.458 781.867ZM780.188 782.046L781.239 781.16L782.458 781.867L781.432 783.095L780.188 782.046ZM777.918 781.845L779.122 781.147L780.188 782.046L778.955 783.086L777.918 781.845ZM775.71 781.242L777.016 780.765L777.918 781.845L776.522 782.655L775.71 781.242ZM773.645 780.265L775.01 780.023L775.71 781.242L774.199 781.795L773.645 780.265ZM771.772 778.956H773.17L773.645 780.265L772.051 780.547L771.772 778.956ZM771.772 778.956H770.181V777.358L771.534 777.598L771.772 778.956ZM1414.08 777.956C1414.08 1129.95 1130.15 1415.05 780.215 1415.05C430.275 1415.05 146.353 1129.95 146.353 777.956C146.353 425.963 430.275 140.858 780.215 140.858C1130.15 140.858 1414.08 425.963 1414.08 777.956ZM1443.08 777.956C1443.08 1145.83 1146.3 1444.05 780.215 1444.05C414.126 1444.05 117.353 1145.83 117.353 777.956C117.353 410.08 414.126 111.858 780.215 111.858C1146.3 111.858 1443.08 410.08 1443.08 777.956ZM780.219 1527.66C1192.05 1527.66 1526.14 1192.14 1526.14 777.954C1526.14 363.772 1192.05 28.2524 780.219 28.2524C368.394 28.2524 34.3018 363.772 34.3018 777.954C34.3018 1192.14 368.394 1527.66 780.219 1527.66ZM870.156 1551.47C1255.76 1506.68 1555.14 1177.45 1555.14 777.954C1555.14 361.65 1230.04 21.6464 821.044 0.314453H1558.11V1551.47H870.156ZM690.283 1551.47H0.141602V0.314453H739.395C330.397 21.6464 5.30182 361.65 5.30182 777.954C5.30182 1177.45 304.676 1506.68 690.283 1551.47Z" fill="#0024B1"/>
<circle cx="779.128" cy="775.89" r="124.836" fill="white"/>
</svg>
