<svg width="490" height="249" viewBox="0 0 490 249" fill="none" xmlns="http://www.w3.org/2000/svg">
<path fill-rule="evenodd" clip-rule="evenodd" d="M248.019 248.051C247.9 248.052 247.781 248.052 247.662 248.052C247.544 248.052 247.425 248.052 247.306 248.051L248.019 248.051ZM0.589621 0.388674L0.589621 0.388415L495.863 0.388458L495.863 248.052L248.019 248.051C384.635 247.859 495.325 137.05 495.325 0.388718L0.589621 0.388674ZM0.589621 0.388674L0.58962 17.6235C0.589345 17.6196 0.589101 17.6158 0.588826 17.6119C0.197927 11.9215 -0.000711277 6.17832 -0.00071077 0.388674L0.589621 0.388674ZM0.58962 17.6235C9.43092 146.247 116.481 247.867 247.306 248.051L0.5896 248.051L0.58962 17.6235Z" fill="#EB3762"/>
</svg>
