<svg width="39" height="38" viewBox="0 0 39 38" fill="none" xmlns="http://www.w3.org/2000/svg">
<path d="M25.5113 0.461914H13.8405C3.18969 0.461914 0.667969 2.89957 0.667969 13.1953V24.4771C0.667969 34.7729 3.18969 37.2105 13.8405 37.2105H25.5113C36.1621 37.2105 38.6838 34.7729 38.6838 24.4771V13.1953C38.6838 2.89957 36.1351 0.461914 25.5113 0.461914ZM31.3594 26.6805H28.5969C27.5515 26.6805 27.2284 25.8767 25.3497 24.0362C23.7135 22.505 22.9896 22.2983 22.5873 22.2983C22.0234 22.2983 21.8618 22.4544 21.8618 23.2063V25.6179C21.8618 26.2671 21.6479 26.656 19.877 26.656C16.953 26.656 13.7058 24.9442 11.4264 21.7532C7.99235 17.0861 7.05146 13.5842 7.05146 12.8584C7.05146 12.4695 7.21303 12.1066 7.99077 12.1066H10.7532C11.4502 12.1066 11.7195 12.4175 11.9888 13.1433C13.3557 16.9559 15.6367 20.3016 16.576 20.3016C16.9245 20.3016 17.086 20.1454 17.086 19.291V15.3466C16.9783 13.5306 15.9852 13.376 15.9852 12.7283C15.9852 12.4159 16.2545 12.1051 16.6821 12.1051H21.0286C21.6194 12.1051 21.8333 12.4159 21.8333 13.0897V18.4075C21.8333 18.9771 22.1026 19.1853 22.2625 19.1853C22.611 19.1853 22.9072 18.9771 23.5503 18.3554C25.5366 16.2026 26.9575 12.883 26.9575 12.883C27.146 12.494 27.4675 12.1311 28.1661 12.1311H30.9286C31.7602 12.1311 31.9486 12.5446 31.7602 13.1157C31.4117 14.6729 28.0314 19.2879 28.0314 19.2879C27.7368 19.7549 27.6291 19.9617 28.0314 20.4823C28.3261 20.8712 29.2923 21.6751 29.937 22.4008C31.1171 23.6978 32.0279 24.7864 32.2702 25.5398C32.5395 26.2901 32.1356 26.679 31.3578 26.679L31.3594 26.6805Z" fill="black"/>
</svg>
