<svg width="1441" height="33" viewBox="0 0 1441 33" fill="none" xmlns="http://www.w3.org/2000/svg">
<path d="M0.496094 6.18555C23.2906 6.18555 23.2906 26.0356 46.085 26.0356C68.8795 26.0356 68.8795 6.18555 91.685 6.18555C114.48 6.18555 114.48 26.0356 137.274 26.0356C160.068 26.0356 160.068 6.18555 182.874 6.18555C205.668 6.18555 205.668 26.0356 228.463 26.0356C251.257 26.0356 251.257 6.18555 274.052 6.18555C296.846 6.18555 296.846 26.0356 319.652 26.0356C342.446 26.0356 342.446 6.18555 365.252 6.18555C388.046 6.18555 388.046 26.0356 410.852 26.0356C433.646 26.0356 433.646 6.18555 456.452 6.18555C479.246 6.18555 479.246 26.0356 502.041 26.0356C524.835 26.0356 524.835 6.18555 547.641 6.18555C570.435 6.18555 570.435 26.0356 593.241 26.0356C616.046 26.0356 616.046 6.18555 638.841 6.18555C661.635 6.18555 661.635 26.0356 684.441 26.0356C707.246 26.0356 707.246 6.18555 730.041 6.18555C752.846 6.18555 752.846 26.0356 775.641 26.0356" stroke="#0024B1" stroke-width="12" stroke-miterlimit="10"/>
<path d="M727.725 6.18555C750.519 6.18555 750.519 26.0356 773.314 26.0356C796.108 26.0356 796.108 6.18555 818.914 6.18555C841.708 6.18555 841.708 26.0356 864.502 26.0356C887.297 26.0356 887.297 6.18555 910.102 6.18555C932.897 6.18555 932.897 26.0356 955.691 26.0356C978.486 26.0356 978.486 6.18555 1001.28 6.18555C1024.07 6.18555 1024.07 26.0356 1046.88 26.0356C1069.67 26.0356 1069.67 6.18555 1092.48 6.18555C1115.27 6.18555 1115.27 26.0356 1138.08 26.0356C1160.87 26.0356 1160.87 6.18555 1183.68 6.18555C1206.47 6.18555 1206.47 26.0356 1229.27 26.0356C1252.06 26.0356 1252.06 6.18555 1274.87 6.18555C1297.66 6.18555 1297.66 26.0356 1320.47 26.0356C1343.27 26.0356 1343.27 6.18555 1366.07 6.18555C1388.86 6.18555 1388.86 26.0356 1411.67 26.0356C1434.47 26.0356 1434.47 6.18555 1457.27 6.18555C1480.07 6.18555 1480.07 26.0356 1502.87 26.0356" stroke="#0024B1" stroke-width="12" stroke-miterlimit="10"/>
</svg>
